<?xml version="1.0" encoding="utf-8" standalone="no"?>
<!DOCTYPE svg PUBLIC "-//W3C//DTD SVG 1.1//EN"
  "http://www.w3.org/Graphics/SVG/1.1/DTD/svg11.dtd">
<svg xmlns:xlink="http://www.w3.org/1999/xlink" width="278.62875pt" height="127.496591pt" viewBox="0 0 278.62875 127.496591" xmlns="http://www.w3.org/2000/svg" version="1.1">
 <metadata>
  <rdf:RDF xmlns:dc="http://purl.org/dc/elements/1.1/" xmlns:cc="http://creativecommons.org/ns#" xmlns:rdf="http://www.w3.org/1999/02/22-rdf-syntax-ns#">
   <cc:Work>
    <dc:type rdf:resource="http://purl.org/dc/dcmitype/StillImage"/>
    <dc:date>2026-06-21T14:42:19.495293</dc:date>
    <dc:format>image/svg+xml</dc:format>
    <dc:creator>
     <cc:Agent>
      <dc:title>Matplotlib v3.11.0, https://matplotlib.org/</dc:title>
     </cc:Agent>
    </dc:creator>
   </cc:Work>
  </rdf:RDF>
 </metadata>
 <defs>
  <style type="text/css">*{stroke-linejoin: round; stroke-linecap: butt}</style>
 </defs>
 <g id="figure_1">
  <g id="patch_1">
   <path d="M 0 127.496591 
L 278.62875 127.496591 
L 278.62875 0 
L 0 0 
z
" style="fill: #0b0d12"/>
  </g>
  <g id="axes_1">
   <g id="patch_2">
    <path d="M 33.718357 57.721173 
L 68.91703 57.721173 
L 68.91703 30.344427 
L 33.718357 30.344427 
z
" clip-path="url(#p7031d9fcf0)" style="fill: #1b2330; stroke: #262a33; stroke-linejoin: miter"/>
   </g>
   <g id="patch_3">
    <path d="M 68.91703 57.721173 
L 104.115702 57.721173 
L 104.115702 30.344427 
L 68.91703 30.344427 
z
" clip-path="url(#p7031d9fcf0)" style="fill: #1b2330; stroke: #262a33; stroke-linejoin: miter"/>
   </g>
   <g id="patch_4">
    <path d="M 104.115702 57.721173 
L 139.314375 57.721173 
L 139.314375 30.344427 
L 104.115702 30.344427 
z
" clip-path="url(#p7031d9fcf0)" style="fill: #1b2330; stroke: #262a33; stroke-linejoin: miter"/>
   </g>
   <g id="patch_5">
    <path d="M 139.314375 57.721173 
L 174.513048 57.721173 
L 174.513048 30.344427 
L 139.314375 30.344427 
z
" clip-path="url(#p7031d9fcf0)" style="fill: #1b2330; stroke: #262a33; stroke-linejoin: miter"/>
   </g>
   <g id="patch_6">
    <path d="M 174.513048 57.721173 
L 209.71172 57.721173 
L 209.71172 30.344427 
L 174.513048 30.344427 
z
" clip-path="url(#p7031d9fcf0)" style="fill: #1b2330; stroke: #262a33; stroke-linejoin: miter"/>
   </g>
   <g id="patch_7">
    <path d="M 209.71172 57.721173 
L 244.910393 57.721173 
L 244.910393 30.344427 
L 209.71172 30.344427 
z
" clip-path="url(#p7031d9fcf0)" style="fill: #1b2330; stroke: #262a33; stroke-linejoin: miter"/>
   </g>
   <g id="patch_8">
    <path d="M 33.718357 85.097918 
L 68.91703 85.097918 
L 68.91703 57.721173 
L 33.718357 57.721173 
z
" clip-path="url(#p7031d9fcf0)" style="fill: #1b2330; stroke: #262a33; stroke-linejoin: miter"/>
   </g>
   <g id="patch_9">
    <path d="M 68.91703 85.097918 
L 104.115702 85.097918 
L 104.115702 57.721173 
L 68.91703 57.721173 
z
" clip-path="url(#p7031d9fcf0)" style="fill: #13151b; stroke: #262a33; stroke-linejoin: miter"/>
   </g>
   <g id="patch_10">
    <path d="M 104.115702 85.097918 
L 139.314375 85.097918 
L 139.314375 57.721173 
L 104.115702 57.721173 
z
" clip-path="url(#p7031d9fcf0)" style="fill: #13151b; stroke: #262a33; stroke-linejoin: miter"/>
   </g>
   <g id="patch_11">
    <path d="M 139.314375 85.097918 
L 174.513048 85.097918 
L 174.513048 57.721173 
L 139.314375 57.721173 
z
" clip-path="url(#p7031d9fcf0)" style="fill: #13151b; stroke: #262a33; stroke-linejoin: miter"/>
   </g>
   <g id="patch_12">
    <path d="M 174.513048 85.097918 
L 209.71172 85.097918 
L 209.71172 57.721173 
L 174.513048 57.721173 
z
" clip-path="url(#p7031d9fcf0)" style="fill: #13151b; stroke: #262a33; stroke-linejoin: miter"/>
   </g>
   <g id="patch_13">
    <path d="M 209.71172 85.097918 
L 244.910393 85.097918 
L 244.910393 57.721173 
L 209.71172 57.721173 
z
" clip-path="url(#p7031d9fcf0)" style="fill: #13151b; stroke: #262a33; stroke-linejoin: miter"/>
   </g>
   <g id="patch_14">
    <path d="M 33.718357 112.474664 
L 68.91703 112.474664 
L 68.91703 85.097918 
L 33.718357 85.097918 
z
" clip-path="url(#p7031d9fcf0)" style="fill: #1b2330; stroke: #262a33; stroke-linejoin: miter"/>
   </g>
   <g id="patch_15">
    <path d="M 68.91703 112.474664 
L 104.115702 112.474664 
L 104.115702 85.097918 
L 68.91703 85.097918 
z
" clip-path="url(#p7031d9fcf0)" style="fill: #13151b; stroke: #262a33; stroke-linejoin: miter"/>
   </g>
   <g id="patch_16">
    <path d="M 104.115702 112.474664 
L 139.314375 112.474664 
L 139.314375 85.097918 
L 104.115702 85.097918 
z
" clip-path="url(#p7031d9fcf0)" style="fill: #13151b; stroke: #262a33; stroke-linejoin: miter"/>
   </g>
   <g id="patch_17">
    <path d="M 139.314375 112.474664 
L 174.513048 112.474664 
L 174.513048 85.097918 
L 139.314375 85.097918 
z
" clip-path="url(#p7031d9fcf0)" style="fill: #13151b; stroke: #262a33; stroke-linejoin: miter"/>
   </g>
   <g id="patch_18">
    <path d="M 174.513048 112.474664 
L 209.71172 112.474664 
L 209.71172 85.097918 
L 174.513048 85.097918 
z
" clip-path="url(#p7031d9fcf0)" style="fill: #f59e0b; stroke: #262a33; stroke-linejoin: miter"/>
   </g>
   <g id="patch_19">
    <path d="M 209.71172 112.474664 
L 244.910393 112.474664 
L 244.910393 85.097918 
L 209.71172 85.097918 
z
" clip-path="url(#p7031d9fcf0)" style="fill: #13151b; stroke: #262a33; stroke-linejoin: miter"/>
   </g>
   <g id="text_1">
    <!-- i -->
    <g style="fill: #c9d1e0" transform="translate(49.789724 46.890652) scale(0.11 -0.11)">
     <defs>
      <path id="DejaVuSans-4c" d="M 603 3500 
L 1178 3500 
L 1178 0 
L 603 0 
L 603 3500 
z
M 603 4863 
L 1178 4863 
L 1178 4134 
L 603 4134 
L 603 4863 
z
" transform="scale(0.015625)"/>
     </defs>
     <use xlink:href="#DejaVuSans-4c"/>
    </g>
   </g>
   <g id="text_2">
    <!-- 1 -->
    <g style="fill: #c9d1e0" transform="translate(83.016991 46.890222) scale(0.11 -0.11)">
     <defs>
      <path id="DejaVuSans-14" d="M 794 531 
L 1825 531 
L 1825 4091 
L 703 3866 
L 703 4441 
L 1819 4666 
L 2450 4666 
L 2450 531 
L 3481 531 
L 3481 0 
L 794 0 
L 794 531 
z
" transform="scale(0.015625)"/>
     </defs>
     <use xlink:href="#DejaVuSans-14"/>
    </g>
   </g>
   <g id="text_3">
    <!-- 2 -->
    <g style="fill: #c9d1e0" transform="translate(118.215664 46.890222) scale(0.11 -0.11)">
     <defs>
      <path id="DejaVuSans-15" d="M 1228 531 
L 3431 531 
L 3431 0 
L 469 0 
L 469 531 
Q 828 903 1448 1529 
Q 2069 2156 2228 2338 
Q 2531 2678 2651 2914 
Q 2772 3150 2772 3378 
Q 2772 3750 2511 3984 
Q 2250 4219 1831 4219 
Q 1534 4219 1204 4116 
Q 875 4013 500 3803 
L 500 4441 
Q 881 4594 1212 4672 
Q 1544 4750 1819 4750 
Q 2544 4750 2975 4387 
Q 3406 4025 3406 3419 
Q 3406 3131 3298 2873 
Q 3191 2616 2906 2266 
Q 2828 2175 2409 1742 
Q 1991 1309 1228 531 
z
" transform="scale(0.015625)"/>
     </defs>
     <use xlink:href="#DejaVuSans-15"/>
    </g>
   </g>
   <g id="text_4">
    <!-- 3 -->
    <g style="fill: #c9d1e0" transform="translate(153.414336 46.890222) scale(0.11 -0.11)">
     <defs>
      <path id="DejaVuSans-16" d="M 2597 2516 
Q 3050 2419 3304 2112 
Q 3559 1806 3559 1356 
Q 3559 666 3084 287 
Q 2609 -91 1734 -91 
Q 1441 -91 1130 -33 
Q 819 25 488 141 
L 488 750 
Q 750 597 1062 519 
Q 1375 441 1716 441 
Q 2309 441 2620 675 
Q 2931 909 2931 1356 
Q 2931 1769 2642 2001 
Q 2353 2234 1838 2234 
L 1294 2234 
L 1294 2753 
L 1863 2753 
Q 2328 2753 2575 2939 
Q 2822 3125 2822 3475 
Q 2822 3834 2567 4026 
Q 2313 4219 1838 4219 
Q 1578 4219 1281 4162 
Q 984 4106 628 3988 
L 628 4550 
Q 988 4650 1302 4700 
Q 1616 4750 1894 4750 
Q 2613 4750 3031 4423 
Q 3450 4097 3450 3541 
Q 3450 3153 3228 2886 
Q 3006 2619 2597 2516 
z
" transform="scale(0.015625)"/>
     </defs>
     <use xlink:href="#DejaVuSans-16"/>
    </g>
   </g>
   <g id="text_5">
    <!-- 4 -->
    <g style="fill: #c9d1e0" transform="translate(188.613009 46.890222) scale(0.11 -0.11)">
     <defs>
      <path id="DejaVuSans-17" d="M 2419 4116 
L 825 1625 
L 2419 1625 
L 2419 4116 
z
M 2253 4666 
L 3047 4666 
L 3047 1625 
L 3713 1625 
L 3713 1100 
L 3047 1100 
L 3047 0 
L 2419 0 
L 2419 1100 
L 313 1100 
L 313 1709 
L 2253 4666 
z
" transform="scale(0.015625)"/>
     </defs>
     <use xlink:href="#DejaVuSans-17"/>
    </g>
   </g>
   <g id="text_6">
    <!-- 5 -->
    <g style="fill: #c9d1e0" transform="translate(223.811682 46.890222) scale(0.11 -0.11)">
     <defs>
      <path id="DejaVuSans-18" d="M 691 4666 
L 3169 4666 
L 3169 4134 
L 1269 4134 
L 1269 2991 
Q 1406 3038 1543 3061 
Q 1681 3084 1819 3084 
Q 2600 3084 3056 2656 
Q 3513 2228 3513 1497 
Q 3513 744 3044 326 
Q 2575 -91 1722 -91 
Q 1428 -91 1123 -41 
Q 819 9 494 109 
L 494 744 
Q 775 591 1075 516 
Q 1375 441 1709 441 
Q 2250 441 2565 725 
Q 2881 1009 2881 1497 
Q 2881 1984 2565 2268 
Q 2250 2553 1709 2553 
Q 1456 2553 1204 2497 
Q 953 2441 691 2322 
L 691 4666 
z
" transform="scale(0.015625)"/>
     </defs>
     <use xlink:href="#DejaVuSans-18"/>
    </g>
   </g>
   <g id="text_7">
    <!-- P[i] -->
    <g style="fill: #c9d1e0" transform="translate(42.181678 74.267397) scale(0.11 -0.11)">
     <defs>
      <path id="DejaVuSans-33" d="M 1259 4147 
L 1259 2394 
L 2053 2394 
Q 2494 2394 2734 2622 
Q 2975 2850 2975 3272 
Q 2975 3691 2734 3919 
Q 2494 4147 2053 4147 
L 1259 4147 
z
M 628 4666 
L 2053 4666 
Q 2838 4666 3239 4311 
Q 3641 3956 3641 3272 
Q 3641 2581 3239 2228 
Q 2838 1875 2053 1875 
L 1259 1875 
L 1259 0 
L 628 0 
L 628 4666 
z
" transform="scale(0.015625)"/>
      <path id="DejaVuSans-3e" d="M 550 4863 
L 1875 4863 
L 1875 4416 
L 1125 4416 
L 1125 -397 
L 1875 -397 
L 1875 -844 
L 550 -844 
L 550 4863 
z
" transform="scale(0.015625)"/>
      <path id="DejaVuSans-40" d="M 1947 4863 
L 1947 -844 
L 622 -844 
L 622 -397 
L 1369 -397 
L 1369 4416 
L 622 4416 
L 622 4863 
L 1947 4863 
z
" transform="scale(0.015625)"/>
     </defs>
     <use xlink:href="#DejaVuSans-33"/>
     <use xlink:href="#DejaVuSans-3e" transform="translate(60.296875 0)"/>
     <use xlink:href="#DejaVuSans-4c" transform="translate(99.3125 0)"/>
     <use xlink:href="#DejaVuSans-40" transform="translate(127.09375 0)"/>
    </g>
   </g>
   <g id="text_8">
    <!-- A -->
    <g style="fill: #c9d1e0" transform="translate(82.754022 74.266967) scale(0.11 -0.11)">
     <defs>
      <path id="DejaVuSans-24" d="M 2188 4044 
L 1331 1722 
L 3047 1722 
L 2188 4044 
z
M 1831 4666 
L 2547 4666 
L 4325 0 
L 3669 0 
L 3244 1197 
L 1141 1197 
L 716 0 
L 50 0 
L 1831 4666 
z
" transform="scale(0.015625)"/>
     </defs>
     <use xlink:href="#DejaVuSans-24"/>
    </g>
   </g>
   <g id="text_9">
    <!-- B -->
    <g style="fill: #c9d1e0" transform="translate(117.941523 74.266967) scale(0.11 -0.11)">
     <defs>
      <path id="DejaVuSans-25" d="M 1259 2228 
L 1259 519 
L 2272 519 
Q 2781 519 3026 730 
Q 3272 941 3272 1375 
Q 3272 1813 3026 2020 
Q 2781 2228 2272 2228 
L 1259 2228 
z
M 1259 4147 
L 1259 2741 
L 2194 2741 
Q 2656 2741 2882 2914 
Q 3109 3088 3109 3444 
Q 3109 3797 2882 3972 
Q 2656 4147 2194 4147 
L 1259 4147 
z
M 628 4666 
L 2241 4666 
Q 2963 4666 3353 4366 
Q 3744 4066 3744 3513 
Q 3744 3084 3544 2831 
Q 3344 2578 2956 2516 
Q 3422 2416 3680 2098 
Q 3938 1781 3938 1306 
Q 3938 681 3513 340 
Q 3088 0 2303 0 
L 628 0 
L 628 4666 
z
" transform="scale(0.015625)"/>
     </defs>
     <use xlink:href="#DejaVuSans-25"/>
    </g>
   </g>
   <g id="text_10">
    <!-- A -->
    <g style="fill: #c9d1e0" transform="translate(153.151368 74.266967) scale(0.11 -0.11)">
     <use xlink:href="#DejaVuSans-24"/>
    </g>
   </g>
   <g id="text_11">
    <!-- B -->
    <g style="fill: #c9d1e0" transform="translate(188.338868 74.266967) scale(0.11 -0.11)">
     <use xlink:href="#DejaVuSans-25"/>
    </g>
   </g>
   <g id="text_12">
    <!-- C -->
    <g style="fill: #c9d1e0" transform="translate(223.47051 74.266967) scale(0.11 -0.11)">
     <defs>
      <path id="DejaVuSans-26" d="M 4122 4306 
L 4122 3641 
Q 3803 3938 3442 4084 
Q 3081 4231 2675 4231 
Q 1875 4231 1450 3742 
Q 1025 3253 1025 2328 
Q 1025 1406 1450 917 
Q 1875 428 2675 428 
Q 3081 428 3442 575 
Q 3803 722 4122 1019 
L 4122 359 
Q 3791 134 3420 21 
Q 3050 -91 2638 -91 
Q 1578 -91 968 557 
Q 359 1206 359 2328 
Q 359 3453 968 4101 
Q 1578 4750 2638 4750 
Q 3056 4750 3426 4639 
Q 3797 4528 4122 4306 
z
" transform="scale(0.015625)"/>
     </defs>
     <use xlink:href="#DejaVuSans-26"/>
    </g>
   </g>
   <g id="text_13">
    <!-- π[i] -->
    <g style="fill: #c9d1e0" transform="translate(42.186834 101.644142) scale(0.11 -0.11)">
     <defs>
      <path id="DejaVuSans-354" d="M 231 3500 
L 3584 3500 
L 3584 2925 
L 3144 2925 
L 3144 775 
Q 3144 550 3220 451 
Q 3297 353 3469 353 
Q 3516 353 3584 361 
Q 3653 369 3675 372 
L 3675 -44 
Q 3566 -84 3450 -103 
Q 3334 -122 3219 -122 
Q 2844 -122 2700 83 
Q 2556 288 2556 838 
L 2556 2925 
L 1266 2925 
L 1266 0 
L 678 0 
L 678 2925 
L 231 2925 
L 231 3500 
z
" transform="scale(0.015625)"/>
     </defs>
     <use xlink:href="#DejaVuSans-354"/>
     <use xlink:href="#DejaVuSans-3e" transform="translate(60.203125 0)"/>
     <use xlink:href="#DejaVuSans-4c" transform="translate(99.21875 0)"/>
     <use xlink:href="#DejaVuSans-40" transform="translate(127 0)"/>
    </g>
   </g>
   <g id="text_14">
    <!-- 0 -->
    <g style="fill: #c9d1e0" transform="translate(83.016991 101.643713) scale(0.11 -0.11)">
     <defs>
      <path id="DejaVuSans-13" d="M 2034 4250 
Q 1547 4250 1301 3770 
Q 1056 3291 1056 2328 
Q 1056 1369 1301 889 
Q 1547 409 2034 409 
Q 2525 409 2770 889 
Q 3016 1369 3016 2328 
Q 3016 3291 2770 3770 
Q 2525 4250 2034 4250 
z
M 2034 4750 
Q 2819 4750 3233 4129 
Q 3647 3509 3647 2328 
Q 3647 1150 3233 529 
Q 2819 -91 2034 -91 
Q 1250 -91 836 529 
Q 422 1150 422 2328 
Q 422 3509 836 4129 
Q 1250 4750 2034 4750 
z
" transform="scale(0.015625)"/>
     </defs>
     <use xlink:href="#DejaVuSans-13"/>
    </g>
   </g>
   <g id="text_15">
    <!-- 0 -->
    <g style="fill: #c9d1e0" transform="translate(118.215664 101.643713) scale(0.11 -0.11)">
     <use xlink:href="#DejaVuSans-13"/>
    </g>
   </g>
   <g id="text_16">
    <!-- 1 -->
    <g style="fill: #c9d1e0" transform="translate(153.414336 101.643713) scale(0.11 -0.11)">
     <use xlink:href="#DejaVuSans-14"/>
    </g>
   </g>
   <g id="text_17">
    <!-- 2 -->
    <g style="fill: #0b0d12" transform="translate(188.285587 101.643713) scale(0.11 -0.11)">
     <defs>
      <path id="DejaVuSans-Bold-15" d="M 1844 884 
L 3897 884 
L 3897 0 
L 506 0 
L 506 884 
L 2209 2388 
Q 2438 2594 2547 2791 
Q 2656 2988 2656 3200 
Q 2656 3528 2436 3728 
Q 2216 3928 1850 3928 
Q 1569 3928 1234 3808 
Q 900 3688 519 3450 
L 519 4475 
Q 925 4609 1322 4679 
Q 1719 4750 2100 4750 
Q 2938 4750 3402 4381 
Q 3866 4013 3866 3353 
Q 3866 2972 3669 2642 
Q 3472 2313 2841 1759 
L 1844 884 
z
" transform="scale(0.015625)"/>
     </defs>
     <use xlink:href="#DejaVuSans-Bold-15"/>
    </g>
   </g>
   <g id="text_18">
    <!-- 0 -->
    <g style="fill: #c9d1e0" transform="translate(223.811682 101.643713) scale(0.11 -0.11)">
     <use xlink:href="#DejaVuSans-13"/>
    </g>
   </g>
   <g id="text_19">
    <!-- Префикс-функция KMP: образец «ABABC» -->
    <g style="fill: #c9d1e0" transform="translate(7.2 16.5225) scale(0.12 -0.12)">
     <defs>
      <path id="DejaVuSans-3b3" d="M 4184 4666 
L 4184 0 
L 3553 0 
L 3553 4134 
L 1259 4134 
L 1259 0 
L 628 0 
L 628 4666 
L 4184 4666 
z
" transform="scale(0.015625)"/>
      <path id="DejaVuSans-3d4" d="M 1159 525 
L 1159 -1331 
L 581 -1331 
L 581 3500 
L 1159 3500 
L 1159 2969 
Q 1341 3281 1617 3432 
Q 1894 3584 2278 3584 
Q 2916 3584 3314 3078 
Q 3713 2572 3713 1747 
Q 3713 922 3314 415 
Q 2916 -91 2278 -91 
Q 1894 -91 1617 61 
Q 1341 213 1159 525 
z
M 3116 1747 
Q 3116 2381 2855 2742 
Q 2594 3103 2138 3103 
Q 1681 3103 1420 2742 
Q 1159 2381 1159 1747 
Q 1159 1113 1420 752 
Q 1681 391 2138 391 
Q 2594 391 2855 752 
Q 3116 1113 3116 1747 
z
" transform="scale(0.015625)"/>
      <path id="DejaVuSans-3c9" d="M 3597 1894 
L 3597 1613 
L 953 1613 
Q 991 1019 1311 708 
Q 1631 397 2203 397 
Q 2534 397 2845 478 
Q 3156 559 3463 722 
L 3463 178 
Q 3153 47 2828 -22 
Q 2503 -91 2169 -91 
Q 1331 -91 842 396 
Q 353 884 353 1716 
Q 353 2575 817 3079 
Q 1281 3584 2069 3584 
Q 2775 3584 3186 3129 
Q 3597 2675 3597 1894 
z
M 3022 2063 
Q 3016 2534 2758 2815 
Q 2500 3097 2075 3097 
Q 1594 3097 1305 2825 
Q 1016 2553 972 2059 
L 3022 2063 
z
" transform="scale(0.015625)"/>
      <path id="DejaVuSans-3d8" d="M 947 1747 
Q 947 1013 1173 702 
Q 1400 391 1784 391 
Q 2091 391 2447 916 
L 2447 2578 
Q 2091 3103 1784 3103 
Q 1400 3103 1173 2792 
Q 947 2481 947 1747 
z
M 2447 -1331 
L 2447 447 
Q 2269 153 2064 31 
Q 1859 -91 1600 -91 
Q 1078 -91 714 392 
Q 350 875 350 1734 
Q 350 2594 714 3089 
Q 1078 3584 1600 3584 
Q 1859 3584 2064 3465 
Q 2269 3347 2447 3053 
L 2447 4666 
L 3025 4666 
L 3025 3053 
Q 3203 3347 3408 3465 
Q 3613 3584 3872 3584 
Q 4394 3584 4758 3089 
Q 5122 2594 5122 1734 
Q 5122 875 4758 392 
Q 4394 -91 3872 -91 
Q 3613 -91 3408 31 
Q 3203 153 3025 447 
L 3025 -1331 
L 2447 -1331 
z
M 4525 1747 
Q 4525 2481 4298 2792 
Q 4072 3103 3688 3103 
Q 3381 3103 3025 2578 
L 3025 916 
Q 3381 391 3688 391 
Q 4072 391 4298 702 
Q 4525 1013 4525 1747 
z
" transform="scale(0.015625)"/>
      <path id="DejaVuSans-3cc" d="M 3578 3500 
L 3578 0 
L 3006 0 
L 3006 2809 
L 1319 0 
L 581 0 
L 581 3500 
L 1153 3500 
L 1153 697 
L 2838 3500 
L 3578 3500 
z
" transform="scale(0.015625)"/>
      <path id="DejaVuSans-3ce" d="M 581 3500 
L 1153 3500 
L 1153 1856 
L 2775 3500 
L 3481 3500 
L 2144 2147 
L 3653 0 
L 3009 0 
L 1769 1766 
L 1153 1141 
L 1153 0 
L 581 0 
L 581 3500 
z
" transform="scale(0.015625)"/>
      <path id="DejaVuSans-3d5" d="M 3122 3366 
L 3122 2828 
Q 2878 2963 2633 3030 
Q 2388 3097 2138 3097 
Q 1578 3097 1268 2742 
Q 959 2388 959 1747 
Q 959 1106 1268 751 
Q 1578 397 2138 397 
Q 2388 397 2633 464 
Q 2878 531 3122 666 
L 3122 134 
Q 2881 22 2623 -34 
Q 2366 -91 2075 -91 
Q 1284 -91 818 406 
Q 353 903 353 1747 
Q 353 2603 823 3093 
Q 1294 3584 2113 3584 
Q 2378 3584 2631 3529 
Q 2884 3475 3122 3366 
z
" transform="scale(0.015625)"/>
      <path id="DejaVuSans-10" d="M 313 2009 
L 1997 2009 
L 1997 1497 
L 313 1497 
L 313 2009 
z
" transform="scale(0.015625)"/>
      <path id="DejaVuSans-3d7" d="M 2059 -325 
Q 1816 -950 1584 -1140 
Q 1353 -1331 966 -1331 
L 506 -1331 
L 506 -850 
L 844 -850 
Q 1081 -850 1212 -737 
Q 1344 -625 1503 -206 
L 1606 56 
L 191 3500 
L 800 3500 
L 1894 763 
L 2988 3500 
L 3597 3500 
L 2059 -325 
z
" transform="scale(0.015625)"/>
      <path id="DejaVuSans-3d1" d="M 581 3500 
L 1159 3500 
L 1159 2072 
L 3025 2072 
L 3025 3500 
L 3603 3500 
L 3603 0 
L 3025 0 
L 3025 1613 
L 1159 1613 
L 1159 0 
L 581 0 
L 581 3500 
z
" transform="scale(0.015625)"/>
      <path id="DejaVuSans-3da" d="M 3603 0 
L 581 0 
L 581 3500 
L 1159 3500 
L 1159 459 
L 3025 459 
L 3025 3500 
L 3603 3500 
L 3603 459 
L 4063 459 
L 4063 -884 
L 3603 -884 
L 3603 0 
z
" transform="scale(0.015625)"/>
      <path id="DejaVuSans-3e3" d="M 1181 2491 
Q 1181 2231 1381 2084 
Q 1581 1938 1953 1938 
L 2728 1938 
L 2728 3041 
L 1953 3041 
Q 1581 3041 1381 2897 
Q 1181 2753 1181 2491 
z
M 363 0 
L 1431 1534 
Q 1069 1616 828 1830 
Q 588 2044 588 2491 
Q 588 2997 923 3248 
Q 1259 3500 1938 3500 
L 3306 3500 
L 3306 0 
L 2728 0 
L 2728 1478 
L 2013 1478 
L 981 0 
L 363 0 
z
" transform="scale(0.015625)"/>
      <path id="DejaVuSans-3" transform="scale(0.015625)"/>
      <path id="DejaVuSans-2e" d="M 628 4666 
L 1259 4666 
L 1259 2694 
L 3353 4666 
L 4166 4666 
L 1850 2491 
L 4331 0 
L 3500 0 
L 1259 2247 
L 1259 0 
L 628 0 
L 628 4666 
z
" transform="scale(0.015625)"/>
      <path id="DejaVuSans-30" d="M 628 4666 
L 1569 4666 
L 2759 1491 
L 3956 4666 
L 4897 4666 
L 4897 0 
L 4281 0 
L 4281 4097 
L 3078 897 
L 2444 897 
L 1241 4097 
L 1241 0 
L 628 0 
L 628 4666 
z
" transform="scale(0.015625)"/>
      <path id="DejaVuSans-1d" d="M 750 794 
L 1409 794 
L 1409 0 
L 750 0 
L 750 794 
z
M 750 3309 
L 1409 3309 
L 1409 2516 
L 750 2516 
L 750 3309 
z
" transform="scale(0.015625)"/>
      <path id="DejaVuSans-3d2" d="M 1959 3097 
Q 1497 3097 1228 2736 
Q 959 2375 959 1747 
Q 959 1119 1226 758 
Q 1494 397 1959 397 
Q 2419 397 2687 759 
Q 2956 1122 2956 1747 
Q 2956 2369 2687 2733 
Q 2419 3097 1959 3097 
z
M 1959 3584 
Q 2709 3584 3137 3096 
Q 3566 2609 3566 1747 
Q 3566 888 3137 398 
Q 2709 -91 1959 -91 
Q 1206 -91 779 398 
Q 353 888 353 1747 
Q 353 2609 779 3096 
Q 1206 3584 1959 3584 
z
" transform="scale(0.015625)"/>
      <path id="DejaVuSans-3c5" d="M 1991 3584 
Q 2741 3584 3169 3096 
Q 3597 2609 3597 1747 
Q 3597 888 3169 398 
Q 2741 -91 1991 -91 
Q 1238 -91 822 384 
Q 406 859 384 1747 
L 366 2463 
Q 350 2834 350 2963 
Q 350 3463 531 3831 
Q 816 4409 1308 4659 
Q 1800 4909 2625 4916 
Q 3006 4919 3175 4972 
L 3334 4516 
Q 3181 4453 3041 4450 
L 2259 4397 
Q 1866 4369 1628 4231 
Q 1006 3866 947 3388 
L 925 3213 
Q 1331 3584 1991 3584 
z
M 1991 3097 
Q 1528 3097 1259 2736 
Q 991 2375 991 1747 
Q 991 1119 1258 758 
Q 1525 397 1991 397 
Q 2450 397 2719 759 
Q 2988 1122 2988 1747 
Q 2988 2369 2719 2733 
Q 2450 3097 1991 3097 
z
" transform="scale(0.015625)"/>
      <path id="DejaVuSans-3c4" d="M 2194 1759 
Q 1497 1759 1228 1600 
Q 959 1441 959 1056 
Q 959 750 1161 570 
Q 1363 391 1709 391 
Q 2188 391 2477 730 
Q 2766 1069 2766 1631 
L 2766 1759 
L 2194 1759 
z
M 3341 1997 
L 3341 0 
L 2766 0 
L 2766 531 
Q 2569 213 2275 61 
Q 1981 -91 1556 -91 
Q 1019 -91 701 211 
Q 384 513 384 1019 
Q 384 1609 779 1909 
Q 1175 2209 1959 2209 
L 2766 2209 
L 2766 2266 
Q 2766 2663 2505 2880 
Q 2244 3097 1772 3097 
Q 1472 3097 1187 3025 
Q 903 2953 641 2809 
L 641 3341 
Q 956 3463 1253 3523 
Q 1550 3584 1831 3584 
Q 2591 3584 2966 3190 
Q 3341 2797 3341 1997 
z
" transform="scale(0.015625)"/>
      <path id="DejaVuSans-3cb" d="M 2206 1888 
Q 2594 1813 2809 1584 
Q 3025 1356 3025 1019 
Q 3025 478 2622 193 
Q 2219 -91 1475 -91 
Q 1225 -91 961 -47 
Q 697 -3 416 84 
L 416 619 
Q 638 503 903 445 
Q 1169 388 1459 388 
Q 1931 388 2195 563 
Q 2459 738 2459 1019 
Q 2459 1294 2225 1461 
Q 1991 1628 1563 1628 
L 1100 1628 
L 1100 2103 
L 1584 2103 
Q 1947 2103 2158 2242 
Q 2369 2381 2369 2600 
Q 2369 2800 2151 2944 
Q 1934 3088 1563 3088 
Q 1341 3088 1089 3047 
Q 838 3006 534 2916 
L 534 3438 
Q 841 3513 1106 3550 
Q 1372 3588 1609 3588 
Q 2222 3588 2576 3342 
Q 2931 3097 2931 2656 
Q 2931 2366 2743 2164 
Q 2556 1963 2206 1888 
z
" transform="scale(0.015625)"/>
      <path id="DejaVuSans-6d" d="M 3316 3309 
L 3316 2713 
L 2375 1875 
L 3316 1038 
L 3316 441 
L 1850 1747 
L 1850 2003 
L 3316 3309 
z
M 1959 3309 
L 1959 2713 
L 1019 1875 
L 1959 1038 
L 1959 441 
L 494 1747 
L 494 2003 
L 1959 3309 
z
" transform="scale(0.015625)"/>
      <path id="DejaVuSans-7d" d="M 603 3309 
L 2069 2003 
L 2069 1747 
L 603 441 
L 603 1038 
L 1544 1875 
L 603 2713 
L 603 3309 
z
M 1959 3309 
L 3425 2003 
L 3425 1747 
L 1959 441 
L 1959 1038 
L 2900 1875 
L 1959 2713 
L 1959 3309 
z
" transform="scale(0.015625)"/>
     </defs>
     <use xlink:href="#DejaVuSans-3b3"/>
     <use xlink:href="#DejaVuSans-3d4" transform="translate(75.203125 0)"/>
     <use xlink:href="#DejaVuSans-3c9" transform="translate(138.6875 0)"/>
     <use xlink:href="#DejaVuSans-3d8" transform="translate(200.21875 0)"/>
     <use xlink:href="#DejaVuSans-3cc" transform="translate(285.71875 0)"/>
     <use xlink:href="#DejaVuSans-3ce" transform="translate(350.703125 0)"/>
     <use xlink:href="#DejaVuSans-3d5" transform="translate(411.109375 0)"/>
     <use xlink:href="#DejaVuSans-10" transform="translate(466.09375 0)"/>
     <use xlink:href="#DejaVuSans-3d8" transform="translate(502.171875 0)"/>
     <use xlink:href="#DejaVuSans-3d7" transform="translate(587.671875 0)"/>
     <use xlink:href="#DejaVuSans-3d1" transform="translate(646.859375 0)"/>
     <use xlink:href="#DejaVuSans-3ce" transform="translate(712.234375 0)"/>
     <use xlink:href="#DejaVuSans-3da" transform="translate(772.640625 0)"/>
     <use xlink:href="#DejaVuSans-3cc" transform="translate(840.703125 0)"/>
     <use xlink:href="#DejaVuSans-3e3" transform="translate(905.6875 0)"/>
     <use xlink:href="#DejaVuSans-3" transform="translate(965.84375 0)"/>
     <use xlink:href="#DejaVuSans-2e" transform="translate(997.625 0)"/>
     <use xlink:href="#DejaVuSans-30" transform="translate(1063.203125 0)"/>
     <use xlink:href="#DejaVuSans-33" transform="translate(1149.484375 0)"/>
     <use xlink:href="#DejaVuSans-1d" transform="translate(1209.78125 0)"/>
     <use xlink:href="#DejaVuSans-3" transform="translate(1243.46875 0)"/>
     <use xlink:href="#DejaVuSans-3d2" transform="translate(1275.25 0)"/>
     <use xlink:href="#DejaVuSans-3c5" transform="translate(1336.4375 0)"/>
     <use xlink:href="#DejaVuSans-3d4" transform="translate(1398.109375 0)"/>
     <use xlink:href="#DejaVuSans-3c4" transform="translate(1461.59375 0)"/>
     <use xlink:href="#DejaVuSans-3cb" transform="translate(1522.875 0)"/>
     <use xlink:href="#DejaVuSans-3c9" transform="translate(1576.046875 0)"/>
     <use xlink:href="#DejaVuSans-3da" transform="translate(1637.578125 0)"/>
     <use xlink:href="#DejaVuSans-3" transform="translate(1705.640625 0)"/>
     <use xlink:href="#DejaVuSans-6d" transform="translate(1737.421875 0)"/>
     <use xlink:href="#DejaVuSans-24" transform="translate(1798.609375 0)"/>
     <use xlink:href="#DejaVuSans-25" transform="translate(1867.015625 0)"/>
     <use xlink:href="#DejaVuSans-24" transform="translate(1935.625 0)"/>
     <use xlink:href="#DejaVuSans-25" transform="translate(2004.03125 0)"/>
     <use xlink:href="#DejaVuSans-26" transform="translate(2070.890625 0)"/>
     <use xlink:href="#DejaVuSans-7d" transform="translate(2140.71875 0)"/>
    </g>
   </g>
  </g>
 </g>
 <defs>
  <clipPath id="p7031d9fcf0">
   <rect x="25.89643" y="22.5225" width="226.835891" height="97.774091"/>
  </clipPath>
 </defs>
</svg>
