<?xml version="1.0" encoding="utf-8" standalone="no"?>
<!DOCTYPE svg PUBLIC "-//W3C//DTD SVG 1.1//EN"
  "http://www.w3.org/Graphics/SVG/1.1/DTD/svg11.dtd">
<svg xmlns:xlink="http://www.w3.org/1999/xlink" width="422.25946pt" height="220.405455pt" viewBox="0 0 422.25946 220.405455" xmlns="http://www.w3.org/2000/svg" version="1.1">
 <metadata>
  <rdf:RDF xmlns:dc="http://purl.org/dc/elements/1.1/" xmlns:cc="http://creativecommons.org/ns#" xmlns:rdf="http://www.w3.org/1999/02/22-rdf-syntax-ns#">
   <cc:Work>
    <dc:type rdf:resource="http://purl.org/dc/dcmitype/StillImage"/>
    <dc:date>2026-06-19T18:10:02.421023</dc:date>
    <dc:format>image/svg+xml</dc:format>
    <dc:creator>
     <cc:Agent>
      <dc:title>Matplotlib v3.11.0, https://matplotlib.org/</dc:title>
     </cc:Agent>
    </dc:creator>
   </cc:Work>
  </rdf:RDF>
 </metadata>
 <defs>
  <style type="text/css">*{stroke-linejoin: round; stroke-linecap: butt}</style>
 </defs>
 <g id="figure_1">
  <g id="patch_1">
   <path d="M 0 220.405455 
L 422.25946 220.405455 
L 422.25946 0 
L 0 0 
z
" style="fill: #0b0d12"/>
  </g>
  <g id="axes_1">
   <g id="patch_2">
    <path d="M 53.692188 178.222876 
L 415.05946 178.222876 
L 415.05946 24.48 
L 53.692188 24.48 
z
" style="fill: #13151b"/>
   </g>
   <g id="FillBetweenPolyCollection_1">
    <defs>
     <path id="m0df55647a5" d="M 70.117973 -49.170891 
L 70.117973 -49.170891 
L 70.776321 -49.170891 
L 71.434669 -49.170891 
L 72.093017 -49.170894 
L 72.751365 -49.170908 
L 73.409713 -49.170955 
L 74.068061 -49.171074 
L 74.726409 -49.171336 
L 75.384757 -49.171844 
L 76.043106 -49.172747 
L 76.701454 -49.174246 
L 77.359802 -49.176602 
L 78.01815 -49.180139 
L 78.676498 -49.185253 
L 79.334846 -49.192415 
L 79.993194 -49.202173 
L 80.651542 -49.215155 
L 81.30989 -49.232073 
L 81.968238 -49.253715 
L 82.626587 -49.280953 
L 83.284935 -49.314735 
L 83.943283 -49.356082 
L 84.601631 -49.406089 
L 85.259979 -49.465916 
L 85.918327 -49.536783 
L 86.576675 -49.619966 
L 87.235023 -49.71679 
L 87.893371 -49.828622 
L 88.551719 -49.956863 
L 89.210068 -50.102943 
L 89.868416 -50.268312 
L 90.526764 -50.454431 
L 91.185112 -50.662766 
L 91.84346 -50.894781 
L 92.501808 -51.15193 
L 93.160156 -51.435645 
L 93.818504 -51.747338 
L 94.476852 -52.088385 
L 95.1352 -52.460124 
L 95.793549 -52.863847 
L 96.451897 -53.300794 
L 97.110245 -53.772148 
L 97.768593 -54.279027 
L 98.426941 -54.822484 
L 99.085289 -55.403496 
L 99.743637 -56.022965 
L 100.401985 -56.681711 
L 101.060333 -57.380471 
L 101.718681 -58.119893 
L 102.37703 -58.900538 
L 103.035378 -59.722873 
L 103.693726 -60.587272 
L 104.352074 -61.494017 
L 105.010422 -62.44329 
L 105.66877 -63.435182 
L 106.327118 -64.469684 
L 106.985466 -65.546694 
L 107.643814 -66.666014 
L 108.302162 -67.82735 
L 108.960511 -69.030319 
L 109.618859 -70.274444 
L 110.277207 -71.559159 
L 110.935555 -72.883811 
L 111.593903 -74.247661 
L 112.252251 -75.649889 
L 112.910599 -77.089595 
L 113.568947 -78.565801 
L 114.227295 -80.077457 
L 114.885644 -81.62344 
L 115.543992 -83.202563 
L 116.20234 -84.813575 
L 116.20234 -49.170891 
L 116.20234 -49.170891 
L 115.543992 -49.170891 
L 114.885644 -49.170891 
L 114.227295 -49.170891 
L 113.568947 -49.170891 
L 112.910599 -49.170891 
L 112.252251 -49.170891 
L 111.593903 -49.170891 
L 110.935555 -49.170891 
L 110.277207 -49.170891 
L 109.618859 -49.170891 
L 108.960511 -49.170891 
L 108.302162 -49.170891 
L 107.643814 -49.170891 
L 106.985466 -49.170891 
L 106.327118 -49.170891 
L 105.66877 -49.170891 
L 105.010422 -49.170891 
L 104.352074 -49.170891 
L 103.693726 -49.170891 
L 103.035378 -49.170891 
L 102.37703 -49.170891 
L 101.718681 -49.170891 
L 101.060333 -49.170891 
L 100.401985 -49.170891 
L 99.743637 -49.170891 
L 99.085289 -49.170891 
L 98.426941 -49.170891 
L 97.768593 -49.170891 
L 97.110245 -49.170891 
L 96.451897 -49.170891 
L 95.793549 -49.170891 
L 95.1352 -49.170891 
L 94.476852 -49.170891 
L 93.818504 -49.170891 
L 93.160156 -49.170891 
L 92.501808 -49.170891 
L 91.84346 -49.170891 
L 91.185112 -49.170891 
L 90.526764 -49.170891 
L 89.868416 -49.170891 
L 89.210068 -49.170891 
L 88.551719 -49.170891 
L 87.893371 -49.170891 
L 87.235023 -49.170891 
L 86.576675 -49.170891 
L 85.918327 -49.170891 
L 85.259979 -49.170891 
L 84.601631 -49.170891 
L 83.943283 -49.170891 
L 83.284935 -49.170891 
L 82.626587 -49.170891 
L 81.968238 -49.170891 
L 81.30989 -49.170891 
L 80.651542 -49.170891 
L 79.993194 -49.170891 
L 79.334846 -49.170891 
L 78.676498 -49.170891 
L 78.01815 -49.170891 
L 77.359802 -49.170891 
L 76.701454 -49.170891 
L 76.043106 -49.170891 
L 75.384757 -49.170891 
L 74.726409 -49.170891 
L 74.068061 -49.170891 
L 73.409713 -49.170891 
L 72.751365 -49.170891 
L 72.093017 -49.170891 
L 71.434669 -49.170891 
L 70.776321 -49.170891 
L 70.117973 -49.170891 
z
" style="stroke: #ef4444; stroke-opacity: 0.45"/>
    </defs>
    <g clip-path="url(#p42663eeba4)">
     <use xlink:href="#m0df55647a5" x="0" y="220.405455" style="fill: #ef4444; fill-opacity: 0.45; stroke: #ef4444; stroke-opacity: 0.45"/>
    </g>
   </g>
   <g id="FillBetweenPolyCollection_2">
    <defs>
     <path id="m6f1a8f551f" d="M 284.739454 -49.170891 
L 284.739454 -61.8942 
L 285.397802 -61.621036 
L 286.05615 -61.353053 
L 286.714498 -61.090173 
L 287.372846 -60.832319 
L 288.031194 -60.579415 
L 288.689542 -60.331385 
L 289.34789 -60.088153 
L 290.006238 -59.849644 
L 290.664587 -59.615784 
L 291.322935 -59.386499 
L 291.981283 -59.161716 
L 292.639631 -58.941364 
L 293.297979 -58.725369 
L 293.956327 -58.513662 
L 294.614675 -58.306171 
L 295.273023 -58.102828 
L 295.931371 -57.903562 
L 296.589719 -57.708307 
L 297.248068 -57.516995 
L 297.906416 -57.329558 
L 298.564764 -57.145931 
L 299.223112 -56.966049 
L 299.88146 -56.789846 
L 300.539808 -56.617259 
L 301.198156 -56.448226 
L 301.856504 -56.282683 
L 302.514852 -56.120569 
L 303.1732 -55.961824 
L 303.831549 -55.806387 
L 304.489897 -55.654199 
L 305.148245 -55.505202 
L 305.806593 -55.359338 
L 306.464941 -55.216549 
L 307.123289 -55.076781 
L 307.781637 -54.939976 
L 308.439985 -54.806081 
L 309.098333 -54.675041 
L 309.756681 -54.546804 
L 310.41503 -54.421317 
L 311.073378 -54.298528 
L 311.731726 -54.178386 
L 312.390074 -54.060842 
L 313.048422 -53.945845 
L 313.70677 -53.833347 
L 314.365118 -53.7233 
L 315.023466 -53.615656 
L 315.681814 -53.51037 
L 316.340162 -53.407395 
L 316.998511 -53.306686 
L 317.656859 -53.208199 
L 318.315207 -53.11189 
L 318.973555 -53.017716 
L 319.631903 -52.925635 
L 320.290251 -52.835605 
L 320.948599 -52.747584 
L 321.606947 -52.661534 
L 322.265295 -52.577414 
L 322.923643 -52.495185 
L 323.581992 -52.414809 
L 324.24034 -52.336248 
L 324.898688 -52.259466 
L 325.557036 -52.184425 
L 326.215384 -52.11109 
L 326.873732 -52.039426 
L 327.53208 -51.969399 
L 328.190428 -51.900973 
L 328.848776 -51.834117 
L 329.507124 -51.768797 
L 330.165473 -51.704982 
L 330.823821 -51.642638 
L 331.482169 -51.581737 
L 332.140517 -51.522246 
L 332.798865 -51.464137 
L 333.457213 -51.407379 
L 334.115561 -51.351944 
L 334.773909 -51.297804 
L 335.432257 -51.244931 
L 336.090605 -51.193297 
L 336.748954 -51.142877 
L 337.407302 -51.093643 
L 338.06565 -51.04557 
L 338.723998 -50.998633 
L 339.382346 -50.952806 
L 340.040694 -50.908067 
L 340.699042 -50.86439 
L 341.35739 -50.821753 
L 342.015738 -50.780132 
L 342.674087 -50.739506 
L 343.332435 -50.699851 
L 343.990783 -50.661148 
L 344.649131 -50.623373 
L 345.307479 -50.586507 
L 345.965827 -50.55053 
L 346.624175 -50.515421 
L 347.282523 -50.481161 
L 347.940871 -50.44773 
L 348.599219 -50.415111 
L 349.257568 -50.383284 
L 349.915916 -50.352232 
L 350.574264 -50.321937 
L 351.232612 -50.292382 
L 351.89096 -50.26355 
L 352.549308 -50.235424 
L 353.207656 -50.207988 
L 353.866004 -50.181227 
L 354.524352 -50.155124 
L 355.1827 -50.129665 
L 355.841049 -50.104835 
L 356.499397 -50.080618 
L 357.157745 -50.057002 
L 357.816093 -50.033971 
L 358.474441 -50.011513 
L 359.132789 -49.989613 
L 359.791137 -49.968259 
L 360.449485 -49.947438 
L 361.107833 -49.927137 
L 361.766181 -49.907345 
L 362.42453 -49.888048 
L 363.082878 -49.869236 
L 363.741226 -49.850896 
L 364.399574 -49.833019 
L 365.057922 -49.815592 
L 365.71627 -49.798604 
L 366.374618 -49.782047 
L 367.032966 -49.765908 
L 367.691314 -49.750179 
L 368.349662 -49.734848 
L 369.008011 -49.719908 
L 369.666359 -49.705347 
L 370.324707 -49.691158 
L 370.983055 -49.677331 
L 371.641403 -49.663857 
L 372.299751 -49.650728 
L 372.958099 -49.637935 
L 373.616447 -49.62547 
L 374.274795 -49.613326 
L 374.933143 -49.601494 
L 375.591492 -49.589967 
L 376.24984 -49.578736 
L 376.908188 -49.567796 
L 377.566536 -49.557139 
L 378.224884 -49.546757 
L 378.883232 -49.536644 
L 379.54158 -49.526794 
L 380.199928 -49.5172 
L 380.858276 -49.507855 
L 381.516624 -49.498754 
L 382.174973 -49.489889 
L 382.833321 -49.481256 
L 383.491669 -49.472849 
L 384.150017 -49.464662 
L 384.808365 -49.456689 
L 385.466713 -49.448925 
L 386.125061 -49.441365 
L 386.783409 -49.434004 
L 387.441757 -49.426837 
L 388.100105 -49.419858 
L 388.758454 -49.413063 
L 389.416802 -49.406448 
L 390.07515 -49.400008 
L 390.733498 -49.393738 
L 391.391846 -49.387634 
L 392.050194 -49.381692 
L 392.708542 -49.375908 
L 393.36689 -49.370277 
L 394.025238 -49.364796 
L 394.683586 -49.359462 
L 395.341935 -49.354269 
L 396.000283 -49.349215 
L 396.658631 -49.344297 
L 397.316979 -49.339509 
L 397.975327 -49.33485 
L 398.633675 -49.330316 
L 398.633675 -49.170891 
L 398.633675 -49.170891 
L 397.975327 -49.170891 
L 397.316979 -49.170891 
L 396.658631 -49.170891 
L 396.000283 -49.170891 
L 395.341935 -49.170891 
L 394.683586 -49.170891 
L 394.025238 -49.170891 
L 393.36689 -49.170891 
L 392.708542 -49.170891 
L 392.050194 -49.170891 
L 391.391846 -49.170891 
L 390.733498 -49.170891 
L 390.07515 -49.170891 
L 389.416802 -49.170891 
L 388.758454 -49.170891 
L 388.100105 -49.170891 
L 387.441757 -49.170891 
L 386.783409 -49.170891 
L 386.125061 -49.170891 
L 385.466713 -49.170891 
L 384.808365 -49.170891 
L 384.150017 -49.170891 
L 383.491669 -49.170891 
L 382.833321 -49.170891 
L 382.174973 -49.170891 
L 381.516624 -49.170891 
L 380.858276 -49.170891 
L 380.199928 -49.170891 
L 379.54158 -49.170891 
L 378.883232 -49.170891 
L 378.224884 -49.170891 
L 377.566536 -49.170891 
L 376.908188 -49.170891 
L 376.24984 -49.170891 
L 375.591492 -49.170891 
L 374.933143 -49.170891 
L 374.274795 -49.170891 
L 373.616447 -49.170891 
L 372.958099 -49.170891 
L 372.299751 -49.170891 
L 371.641403 -49.170891 
L 370.983055 -49.170891 
L 370.324707 -49.170891 
L 369.666359 -49.170891 
L 369.008011 -49.170891 
L 368.349662 -49.170891 
L 367.691314 -49.170891 
L 367.032966 -49.170891 
L 366.374618 -49.170891 
L 365.71627 -49.170891 
L 365.057922 -49.170891 
L 364.399574 -49.170891 
L 363.741226 -49.170891 
L 363.082878 -49.170891 
L 362.42453 -49.170891 
L 361.766181 -49.170891 
L 361.107833 -49.170891 
L 360.449485 -49.170891 
L 359.791137 -49.170891 
L 359.132789 -49.170891 
L 358.474441 -49.170891 
L 357.816093 -49.170891 
L 357.157745 -49.170891 
L 356.499397 -49.170891 
L 355.841049 -49.170891 
L 355.1827 -49.170891 
L 354.524352 -49.170891 
L 353.866004 -49.170891 
L 353.207656 -49.170891 
L 352.549308 -49.170891 
L 351.89096 -49.170891 
L 351.232612 -49.170891 
L 350.574264 -49.170891 
L 349.915916 -49.170891 
L 349.257568 -49.170891 
L 348.599219 -49.170891 
L 347.940871 -49.170891 
L 347.282523 -49.170891 
L 346.624175 -49.170891 
L 345.965827 -49.170891 
L 345.307479 -49.170891 
L 344.649131 -49.170891 
L 343.990783 -49.170891 
L 343.332435 -49.170891 
L 342.674087 -49.170891 
L 342.015738 -49.170891 
L 341.35739 -49.170891 
L 340.699042 -49.170891 
L 340.040694 -49.170891 
L 339.382346 -49.170891 
L 338.723998 -49.170891 
L 338.06565 -49.170891 
L 337.407302 -49.170891 
L 336.748954 -49.170891 
L 336.090605 -49.170891 
L 335.432257 -49.170891 
L 334.773909 -49.170891 
L 334.115561 -49.170891 
L 333.457213 -49.170891 
L 332.798865 -49.170891 
L 332.140517 -49.170891 
L 331.482169 -49.170891 
L 330.823821 -49.170891 
L 330.165473 -49.170891 
L 329.507124 -49.170891 
L 328.848776 -49.170891 
L 328.190428 -49.170891 
L 327.53208 -49.170891 
L 326.873732 -49.170891 
L 326.215384 -49.170891 
L 325.557036 -49.170891 
L 324.898688 -49.170891 
L 324.24034 -49.170891 
L 323.581992 -49.170891 
L 322.923643 -49.170891 
L 322.265295 -49.170891 
L 321.606947 -49.170891 
L 320.948599 -49.170891 
L 320.290251 -49.170891 
L 319.631903 -49.170891 
L 318.973555 -49.170891 
L 318.315207 -49.170891 
L 317.656859 -49.170891 
L 316.998511 -49.170891 
L 316.340162 -49.170891 
L 315.681814 -49.170891 
L 315.023466 -49.170891 
L 314.365118 -49.170891 
L 313.70677 -49.170891 
L 313.048422 -49.170891 
L 312.390074 -49.170891 
L 311.731726 -49.170891 
L 311.073378 -49.170891 
L 310.41503 -49.170891 
L 309.756681 -49.170891 
L 309.098333 -49.170891 
L 308.439985 -49.170891 
L 307.781637 -49.170891 
L 307.123289 -49.170891 
L 306.464941 -49.170891 
L 305.806593 -49.170891 
L 305.148245 -49.170891 
L 304.489897 -49.170891 
L 303.831549 -49.170891 
L 303.1732 -49.170891 
L 302.514852 -49.170891 
L 301.856504 -49.170891 
L 301.198156 -49.170891 
L 300.539808 -49.170891 
L 299.88146 -49.170891 
L 299.223112 -49.170891 
L 298.564764 -49.170891 
L 297.906416 -49.170891 
L 297.248068 -49.170891 
L 296.589719 -49.170891 
L 295.931371 -49.170891 
L 295.273023 -49.170891 
L 294.614675 -49.170891 
L 293.956327 -49.170891 
L 293.297979 -49.170891 
L 292.639631 -49.170891 
L 291.981283 -49.170891 
L 291.322935 -49.170891 
L 290.664587 -49.170891 
L 290.006238 -49.170891 
L 289.34789 -49.170891 
L 288.689542 -49.170891 
L 288.031194 -49.170891 
L 287.372846 -49.170891 
L 286.714498 -49.170891 
L 286.05615 -49.170891 
L 285.397802 -49.170891 
L 284.739454 -49.170891 
z
" style="stroke: #ef4444; stroke-opacity: 0.45"/>
    </defs>
    <g clip-path="url(#p42663eeba4)">
     <use xlink:href="#m6f1a8f551f" x="0" y="220.405455" style="fill: #ef4444; fill-opacity: 0.45; stroke: #ef4444; stroke-opacity: 0.45"/>
    </g>
   </g>
   <g id="matplotlib.axis_1">
    <g id="xtick_1">
     <g id="line2d_1">
      <path d="M 70.117973 178.222876 
L 70.117973 24.48 
" clip-path="url(#p42663eeba4)" style="fill: none; stroke: #262a33; stroke-opacity: 0.5; stroke-width: 0.8; stroke-linecap: square"/>
     </g>
     <g id="line2d_2">
      <defs>
       <path id="m8476e8c350" d="M 0 0 
L 0 3.5 
" style="stroke: #7a8499; stroke-width: 0.8"/>
      </defs>
      <g>
       <use xlink:href="#m8476e8c350" x="70.117973" y="178.222876" style="fill: #7a8499; stroke: #7a8499; stroke-width: 0.8"/>
      </g>
     </g>
     <g id="text_1">
      <!-- 0 -->
      <g style="fill: #7a8499" transform="translate(66.618598 193.580298) scale(0.11 -0.11)">
       <defs>
        <path id="DejaVuSans-13" d="M 2034 4250 
Q 1547 4250 1301 3770 
Q 1056 3291 1056 2328 
Q 1056 1369 1301 889 
Q 1547 409 2034 409 
Q 2525 409 2770 889 
Q 3016 1369 3016 2328 
Q 3016 3291 2770 3770 
Q 2525 4250 2034 4250 
z
M 2034 4750 
Q 2819 4750 3233 4129 
Q 3647 3509 3647 2328 
Q 3647 1150 3233 529 
Q 2819 -91 2034 -91 
Q 1250 -91 836 529 
Q 422 1150 422 2328 
Q 422 3509 836 4129 
Q 1250 4750 2034 4750 
z
" transform="scale(0.015625)"/>
       </defs>
       <use xlink:href="#DejaVuSans-13"/>
      </g>
     </g>
    </g>
    <g id="xtick_2">
     <g id="line2d_3">
      <path d="M 111.182435 178.222876 
L 111.182435 24.48 
" clip-path="url(#p42663eeba4)" style="fill: none; stroke: #262a33; stroke-opacity: 0.5; stroke-width: 0.8; stroke-linecap: square"/>
     </g>
     <g id="line2d_4">
      <g>
       <use xlink:href="#m8476e8c350" x="111.182435" y="178.222876" style="fill: #7a8499; stroke: #7a8499; stroke-width: 0.8"/>
      </g>
     </g>
     <g id="text_2">
      <!-- 5 -->
      <g style="fill: #7a8499" transform="translate(107.68306 193.580298) scale(0.11 -0.11)">
       <defs>
        <path id="DejaVuSans-18" d="M 691 4666 
L 3169 4666 
L 3169 4134 
L 1269 4134 
L 1269 2991 
Q 1406 3038 1543 3061 
Q 1681 3084 1819 3084 
Q 2600 3084 3056 2656 
Q 3513 2228 3513 1497 
Q 3513 744 3044 326 
Q 2575 -91 1722 -91 
Q 1428 -91 1123 -41 
Q 819 9 494 109 
L 494 744 
Q 775 591 1075 516 
Q 1375 441 1709 441 
Q 2250 441 2565 725 
Q 2881 1009 2881 1497 
Q 2881 1984 2565 2268 
Q 2250 2553 1709 2553 
Q 1456 2553 1204 2497 
Q 953 2441 691 2322 
L 691 4666 
z
" transform="scale(0.015625)"/>
       </defs>
       <use xlink:href="#DejaVuSans-18"/>
      </g>
     </g>
    </g>
    <g id="xtick_3">
     <g id="line2d_5">
      <path d="M 152.246898 178.222876 
L 152.246898 24.48 
" clip-path="url(#p42663eeba4)" style="fill: none; stroke: #262a33; stroke-opacity: 0.5; stroke-width: 0.8; stroke-linecap: square"/>
     </g>
     <g id="line2d_6">
      <g>
       <use xlink:href="#m8476e8c350" x="152.246898" y="178.222876" style="fill: #7a8499; stroke: #7a8499; stroke-width: 0.8"/>
      </g>
     </g>
     <g id="text_3">
      <!-- 10 -->
      <g style="fill: #7a8499" transform="translate(145.248148 193.580298) scale(0.11 -0.11)">
       <defs>
        <path id="DejaVuSans-14" d="M 794 531 
L 1825 531 
L 1825 4091 
L 703 3866 
L 703 4441 
L 1819 4666 
L 2450 4666 
L 2450 531 
L 3481 531 
L 3481 0 
L 794 0 
L 794 531 
z
" transform="scale(0.015625)"/>
       </defs>
       <use xlink:href="#DejaVuSans-14"/>
       <use xlink:href="#DejaVuSans-13" transform="translate(63.625 0)"/>
      </g>
     </g>
    </g>
    <g id="xtick_4">
     <g id="line2d_7">
      <path d="M 193.311361 178.222876 
L 193.311361 24.48 
" clip-path="url(#p42663eeba4)" style="fill: none; stroke: #262a33; stroke-opacity: 0.5; stroke-width: 0.8; stroke-linecap: square"/>
     </g>
     <g id="line2d_8">
      <g>
       <use xlink:href="#m8476e8c350" x="193.311361" y="178.222876" style="fill: #7a8499; stroke: #7a8499; stroke-width: 0.8"/>
      </g>
     </g>
     <g id="text_4">
      <!-- 15 -->
      <g style="fill: #7a8499" transform="translate(186.312611 193.580298) scale(0.11 -0.11)">
       <use xlink:href="#DejaVuSans-14"/>
       <use xlink:href="#DejaVuSans-18" transform="translate(63.625 0)"/>
      </g>
     </g>
    </g>
    <g id="xtick_5">
     <g id="line2d_9">
      <path d="M 234.375824 178.222876 
L 234.375824 24.48 
" clip-path="url(#p42663eeba4)" style="fill: none; stroke: #262a33; stroke-opacity: 0.5; stroke-width: 0.8; stroke-linecap: square"/>
     </g>
     <g id="line2d_10">
      <g>
       <use xlink:href="#m8476e8c350" x="234.375824" y="178.222876" style="fill: #7a8499; stroke: #7a8499; stroke-width: 0.8"/>
      </g>
     </g>
     <g id="text_5">
      <!-- 20 -->
      <g style="fill: #7a8499" transform="translate(227.377074 193.580298) scale(0.11 -0.11)">
       <defs>
        <path id="DejaVuSans-15" d="M 1228 531 
L 3431 531 
L 3431 0 
L 469 0 
L 469 531 
Q 828 903 1448 1529 
Q 2069 2156 2228 2338 
Q 2531 2678 2651 2914 
Q 2772 3150 2772 3378 
Q 2772 3750 2511 3984 
Q 2250 4219 1831 4219 
Q 1534 4219 1204 4116 
Q 875 4013 500 3803 
L 500 4441 
Q 881 4594 1212 4672 
Q 1544 4750 1819 4750 
Q 2544 4750 2975 4387 
Q 3406 4025 3406 3419 
Q 3406 3131 3298 2873 
Q 3191 2616 2906 2266 
Q 2828 2175 2409 1742 
Q 1991 1309 1228 531 
z
" transform="scale(0.015625)"/>
       </defs>
       <use xlink:href="#DejaVuSans-15"/>
       <use xlink:href="#DejaVuSans-13" transform="translate(63.625 0)"/>
      </g>
     </g>
    </g>
    <g id="xtick_6">
     <g id="line2d_11">
      <path d="M 275.440287 178.222876 
L 275.440287 24.48 
" clip-path="url(#p42663eeba4)" style="fill: none; stroke: #262a33; stroke-opacity: 0.5; stroke-width: 0.8; stroke-linecap: square"/>
     </g>
     <g id="line2d_12">
      <g>
       <use xlink:href="#m8476e8c350" x="275.440287" y="178.222876" style="fill: #7a8499; stroke: #7a8499; stroke-width: 0.8"/>
      </g>
     </g>
     <g id="text_6">
      <!-- 25 -->
      <g style="fill: #7a8499" transform="translate(268.441537 193.580298) scale(0.11 -0.11)">
       <use xlink:href="#DejaVuSans-15"/>
       <use xlink:href="#DejaVuSans-18" transform="translate(63.625 0)"/>
      </g>
     </g>
    </g>
    <g id="xtick_7">
     <g id="line2d_13">
      <path d="M 316.504749 178.222876 
L 316.504749 24.48 
" clip-path="url(#p42663eeba4)" style="fill: none; stroke: #262a33; stroke-opacity: 0.5; stroke-width: 0.8; stroke-linecap: square"/>
     </g>
     <g id="line2d_14">
      <g>
       <use xlink:href="#m8476e8c350" x="316.504749" y="178.222876" style="fill: #7a8499; stroke: #7a8499; stroke-width: 0.8"/>
      </g>
     </g>
     <g id="text_7">
      <!-- 30 -->
      <g style="fill: #7a8499" transform="translate(309.505999 193.580298) scale(0.11 -0.11)">
       <defs>
        <path id="DejaVuSans-16" d="M 2597 2516 
Q 3050 2419 3304 2112 
Q 3559 1806 3559 1356 
Q 3559 666 3084 287 
Q 2609 -91 1734 -91 
Q 1441 -91 1130 -33 
Q 819 25 488 141 
L 488 750 
Q 750 597 1062 519 
Q 1375 441 1716 441 
Q 2309 441 2620 675 
Q 2931 909 2931 1356 
Q 2931 1769 2642 2001 
Q 2353 2234 1838 2234 
L 1294 2234 
L 1294 2753 
L 1863 2753 
Q 2328 2753 2575 2939 
Q 2822 3125 2822 3475 
Q 2822 3834 2567 4026 
Q 2313 4219 1838 4219 
Q 1578 4219 1281 4162 
Q 984 4106 628 3988 
L 628 4550 
Q 988 4650 1302 4700 
Q 1616 4750 1894 4750 
Q 2613 4750 3031 4423 
Q 3450 4097 3450 3541 
Q 3450 3153 3228 2886 
Q 3006 2619 2597 2516 
z
" transform="scale(0.015625)"/>
       </defs>
       <use xlink:href="#DejaVuSans-16"/>
       <use xlink:href="#DejaVuSans-13" transform="translate(63.625 0)"/>
      </g>
     </g>
    </g>
    <g id="xtick_8">
     <g id="line2d_15">
      <path d="M 357.569212 178.222876 
L 357.569212 24.48 
" clip-path="url(#p42663eeba4)" style="fill: none; stroke: #262a33; stroke-opacity: 0.5; stroke-width: 0.8; stroke-linecap: square"/>
     </g>
     <g id="line2d_16">
      <g>
       <use xlink:href="#m8476e8c350" x="357.569212" y="178.222876" style="fill: #7a8499; stroke: #7a8499; stroke-width: 0.8"/>
      </g>
     </g>
     <g id="text_8">
      <!-- 35 -->
      <g style="fill: #7a8499" transform="translate(350.570462 193.580298) scale(0.11 -0.11)">
       <use xlink:href="#DejaVuSans-16"/>
       <use xlink:href="#DejaVuSans-18" transform="translate(63.625 0)"/>
      </g>
     </g>
    </g>
    <g id="xtick_9">
     <g id="line2d_17">
      <path d="M 398.633675 178.222876 
L 398.633675 24.48 
" clip-path="url(#p42663eeba4)" style="fill: none; stroke: #262a33; stroke-opacity: 0.5; stroke-width: 0.8; stroke-linecap: square"/>
     </g>
     <g id="line2d_18">
      <g>
       <use xlink:href="#m8476e8c350" x="398.633675" y="178.222876" style="fill: #7a8499; stroke: #7a8499; stroke-width: 0.8"/>
      </g>
     </g>
     <g id="text_9">
      <!-- 40 -->
      <g style="fill: #7a8499" transform="translate(391.634925 193.580298) scale(0.11 -0.11)">
       <defs>
        <path id="DejaVuSans-17" d="M 2419 4116 
L 825 1625 
L 2419 1625 
L 2419 4116 
z
M 2253 4666 
L 3047 4666 
L 3047 1625 
L 3713 1625 
L 3713 1100 
L 3047 1100 
L 3047 0 
L 2419 0 
L 2419 1100 
L 313 1100 
L 313 1709 
L 2253 4666 
z
" transform="scale(0.015625)"/>
       </defs>
       <use xlink:href="#DejaVuSans-17"/>
       <use xlink:href="#DejaVuSans-13" transform="translate(63.625 0)"/>
      </g>
     </g>
    </g>
    <g id="text_10">
     <!-- $\chi^2$ -->
     <g style="fill: #c9d1e0" transform="translate(228.270824 210.562876) scale(0.11 -0.11)">
      <defs>
       <path id="DejaVuSans-Oblique-35b" d="M 1922 -781 
L 1691 416 
L 394 -1334 
L -284 -1334 
L 1553 1141 
L 1269 2613 
Q 1194 3006 713 3006 
L 559 3006 
L 653 3500 
L 872 3494 
Q 1675 3472 1775 2950 
L 2006 1753 
L 3303 3503 
L 3981 3503 
L 2144 1028 
L 2428 -444 
Q 2503 -838 2984 -838 
L 3138 -838 
L 3044 -1331 
L 2825 -1325 
Q 2022 -1303 1922 -781 
z
" transform="scale(0.015625)"/>
      </defs>
      <use xlink:href="#DejaVuSans-Oblique-35b" transform="translate(0 0.746875)"/>
      <use xlink:href="#DejaVuSans-15" transform="translate(63.652396 42.046875) scale(0.7)"/>
     </g>
    </g>
   </g>
   <g id="matplotlib.axis_2">
    <g id="ytick_1">
     <g id="line2d_19">
      <path d="M 53.692188 171.234564 
L 415.05946 171.234564 
" clip-path="url(#p42663eeba4)" style="fill: none; stroke: #262a33; stroke-opacity: 0.5; stroke-width: 0.8; stroke-linecap: square"/>
     </g>
     <g id="line2d_20">
      <defs>
       <path id="m98e6a481b2" d="M 0 0 
L -3.5 0 
" style="stroke: #7a8499; stroke-width: 0.8"/>
      </defs>
      <g>
       <use xlink:href="#m98e6a481b2" x="53.692188" y="171.234564" style="fill: #7a8499; stroke: #7a8499; stroke-width: 0.8"/>
      </g>
     </g>
     <g id="text_11">
      <!-- 0.00 -->
      <g style="fill: #7a8499" transform="translate(22.2 175.413275) scale(0.11 -0.11)">
       <defs>
        <path id="DejaVuSans-11" d="M 684 794 
L 1344 794 
L 1344 0 
L 684 0 
L 684 794 
z
" transform="scale(0.015625)"/>
       </defs>
       <use xlink:href="#DejaVuSans-13"/>
       <use xlink:href="#DejaVuSans-11" transform="translate(63.625 0)"/>
       <use xlink:href="#DejaVuSans-13" transform="translate(95.40625 0)"/>
       <use xlink:href="#DejaVuSans-13" transform="translate(159.03125 0)"/>
      </g>
     </g>
    </g>
    <g id="ytick_2">
     <g id="line2d_21">
      <path d="M 53.692188 136.428139 
L 415.05946 136.428139 
" clip-path="url(#p42663eeba4)" style="fill: none; stroke: #262a33; stroke-opacity: 0.5; stroke-width: 0.8; stroke-linecap: square"/>
     </g>
     <g id="line2d_22">
      <g>
       <use xlink:href="#m98e6a481b2" x="53.692188" y="136.428139" style="fill: #7a8499; stroke: #7a8499; stroke-width: 0.8"/>
      </g>
     </g>
     <g id="text_12">
      <!-- 0.02 -->
      <g style="fill: #7a8499" transform="translate(22.2 140.60685) scale(0.11 -0.11)">
       <use xlink:href="#DejaVuSans-13"/>
       <use xlink:href="#DejaVuSans-11" transform="translate(63.625 0)"/>
       <use xlink:href="#DejaVuSans-13" transform="translate(95.40625 0)"/>
       <use xlink:href="#DejaVuSans-15" transform="translate(159.03125 0)"/>
      </g>
     </g>
    </g>
    <g id="ytick_3">
     <g id="line2d_23">
      <path d="M 53.692188 101.621714 
L 415.05946 101.621714 
" clip-path="url(#p42663eeba4)" style="fill: none; stroke: #262a33; stroke-opacity: 0.5; stroke-width: 0.8; stroke-linecap: square"/>
     </g>
     <g id="line2d_24">
      <g>
       <use xlink:href="#m98e6a481b2" x="53.692188" y="101.621714" style="fill: #7a8499; stroke: #7a8499; stroke-width: 0.8"/>
      </g>
     </g>
     <g id="text_13">
      <!-- 0.04 -->
      <g style="fill: #7a8499" transform="translate(22.2 105.800425) scale(0.11 -0.11)">
       <use xlink:href="#DejaVuSans-13"/>
       <use xlink:href="#DejaVuSans-11" transform="translate(63.625 0)"/>
       <use xlink:href="#DejaVuSans-13" transform="translate(95.40625 0)"/>
       <use xlink:href="#DejaVuSans-17" transform="translate(159.03125 0)"/>
      </g>
     </g>
    </g>
    <g id="ytick_4">
     <g id="line2d_25">
      <path d="M 53.692188 66.815289 
L 415.05946 66.815289 
" clip-path="url(#p42663eeba4)" style="fill: none; stroke: #262a33; stroke-opacity: 0.5; stroke-width: 0.8; stroke-linecap: square"/>
     </g>
     <g id="line2d_26">
      <g>
       <use xlink:href="#m98e6a481b2" x="53.692188" y="66.815289" style="fill: #7a8499; stroke: #7a8499; stroke-width: 0.8"/>
      </g>
     </g>
     <g id="text_14">
      <!-- 0.06 -->
      <g style="fill: #7a8499" transform="translate(22.2 70.994) scale(0.11 -0.11)">
       <defs>
        <path id="DejaVuSans-19" d="M 2113 2584 
Q 1688 2584 1439 2293 
Q 1191 2003 1191 1497 
Q 1191 994 1439 701 
Q 1688 409 2113 409 
Q 2538 409 2786 701 
Q 3034 994 3034 1497 
Q 3034 2003 2786 2293 
Q 2538 2584 2113 2584 
z
M 3366 4563 
L 3366 3988 
Q 3128 4100 2886 4159 
Q 2644 4219 2406 4219 
Q 1781 4219 1451 3797 
Q 1122 3375 1075 2522 
Q 1259 2794 1537 2939 
Q 1816 3084 2150 3084 
Q 2853 3084 3261 2657 
Q 3669 2231 3669 1497 
Q 3669 778 3244 343 
Q 2819 -91 2113 -91 
Q 1303 -91 875 529 
Q 447 1150 447 2328 
Q 447 3434 972 4092 
Q 1497 4750 2381 4750 
Q 2619 4750 2861 4703 
Q 3103 4656 3366 4563 
z
" transform="scale(0.015625)"/>
       </defs>
       <use xlink:href="#DejaVuSans-13"/>
       <use xlink:href="#DejaVuSans-11" transform="translate(63.625 0)"/>
       <use xlink:href="#DejaVuSans-13" transform="translate(95.40625 0)"/>
       <use xlink:href="#DejaVuSans-19" transform="translate(159.03125 0)"/>
      </g>
     </g>
    </g>
    <g id="ytick_5">
     <g id="line2d_27">
      <path d="M 53.692188 32.008864 
L 415.05946 32.008864 
" clip-path="url(#p42663eeba4)" style="fill: none; stroke: #262a33; stroke-opacity: 0.5; stroke-width: 0.8; stroke-linecap: square"/>
     </g>
     <g id="line2d_28">
      <g>
       <use xlink:href="#m98e6a481b2" x="53.692188" y="32.008864" style="fill: #7a8499; stroke: #7a8499; stroke-width: 0.8"/>
      </g>
     </g>
     <g id="text_15">
      <!-- 0.08 -->
      <g style="fill: #7a8499" transform="translate(22.2 36.187575) scale(0.11 -0.11)">
       <defs>
        <path id="DejaVuSans-1b" d="M 2034 2216 
Q 1584 2216 1326 1975 
Q 1069 1734 1069 1313 
Q 1069 891 1326 650 
Q 1584 409 2034 409 
Q 2484 409 2743 651 
Q 3003 894 3003 1313 
Q 3003 1734 2745 1975 
Q 2488 2216 2034 2216 
z
M 1403 2484 
Q 997 2584 770 2862 
Q 544 3141 544 3541 
Q 544 4100 942 4425 
Q 1341 4750 2034 4750 
Q 2731 4750 3128 4425 
Q 3525 4100 3525 3541 
Q 3525 3141 3298 2862 
Q 3072 2584 2669 2484 
Q 3125 2378 3379 2068 
Q 3634 1759 3634 1313 
Q 3634 634 3220 271 
Q 2806 -91 2034 -91 
Q 1263 -91 848 271 
Q 434 634 434 1313 
Q 434 1759 690 2068 
Q 947 2378 1403 2484 
z
M 1172 3481 
Q 1172 3119 1398 2916 
Q 1625 2713 2034 2713 
Q 2441 2713 2670 2916 
Q 2900 3119 2900 3481 
Q 2900 3844 2670 4047 
Q 2441 4250 2034 4250 
Q 1625 4250 1398 4047 
Q 1172 3844 1172 3481 
z
" transform="scale(0.015625)"/>
       </defs>
       <use xlink:href="#DejaVuSans-13"/>
       <use xlink:href="#DejaVuSans-11" transform="translate(63.625 0)"/>
       <use xlink:href="#DejaVuSans-13" transform="translate(95.40625 0)"/>
       <use xlink:href="#DejaVuSans-1b" transform="translate(159.03125 0)"/>
      </g>
     </g>
    </g>
    <g id="text_16">
     <!-- плотность -->
     <g style="fill: #c9d1e0" transform="translate(15.557422 131.462219) rotate(-90) scale(0.11 -0.11)">
      <defs>
       <path id="DejaVuSans-3d3" d="M 3603 3500 
L 3603 0 
L 3025 0 
L 3025 3041 
L 1159 3041 
L 1159 0 
L 581 0 
L 581 3500 
L 3603 3500 
z
" transform="scale(0.015625)"/>
       <path id="DejaVuSans-3cf" d="M 238 0 
L 238 478 
Q 806 566 981 959 
Q 1194 1513 1194 2928 
L 1194 3500 
L 3559 3500 
L 3559 0 
L 2984 0 
L 2984 3041 
L 1769 3041 
L 1769 2694 
Q 1769 1344 1494 738 
Q 1200 91 238 0 
z
" transform="scale(0.015625)"/>
       <path id="DejaVuSans-3d2" d="M 1959 3097 
Q 1497 3097 1228 2736 
Q 959 2375 959 1747 
Q 959 1119 1226 758 
Q 1494 397 1959 397 
Q 2419 397 2687 759 
Q 2956 1122 2956 1747 
Q 2956 2369 2687 2733 
Q 2419 3097 1959 3097 
z
M 1959 3584 
Q 2709 3584 3137 3096 
Q 3566 2609 3566 1747 
Q 3566 888 3137 398 
Q 2709 -91 1959 -91 
Q 1206 -91 779 398 
Q 353 888 353 1747 
Q 353 2609 779 3096 
Q 1206 3584 1959 3584 
z
" transform="scale(0.015625)"/>
       <path id="DejaVuSans-3d6" d="M 188 3500 
L 3541 3500 
L 3541 3041 
L 2147 3041 
L 2147 0 
L 1581 0 
L 1581 3041 
L 188 3041 
L 188 3500 
z
" transform="scale(0.015625)"/>
       <path id="DejaVuSans-3d1" d="M 581 3500 
L 1159 3500 
L 1159 2072 
L 3025 2072 
L 3025 3500 
L 3603 3500 
L 3603 0 
L 3025 0 
L 3025 1613 
L 1159 1613 
L 1159 0 
L 581 0 
L 581 3500 
z
" transform="scale(0.015625)"/>
       <path id="DejaVuSans-3d5" d="M 3122 3366 
L 3122 2828 
Q 2878 2963 2633 3030 
Q 2388 3097 2138 3097 
Q 1578 3097 1268 2742 
Q 959 2388 959 1747 
Q 959 1106 1268 751 
Q 1578 397 2138 397 
Q 2388 397 2633 464 
Q 2878 531 3122 666 
L 3122 134 
Q 2881 22 2623 -34 
Q 2366 -91 2075 -91 
Q 1284 -91 818 406 
Q 353 903 353 1747 
Q 353 2603 823 3093 
Q 1294 3584 2113 3584 
Q 2378 3584 2631 3529 
Q 2884 3475 3122 3366 
z
" transform="scale(0.015625)"/>
       <path id="DejaVuSans-3e0" d="M 2781 1038 
Q 2781 1319 2576 1466 
Q 2372 1613 1978 1613 
L 1159 1613 
L 1159 459 
L 1978 459 
Q 2372 459 2576 607 
Q 2781 756 2781 1038 
z
M 581 3500 
L 1159 3500 
L 1159 2072 
L 2003 2072 
Q 2672 2072 3033 1817 
Q 3394 1563 3394 1038 
Q 3394 513 3033 256 
Q 2672 0 2003 0 
L 581 0 
L 581 3500 
z
" transform="scale(0.015625)"/>
      </defs>
      <use xlink:href="#DejaVuSans-3d3"/>
      <use xlink:href="#DejaVuSans-3cf" transform="translate(65.375 0)"/>
      <use xlink:href="#DejaVuSans-3d2" transform="translate(129.296875 0)"/>
      <use xlink:href="#DejaVuSans-3d6" transform="translate(190.484375 0)"/>
      <use xlink:href="#DejaVuSans-3d1" transform="translate(248.734375 0)"/>
      <use xlink:href="#DejaVuSans-3d2" transform="translate(314.109375 0)"/>
      <use xlink:href="#DejaVuSans-3d5" transform="translate(375.296875 0)"/>
      <use xlink:href="#DejaVuSans-3d6" transform="translate(430.28125 0)"/>
      <use xlink:href="#DejaVuSans-3e0" transform="translate(488.53125 0)"/>
     </g>
    </g>
   </g>
   <g id="line2d_29">
    <path d="M 70.117973 171.234564 
L 82.626587 171.124501 
L 85.918327 170.868672 
L 88.551719 170.448592 
L 90.526764 169.951024 
L 92.501808 169.253525 
L 94.476852 168.317069 
L 96.451897 167.104661 
L 98.426941 165.582971 
L 100.401985 163.723744 
L 102.37703 161.504917 
L 104.352074 158.911438 
L 106.327118 155.93577 
L 108.302162 152.578104 
L 110.277207 148.846296 
L 112.910599 143.315859 
L 115.543992 137.202891 
L 118.835732 128.856012 
L 122.127473 119.891075 
L 127.394257 104.770697 
L 135.294435 82.026904 
L 139.244523 71.398553 
L 142.536264 63.221926 
L 145.169656 57.230273 
L 147.803049 51.792372 
L 150.436441 46.955396 
L 152.411485 43.743527 
L 154.38653 40.899996 
L 156.361574 38.431592 
L 158.336618 36.341682 
L 160.311662 34.630422 
L 162.286707 33.294983 
L 164.261751 32.329802 
L 165.578447 31.888169 
L 166.895143 31.604625 
L 168.21184 31.475827 
L 169.528536 31.498066 
L 171.50358 31.805691 
L 173.478625 32.42911 
L 175.453669 33.352196 
L 177.428713 34.5578 
L 179.403757 36.027989 
L 181.378802 37.744256 
L 184.012194 40.382748 
L 186.645587 43.379962 
L 189.278979 46.69084 
L 192.570719 51.203101 
L 196.520808 57.055822 
L 201.129245 64.31672 
L 208.371074 76.223324 
L 218.246295 92.447406 
L 224.171428 101.73275 
L 228.779865 108.579366 
L 233.388302 115.036832 
L 237.996738 121.069238 
L 241.946827 125.885738 
L 245.896916 130.36961 
L 249.847004 134.521572 
L 253.797093 138.347163 
L 257.747181 141.855771 
L 261.69727 145.059777 
L 265.647359 147.973779 
L 269.597447 150.613936 
L 273.547536 152.997394 
L 277.497624 155.141811 
L 282.106061 157.365214 
L 286.714498 159.315282 
L 291.322935 161.018956 
L 295.931371 162.501892 
L 301.198156 163.957229 
L 306.464941 165.188905 
L 312.390074 166.344613 
L 318.973555 167.387738 
L 326.215384 168.294365 
L 334.115561 169.05351 
L 343.332435 169.705603 
L 353.866004 170.224228 
L 367.032966 170.639546 
L 384.150017 170.940793 
L 398.633675 171.075139 
L 398.633675 171.075139 
" clip-path="url(#p42663eeba4)" style="fill: none; stroke: #22c55e; stroke-width: 2; stroke-linecap: square"/>
   </g>
   <g id="line2d_30">
    <path d="M 116.346095 178.222876 
L 116.346095 24.48 
" clip-path="url(#p42663eeba4)" style="fill: none; stroke-dasharray: 5.55,2.4; stroke-dashoffset: 0; stroke: #ef4444; stroke-width: 1.5"/>
   </g>
   <g id="line2d_31">
    <path d="M 284.630087 178.222876 
L 284.630087 24.48 
" clip-path="url(#p42663eeba4)" style="fill: none; stroke-dasharray: 5.55,2.4; stroke-dashoffset: 0; stroke: #ef4444; stroke-width: 1.5"/>
   </g>
   <g id="patch_3">
    <path d="M 53.692188 178.222876 
L 53.692188 24.48 
" style="fill: none; stroke: #262a33; stroke-width: 0.8; stroke-linejoin: miter; stroke-linecap: square"/>
   </g>
   <g id="patch_4">
    <path d="M 415.05946 178.222876 
L 415.05946 24.48 
" style="fill: none; stroke: #262a33; stroke-width: 0.8; stroke-linejoin: miter; stroke-linecap: square"/>
   </g>
   <g id="patch_5">
    <path d="M 53.692188 178.222876 
L 415.05946 178.222876 
" style="fill: none; stroke: #262a33; stroke-width: 0.8; stroke-linejoin: miter; stroke-linecap: square"/>
   </g>
   <g id="patch_6">
    <path d="M 53.692188 24.48 
L 415.05946 24.48 
" style="fill: none; stroke: #262a33; stroke-width: 0.8; stroke-linejoin: miter; stroke-linecap: square"/>
   </g>
   <g id="text_17">
    <!-- 5.63 -->
    <g style="fill: #ef4444" transform="translate(92.200587 94.363126) scale(0.09 -0.09)">
     <use xlink:href="#DejaVuSans-18"/>
     <use xlink:href="#DejaVuSans-11" transform="translate(63.625 0)"/>
     <use xlink:href="#DejaVuSans-19" transform="translate(95.40625 0)"/>
     <use xlink:href="#DejaVuSans-16" transform="translate(159.03125 0)"/>
    </g>
   </g>
   <g id="text_18">
    <!-- 26.12 -->
    <g style="fill: #ef4444" transform="translate(288.736533 94.363126) scale(0.09 -0.09)">
     <use xlink:href="#DejaVuSans-15"/>
     <use xlink:href="#DejaVuSans-19" transform="translate(63.625 0)"/>
     <use xlink:href="#DejaVuSans-11" transform="translate(127.25 0)"/>
     <use xlink:href="#DejaVuSans-14" transform="translate(159.03125 0)"/>
     <use xlink:href="#DejaVuSans-15" transform="translate(222.65625 0)"/>
    </g>
   </g>
   <g id="text_19">
    <!-- $\chi^2(14)$: квантили для ДИ дисперсии ($\gamma=0.95$) -->
    <g style="fill: #c9d1e0" transform="translate(90.315824 18.48) scale(0.12 -0.12)">
     <defs>
      <path id="DejaVuSans-b" d="M 1984 4856 
Q 1566 4138 1362 3434 
Q 1159 2731 1159 2009 
Q 1159 1288 1364 580 
Q 1569 -128 1984 -844 
L 1484 -844 
Q 1016 -109 783 600 
Q 550 1309 550 2009 
Q 550 2706 781 3412 
Q 1013 4119 1484 4856 
L 1984 4856 
z
" transform="scale(0.015625)"/>
      <path id="DejaVuSans-c" d="M 513 4856 
L 1013 4856 
Q 1481 4119 1714 3412 
Q 1947 2706 1947 2009 
Q 1947 1309 1714 600 
Q 1481 -109 1013 -844 
L 513 -844 
Q 928 -128 1133 580 
Q 1338 1288 1338 2009 
Q 1338 2731 1133 3434 
Q 928 4138 513 4856 
z
" transform="scale(0.015625)"/>
      <path id="DejaVuSans-1d" d="M 750 794 
L 1409 794 
L 1409 0 
L 750 0 
L 750 794 
z
M 750 3309 
L 1409 3309 
L 1409 2516 
L 750 2516 
L 750 3309 
z
" transform="scale(0.015625)"/>
      <path id="DejaVuSans-3" transform="scale(0.015625)"/>
      <path id="DejaVuSans-3ce" d="M 581 3500 
L 1153 3500 
L 1153 1856 
L 2775 3500 
L 3481 3500 
L 2144 2147 
L 3653 0 
L 3009 0 
L 1769 1766 
L 1153 1141 
L 1153 0 
L 581 0 
L 581 3500 
z
" transform="scale(0.015625)"/>
      <path id="DejaVuSans-3c6" d="M 1156 1613 
L 1156 459 
L 1975 459 
Q 2369 459 2575 607 
Q 2781 756 2781 1038 
Q 2781 1319 2575 1466 
Q 2369 1613 1975 1613 
L 1156 1613 
z
M 1156 3041 
L 1156 2072 
L 1913 2072 
Q 2238 2072 2444 2201 
Q 2650 2331 2650 2563 
Q 2650 2794 2444 2917 
Q 2238 3041 1913 3041 
L 1156 3041 
z
M 581 3500 
L 1950 3500 
Q 2566 3500 2897 3275 
Q 3228 3050 3228 2634 
Q 3228 2313 3059 2123 
Q 2891 1934 2559 1888 
Q 2956 1813 3175 1575 
Q 3394 1338 3394 981 
Q 3394 513 3033 256 
Q 2672 0 2003 0 
L 581 0 
L 581 3500 
z
" transform="scale(0.015625)"/>
      <path id="DejaVuSans-3c4" d="M 2194 1759 
Q 1497 1759 1228 1600 
Q 959 1441 959 1056 
Q 959 750 1161 570 
Q 1363 391 1709 391 
Q 2188 391 2477 730 
Q 2766 1069 2766 1631 
L 2766 1759 
L 2194 1759 
z
M 3341 1997 
L 3341 0 
L 2766 0 
L 2766 531 
Q 2569 213 2275 61 
Q 1981 -91 1556 -91 
Q 1019 -91 701 211 
Q 384 513 384 1019 
Q 384 1609 779 1909 
Q 1175 2209 1959 2209 
L 2766 2209 
L 2766 2266 
Q 2766 2663 2505 2880 
Q 2244 3097 1772 3097 
Q 1472 3097 1187 3025 
Q 903 2953 641 2809 
L 641 3341 
Q 956 3463 1253 3523 
Q 1550 3584 1831 3584 
Q 2591 3584 2966 3190 
Q 3341 2797 3341 1997 
z
" transform="scale(0.015625)"/>
      <path id="DejaVuSans-3cc" d="M 3578 3500 
L 3578 0 
L 3006 0 
L 3006 2809 
L 1319 0 
L 581 0 
L 581 3500 
L 1153 3500 
L 1153 697 
L 2838 3500 
L 3578 3500 
z
" transform="scale(0.015625)"/>
      <path id="DejaVuSans-3c8" d="M 1384 459 
L 3053 459 
L 3053 3041 
L 1844 3041 
L 1844 2603 
Q 1844 1316 1475 628 
L 1384 459 
z
M 550 459 
Q 834 584 959 850 
Q 1266 1509 1266 2838 
L 1266 3500 
L 3631 3500 
L 3631 459 
L 4091 459 
L 4091 -884 
L 3631 -884 
L 3631 0 
L 794 0 
L 794 -884 
L 334 -884 
L 334 459 
L 550 459 
z
" transform="scale(0.015625)"/>
      <path id="DejaVuSans-3e3" d="M 1181 2491 
Q 1181 2231 1381 2084 
Q 1581 1938 1953 1938 
L 2728 1938 
L 2728 3041 
L 1953 3041 
Q 1581 3041 1381 2897 
Q 1181 2753 1181 2491 
z
M 363 0 
L 1431 1534 
Q 1069 1616 828 1830 
Q 588 2044 588 2491 
Q 588 2997 923 3248 
Q 1259 3500 1938 3500 
L 3306 3500 
L 3306 0 
L 2728 0 
L 2728 1478 
L 2013 1478 
L 981 0 
L 363 0 
z
" transform="scale(0.015625)"/>
      <path id="DejaVuSans-3a8" d="M 1459 531 
L 3522 531 
L 3522 4134 
L 2006 4134 
L 2006 3472 
Q 2006 1913 1656 878 
Q 1584 666 1459 531 
z
M 538 531 
Q 956 728 1075 1103 
Q 1378 2066 1378 3784 
L 1378 4666 
L 4153 4666 
L 4153 531 
L 4684 531 
L 4684 -1003 
L 4153 -1003 
L 4153 0 
L 847 0 
L 847 -1003 
L 316 -1003 
L 316 531 
L 538 531 
z
" transform="scale(0.015625)"/>
      <path id="DejaVuSans-3ac" d="M 4159 4666 
L 4159 0 
L 3547 0 
L 3547 3903 
L 1478 0 
L 628 0 
L 628 4666 
L 1241 4666 
L 1241 763 
L 3309 4666 
L 4159 4666 
z
" transform="scale(0.015625)"/>
      <path id="DejaVuSans-3c9" d="M 3597 1894 
L 3597 1613 
L 953 1613 
Q 991 1019 1311 708 
Q 1631 397 2203 397 
Q 2534 397 2845 478 
Q 3156 559 3463 722 
L 3463 178 
Q 3153 47 2828 -22 
Q 2503 -91 2169 -91 
Q 1331 -91 842 396 
Q 353 884 353 1716 
Q 353 2575 817 3079 
Q 1281 3584 2069 3584 
Q 2775 3584 3186 3129 
Q 3597 2675 3597 1894 
z
M 3022 2063 
Q 3016 2534 2758 2815 
Q 2500 3097 2075 3097 
Q 1594 3097 1305 2825 
Q 1016 2553 972 2059 
L 3022 2063 
z
" transform="scale(0.015625)"/>
      <path id="DejaVuSans-3d4" d="M 1159 525 
L 1159 -1331 
L 581 -1331 
L 581 3500 
L 1159 3500 
L 1159 2969 
Q 1341 3281 1617 3432 
Q 1894 3584 2278 3584 
Q 2916 3584 3314 3078 
Q 3713 2572 3713 1747 
Q 3713 922 3314 415 
Q 2916 -91 2278 -91 
Q 1894 -91 1617 61 
Q 1341 213 1159 525 
z
M 3116 1747 
Q 3116 2381 2855 2742 
Q 2594 3103 2138 3103 
Q 1681 3103 1420 2742 
Q 1159 2381 1159 1747 
Q 1159 1113 1420 752 
Q 1681 391 2138 391 
Q 2594 391 2855 752 
Q 3116 1113 3116 1747 
z
" transform="scale(0.015625)"/>
      <path id="DejaVuSans-Oblique-347" d="M 1491 2950 
L 1838 788 
L 3456 3500 
L 4066 3500 
L 1972 0 
L 1713 -1331 
L 1138 -1331 
L 1397 0 
L 988 2613 
Q 925 3006 628 3006 
L 475 3006 
L 569 3500 
L 788 3500 
Q 1403 3500 1491 2950 
z
" transform="scale(0.015625)"/>
      <path id="DejaVuSans-20" d="M 678 2906 
L 4684 2906 
L 4684 2381 
L 678 2381 
L 678 2906 
z
M 678 1631 
L 4684 1631 
L 4684 1100 
L 678 1100 
L 678 1631 
z
" transform="scale(0.015625)"/>
      <path id="DejaVuSans-1c" d="M 703 97 
L 703 672 
Q 941 559 1184 500 
Q 1428 441 1663 441 
Q 2288 441 2617 861 
Q 2947 1281 2994 2138 
Q 2813 1869 2534 1725 
Q 2256 1581 1919 1581 
Q 1219 1581 811 2004 
Q 403 2428 403 3163 
Q 403 3881 828 4315 
Q 1253 4750 1959 4750 
Q 2769 4750 3195 4129 
Q 3622 3509 3622 2328 
Q 3622 1225 3098 567 
Q 2575 -91 1691 -91 
Q 1453 -91 1209 -44 
Q 966 3 703 97 
z
M 1959 2075 
Q 2384 2075 2632 2365 
Q 2881 2656 2881 3163 
Q 2881 3666 2632 3958 
Q 2384 4250 1959 4250 
Q 1534 4250 1286 3958 
Q 1038 3666 1038 3163 
Q 1038 2656 1286 2365 
Q 1534 2075 1959 2075 
z
" transform="scale(0.015625)"/>
     </defs>
     <use xlink:href="#DejaVuSans-Oblique-35b" transform="translate(0 0.746875)"/>
     <use xlink:href="#DejaVuSans-15" transform="translate(63.652396 42.046875) scale(0.7)"/>
     <use xlink:href="#DejaVuSans-b" transform="translate(110.922904 0.746875)"/>
     <use xlink:href="#DejaVuSans-14" transform="translate(149.936576 0.746875)"/>
     <use xlink:href="#DejaVuSans-17" transform="translate(213.559622 0.746875)"/>
     <use xlink:href="#DejaVuSans-c" transform="translate(277.182669 0.746875)"/>
     <use xlink:href="#DejaVuSans-1d" transform="translate(316.196341 0.746875)"/>
     <use xlink:href="#DejaVuSans-3" transform="translate(349.887747 0.746875)"/>
     <use xlink:href="#DejaVuSans-3ce" transform="translate(381.674857 0.746875)"/>
     <use xlink:href="#DejaVuSans-3c6" transform="translate(442.075247 0.746875)"/>
     <use xlink:href="#DejaVuSans-3c4" transform="translate(501.010794 0.746875)"/>
     <use xlink:href="#DejaVuSans-3d1" transform="translate(562.290091 0.746875)"/>
     <use xlink:href="#DejaVuSans-3d6" transform="translate(627.670951 0.746875)"/>
     <use xlink:href="#DejaVuSans-3cc" transform="translate(685.922904 0.746875)"/>
     <use xlink:href="#DejaVuSans-3cf" transform="translate(750.913138 0.746875)"/>
     <use xlink:href="#DejaVuSans-3cc" transform="translate(814.829154 0.746875)"/>
     <use xlink:href="#DejaVuSans-3" transform="translate(879.819388 0.746875)"/>
     <use xlink:href="#DejaVuSans-3c8" transform="translate(911.606497 0.746875)"/>
     <use xlink:href="#DejaVuSans-3cf" transform="translate(980.747122 0.746875)"/>
     <use xlink:href="#DejaVuSans-3e3" transform="translate(1044.663138 0.746875)"/>
     <use xlink:href="#DejaVuSans-3" transform="translate(1104.819388 0.746875)"/>
     <use xlink:href="#DejaVuSans-3a8" transform="translate(1136.606497 0.746875)"/>
     <use xlink:href="#DejaVuSans-3ac" transform="translate(1214.731497 0.746875)"/>
     <use xlink:href="#DejaVuSans-3" transform="translate(1289.536185 0.746875)"/>
     <use xlink:href="#DejaVuSans-3c8" transform="translate(1321.323294 0.746875)"/>
     <use xlink:href="#DejaVuSans-3cc" transform="translate(1390.463919 0.746875)"/>
     <use xlink:href="#DejaVuSans-3d5" transform="translate(1455.454154 0.746875)"/>
     <use xlink:href="#DejaVuSans-3d3" transform="translate(1510.434622 0.746875)"/>
     <use xlink:href="#DejaVuSans-3c9" transform="translate(1575.815482 0.746875)"/>
     <use xlink:href="#DejaVuSans-3d4" transform="translate(1637.338919 0.746875)"/>
     <use xlink:href="#DejaVuSans-3d5" transform="translate(1700.815482 0.746875)"/>
     <use xlink:href="#DejaVuSans-3cc" transform="translate(1755.795951 0.746875)"/>
     <use xlink:href="#DejaVuSans-3cc" transform="translate(1820.786185 0.746875)"/>
     <use xlink:href="#DejaVuSans-3" transform="translate(1885.776419 0.746875)"/>
     <use xlink:href="#DejaVuSans-b" transform="translate(1917.563529 0.746875)"/>
     <use xlink:href="#DejaVuSans-Oblique-347" transform="translate(1956.577201 0.746875)"/>
     <use xlink:href="#DejaVuSans-20" transform="translate(2035.23931 0.746875)"/>
     <use xlink:href="#DejaVuSans-13" transform="translate(2138.510794 0.746875)"/>
     <use xlink:href="#DejaVuSans-11" transform="translate(2202.133841 0.746875)"/>
     <use xlink:href="#DejaVuSans-1c" transform="translate(2233.920951 0.746875)"/>
     <use xlink:href="#DejaVuSans-18" transform="translate(2297.543997 0.746875)"/>
     <use xlink:href="#DejaVuSans-c" transform="translate(2361.167044 0.746875)"/>
    </g>
   </g>
   <g id="legend_1">
    <g id="patch_7">
     <path d="M 331.26946 45.180703 
L 408.75946 45.180703 
Q 410.55946 45.180703 410.55946 43.380703 
L 410.55946 30.78 
Q 410.55946 28.98 408.75946 28.98 
L 331.26946 28.98 
Q 329.46946 28.98 329.46946 30.78 
L 329.46946 43.380703 
Q 329.46946 45.180703 331.26946 45.180703 
z
" style="fill: #13151b; opacity: 0.8; stroke: #cccccc; stroke-linejoin: miter"/>
    </g>
    <g id="patch_8">
     <path d="M 333.06946 39.418594 
L 351.06946 39.418594 
L 351.06946 33.118594 
L 333.06946 33.118594 
z
" style="fill: #ef4444; fill-opacity: 0.45; stroke: #ef4444; stroke-opacity: 0.45; stroke-linejoin: miter"/>
    </g>
    <g id="text_20">
     <!-- $\alpha/2=2.5\%$ -->
     <g style="fill: #c9d1e0" transform="translate(358.26946 39.418594) scale(0.09 -0.09)">
      <defs>
       <path id="DejaVuSans-Oblique-345" d="M 2619 1628 
L 2622 2350 
Q 2625 3088 2069 3091 
Q 1653 3094 1394 2747 
Q 1069 2319 959 1747 
Q 825 1059 994 731 
Q 1169 397 1547 397 
Q 1966 397 2319 1063 
L 2619 1628 
z
M 2166 3578 
Q 3141 3594 3128 2584 
Q 3128 2584 3616 3500 
L 4128 3500 
L 3119 1603 
L 3109 919 
Q 3109 766 3194 638 
Q 3291 488 3391 488 
L 3669 488 
L 3575 0 
L 3228 0 
Q 2934 0 2722 263 
Q 2622 394 2619 669 
Q 2416 334 2066 50 
Q 1900 -81 1453 -78 
Q 722 -72 456 397 
Q 184 884 353 1747 
Q 534 2675 1009 3097 
Q 1544 3569 2166 3578 
z
" transform="scale(0.015625)"/>
       <path id="DejaVuSans-12" d="M 1625 4666 
L 2156 4666 
L 531 -594 
L 0 -594 
L 1625 4666 
z
" transform="scale(0.015625)"/>
       <path id="DejaVuSans-8" d="M 4653 2053 
Q 4381 2053 4226 1822 
Q 4072 1591 4072 1178 
Q 4072 772 4226 539 
Q 4381 306 4653 306 
Q 4919 306 5073 539 
Q 5228 772 5228 1178 
Q 5228 1588 5073 1820 
Q 4919 2053 4653 2053 
z
M 4653 2450 
Q 5147 2450 5437 2106 
Q 5728 1763 5728 1178 
Q 5728 594 5436 251 
Q 5144 -91 4653 -91 
Q 4153 -91 3862 251 
Q 3572 594 3572 1178 
Q 3572 1766 3864 2108 
Q 4156 2450 4653 2450 
z
M 1428 4353 
Q 1159 4353 1004 4120 
Q 850 3888 850 3481 
Q 850 3069 1003 2837 
Q 1156 2606 1428 2606 
Q 1700 2606 1854 2837 
Q 2009 3069 2009 3481 
Q 2009 3884 1853 4118 
Q 1697 4353 1428 4353 
z
M 4250 4750 
L 4750 4750 
L 1831 -91 
L 1331 -91 
L 4250 4750 
z
M 1428 4750 
Q 1922 4750 2215 4408 
Q 2509 4066 2509 3481 
Q 2509 2891 2217 2550 
Q 1925 2209 1428 2209 
Q 931 2209 642 2551 
Q 353 2894 353 3481 
Q 353 4063 643 4406 
Q 934 4750 1428 4750 
z
" transform="scale(0.015625)"/>
      </defs>
      <use xlink:href="#DejaVuSans-Oblique-345" transform="translate(0 0.78125)"/>
      <use xlink:href="#DejaVuSans-12" transform="translate(65.917969 0.78125)"/>
      <use xlink:href="#DejaVuSans-15" transform="translate(99.609375 0.78125)"/>
      <use xlink:href="#DejaVuSans-20" transform="translate(182.714844 0.78125)"/>
      <use xlink:href="#DejaVuSans-15" transform="translate(285.986328 0.78125)"/>
      <use xlink:href="#DejaVuSans-11" transform="translate(349.609375 0.78125)"/>
      <use xlink:href="#DejaVuSans-18" transform="translate(381.396484 0.78125)"/>
      <use xlink:href="#DejaVuSans-8" transform="translate(445.019531 0.78125)"/>
     </g>
    </g>
   </g>
  </g>
 </g>
 <defs>
  <clipPath id="p42663eeba4">
   <rect x="53.692188" y="24.48" width="361.367273" height="153.742876"/>
  </clipPath>
 </defs>
</svg>
