<?xml version="1.0" encoding="utf-8" standalone="no"?>
<!DOCTYPE svg PUBLIC "-//W3C//DTD SVG 1.1//EN"
  "http://www.w3.org/Graphics/SVG/1.1/DTD/svg11.dtd">
<svg xmlns:xlink="http://www.w3.org/1999/xlink" width="644.721301pt" height="220.993551pt" viewBox="0 0 644.721301 220.993551" xmlns="http://www.w3.org/2000/svg" version="1.1">
 <metadata>
  <rdf:RDF xmlns:dc="http://purl.org/dc/elements/1.1/" xmlns:cc="http://creativecommons.org/ns#" xmlns:rdf="http://www.w3.org/1999/02/22-rdf-syntax-ns#">
   <cc:Work>
    <dc:type rdf:resource="http://purl.org/dc/dcmitype/StillImage"/>
    <dc:date>2026-06-19T18:04:40.998395</dc:date>
    <dc:format>image/svg+xml</dc:format>
    <dc:creator>
     <cc:Agent>
      <dc:title>Matplotlib v3.11.0, https://matplotlib.org/</dc:title>
     </cc:Agent>
    </dc:creator>
   </cc:Work>
  </rdf:RDF>
 </metadata>
 <defs>
  <style type="text/css">*{stroke-linejoin: round; stroke-linecap: butt}</style>
 </defs>
 <g id="figure_1">
  <g id="patch_1">
   <path d="M 0 220.993551 
L 644.721301 220.993551 
L 644.721301 0 
L 0 0 
z
" style="fill: #0b0d12"/>
  </g>
  <g id="axes_1">
   <g id="patch_2">
    <path d="M 60.693516 180.793551 
L 317.008484 180.793551 
L 317.008484 22.317187 
L 60.693516 22.317187 
z
" style="fill: #13151b"/>
   </g>
   <g id="patch_3">
    <path d="M 72.344196 180.793551 
L 98.234597 180.793551 
L 98.234597 177.112335 
L 72.344196 177.112335 
z
" clip-path="url(#p0423ee4f1a)" style="fill: #22c55e; opacity: 0.75; stroke: #000000; stroke-width: 0.5; stroke-linejoin: miter"/>
   </g>
   <g id="patch_4">
    <path d="M 98.234597 180.793551 
L 124.124998 180.793551 
L 124.124998 155.025037 
L 98.234597 155.025037 
z
" clip-path="url(#p0423ee4f1a)" style="fill: #22c55e; opacity: 0.75; stroke: #000000; stroke-width: 0.5; stroke-linejoin: miter"/>
   </g>
   <g id="patch_5">
    <path d="M 124.124998 180.793551 
L 150.015398 180.793551 
L 150.015398 125.575306 
L 124.124998 125.575306 
z
" clip-path="url(#p0423ee4f1a)" style="fill: #22c55e; opacity: 0.75; stroke: #000000; stroke-width: 0.5; stroke-linejoin: miter"/>
   </g>
   <g id="patch_6">
    <path d="M 150.015398 180.793551 
L 175.905799 180.793551 
L 175.905799 81.40071 
L 150.015398 81.40071 
z
" clip-path="url(#p0423ee4f1a)" style="fill: #22c55e; opacity: 0.75; stroke: #000000; stroke-width: 0.5; stroke-linejoin: miter"/>
   </g>
   <g id="patch_7">
    <path d="M 175.905799 180.793551 
L 201.7962 180.793551 
L 201.7962 29.863681 
L 175.905799 29.863681 
z
" clip-path="url(#p0423ee4f1a)" style="fill: #22c55e; opacity: 0.75; stroke: #000000; stroke-width: 0.5; stroke-linejoin: miter"/>
   </g>
   <g id="patch_8">
    <path d="M 201.7962 180.793551 
L 227.686601 180.793551 
L 227.686601 114.531657 
L 201.7962 114.531657 
z
" clip-path="url(#p0423ee4f1a)" style="fill: #22c55e; opacity: 0.75; stroke: #000000; stroke-width: 0.5; stroke-linejoin: miter"/>
   </g>
   <g id="patch_9">
    <path d="M 227.686601 180.793551 
L 253.577002 180.793551 
L 253.577002 147.662604 
L 227.686601 147.662604 
z
" clip-path="url(#p0423ee4f1a)" style="fill: #22c55e; opacity: 0.75; stroke: #000000; stroke-width: 0.5; stroke-linejoin: miter"/>
   </g>
   <g id="patch_10">
    <path d="M 253.577002 180.793551 
L 279.467403 180.793551 
L 279.467403 177.112335 
L 253.577002 177.112335 
z
" clip-path="url(#p0423ee4f1a)" style="fill: #22c55e; opacity: 0.75; stroke: #000000; stroke-width: 0.5; stroke-linejoin: miter"/>
   </g>
   <g id="patch_11">
    <path d="M 279.467403 180.793551 
L 305.357803 180.793551 
L 305.357803 177.112335 
L 279.467403 177.112335 
z
" clip-path="url(#p0423ee4f1a)" style="fill: #22c55e; opacity: 0.75; stroke: #000000; stroke-width: 0.5; stroke-linejoin: miter"/>
   </g>
   <g id="matplotlib.axis_1">
    <g id="xtick_1">
     <g id="line2d_1">
      <path d="M 83.394621 180.793551 
L 83.394621 22.317187 
" clip-path="url(#p0423ee4f1a)" style="fill: none; stroke: #262a33; stroke-opacity: 0.5; stroke-width: 0.8; stroke-linecap: square"/>
     </g>
     <g id="line2d_2">
      <defs>
       <path id="m9a4a517db6" d="M 0 0 
L 0 3.5 
" style="stroke: #7a8499; stroke-width: 0.8"/>
      </defs>
      <g>
       <use xlink:href="#m9a4a517db6" x="83.394621" y="180.793551" style="fill: #7a8499; stroke: #7a8499; stroke-width: 0.8"/>
      </g>
     </g>
     <g id="text_1">
      <!-- 5 -->
      <g style="fill: #7a8499" transform="translate(79.895246 196.150973) scale(0.11 -0.11)">
       <defs>
        <path id="DejaVuSans-18" d="M 691 4666 
L 3169 4666 
L 3169 4134 
L 1269 4134 
L 1269 2991 
Q 1406 3038 1543 3061 
Q 1681 3084 1819 3084 
Q 2600 3084 3056 2656 
Q 3513 2228 3513 1497 
Q 3513 744 3044 326 
Q 2575 -91 1722 -91 
Q 1428 -91 1123 -41 
Q 819 9 494 109 
L 494 744 
Q 775 591 1075 516 
Q 1375 441 1709 441 
Q 2250 441 2565 725 
Q 2881 1009 2881 1497 
Q 2881 1984 2565 2268 
Q 2250 2553 1709 2553 
Q 1456 2553 1204 2497 
Q 953 2441 691 2322 
L 691 4666 
z
" transform="scale(0.015625)"/>
       </defs>
       <use xlink:href="#DejaVuSans-18"/>
      </g>
     </g>
    </g>
    <g id="xtick_2">
     <g id="line2d_3">
      <path d="M 135.175423 180.793551 
L 135.175423 22.317187 
" clip-path="url(#p0423ee4f1a)" style="fill: none; stroke: #262a33; stroke-opacity: 0.5; stroke-width: 0.8; stroke-linecap: square"/>
     </g>
     <g id="line2d_4">
      <g>
       <use xlink:href="#m9a4a517db6" x="135.175423" y="180.793551" style="fill: #7a8499; stroke: #7a8499; stroke-width: 0.8"/>
      </g>
     </g>
     <g id="text_2">
      <!-- 10 -->
      <g style="fill: #7a8499" transform="translate(128.176673 196.150973) scale(0.11 -0.11)">
       <defs>
        <path id="DejaVuSans-14" d="M 794 531 
L 1825 531 
L 1825 4091 
L 703 3866 
L 703 4441 
L 1819 4666 
L 2450 4666 
L 2450 531 
L 3481 531 
L 3481 0 
L 794 0 
L 794 531 
z
" transform="scale(0.015625)"/>
        <path id="DejaVuSans-13" d="M 2034 4250 
Q 1547 4250 1301 3770 
Q 1056 3291 1056 2328 
Q 1056 1369 1301 889 
Q 1547 409 2034 409 
Q 2525 409 2770 889 
Q 3016 1369 3016 2328 
Q 3016 3291 2770 3770 
Q 2525 4250 2034 4250 
z
M 2034 4750 
Q 2819 4750 3233 4129 
Q 3647 3509 3647 2328 
Q 3647 1150 3233 529 
Q 2819 -91 2034 -91 
Q 1250 -91 836 529 
Q 422 1150 422 2328 
Q 422 3509 836 4129 
Q 1250 4750 2034 4750 
z
" transform="scale(0.015625)"/>
       </defs>
       <use xlink:href="#DejaVuSans-14"/>
       <use xlink:href="#DejaVuSans-13" transform="translate(63.625 0)"/>
      </g>
     </g>
    </g>
    <g id="xtick_3">
     <g id="line2d_5">
      <path d="M 186.956225 180.793551 
L 186.956225 22.317187 
" clip-path="url(#p0423ee4f1a)" style="fill: none; stroke: #262a33; stroke-opacity: 0.5; stroke-width: 0.8; stroke-linecap: square"/>
     </g>
     <g id="line2d_6">
      <g>
       <use xlink:href="#m9a4a517db6" x="186.956225" y="180.793551" style="fill: #7a8499; stroke: #7a8499; stroke-width: 0.8"/>
      </g>
     </g>
     <g id="text_3">
      <!-- 15 -->
      <g style="fill: #7a8499" transform="translate(179.957475 196.150973) scale(0.11 -0.11)">
       <use xlink:href="#DejaVuSans-14"/>
       <use xlink:href="#DejaVuSans-18" transform="translate(63.625 0)"/>
      </g>
     </g>
    </g>
    <g id="xtick_4">
     <g id="line2d_7">
      <path d="M 238.737026 180.793551 
L 238.737026 22.317187 
" clip-path="url(#p0423ee4f1a)" style="fill: none; stroke: #262a33; stroke-opacity: 0.5; stroke-width: 0.8; stroke-linecap: square"/>
     </g>
     <g id="line2d_8">
      <g>
       <use xlink:href="#m9a4a517db6" x="238.737026" y="180.793551" style="fill: #7a8499; stroke: #7a8499; stroke-width: 0.8"/>
      </g>
     </g>
     <g id="text_4">
      <!-- 20 -->
      <g style="fill: #7a8499" transform="translate(231.738276 196.150973) scale(0.11 -0.11)">
       <defs>
        <path id="DejaVuSans-15" d="M 1228 531 
L 3431 531 
L 3431 0 
L 469 0 
L 469 531 
Q 828 903 1448 1529 
Q 2069 2156 2228 2338 
Q 2531 2678 2651 2914 
Q 2772 3150 2772 3378 
Q 2772 3750 2511 3984 
Q 2250 4219 1831 4219 
Q 1534 4219 1204 4116 
Q 875 4013 500 3803 
L 500 4441 
Q 881 4594 1212 4672 
Q 1544 4750 1819 4750 
Q 2544 4750 2975 4387 
Q 3406 4025 3406 3419 
Q 3406 3131 3298 2873 
Q 3191 2616 2906 2266 
Q 2828 2175 2409 1742 
Q 1991 1309 1228 531 
z
" transform="scale(0.015625)"/>
       </defs>
       <use xlink:href="#DejaVuSans-15"/>
       <use xlink:href="#DejaVuSans-13" transform="translate(63.625 0)"/>
      </g>
     </g>
    </g>
    <g id="xtick_5">
     <g id="line2d_9">
      <path d="M 290.517828 180.793551 
L 290.517828 22.317187 
" clip-path="url(#p0423ee4f1a)" style="fill: none; stroke: #262a33; stroke-opacity: 0.5; stroke-width: 0.8; stroke-linecap: square"/>
     </g>
     <g id="line2d_10">
      <g>
       <use xlink:href="#m9a4a517db6" x="290.517828" y="180.793551" style="fill: #7a8499; stroke: #7a8499; stroke-width: 0.8"/>
      </g>
     </g>
     <g id="text_5">
      <!-- 25 -->
      <g style="fill: #7a8499" transform="translate(283.519078 196.150973) scale(0.11 -0.11)">
       <use xlink:href="#DejaVuSans-15"/>
       <use xlink:href="#DejaVuSans-18" transform="translate(63.625 0)"/>
      </g>
     </g>
    </g>
    <g id="text_6">
     <!-- $x$ -->
     <g style="fill: #c9d1e0" transform="translate(185.551 211.150973) scale(0.11 -0.11)">
      <defs>
       <path id="DejaVuSans-Oblique-5b" d="M 3841 3500 
L 2234 1784 
L 3219 0 
L 2559 0 
L 1819 1388 
L 531 0 
L -166 0 
L 1556 1844 
L 641 3500 
L 1300 3500 
L 1972 2234 
L 3144 3500 
L 3841 3500 
z
" transform="scale(0.015625)"/>
      </defs>
      <use xlink:href="#DejaVuSans-Oblique-5b" transform="translate(0 0.3125)"/>
     </g>
    </g>
   </g>
   <g id="matplotlib.axis_2">
    <g id="ytick_1">
     <g id="line2d_11">
      <path d="M 60.693516 180.793551 
L 317.008484 180.793551 
" clip-path="url(#p0423ee4f1a)" style="fill: none; stroke: #262a33; stroke-opacity: 0.5; stroke-width: 0.8; stroke-linecap: square"/>
     </g>
     <g id="line2d_12">
      <defs>
       <path id="m319a3ecbb9" d="M 0 0 
L -3.5 0 
" style="stroke: #7a8499; stroke-width: 0.8"/>
      </defs>
      <g>
       <use xlink:href="#m319a3ecbb9" x="60.693516" y="180.793551" style="fill: #7a8499; stroke: #7a8499; stroke-width: 0.8"/>
      </g>
     </g>
     <g id="text_7">
      <!-- 0.000 -->
      <g style="fill: #7a8499" transform="translate(22.202578 184.972262) scale(0.11 -0.11)">
       <defs>
        <path id="DejaVuSans-11" d="M 684 794 
L 1344 794 
L 1344 0 
L 684 0 
L 684 794 
z
" transform="scale(0.015625)"/>
       </defs>
       <use xlink:href="#DejaVuSans-13"/>
       <use xlink:href="#DejaVuSans-11" transform="translate(63.625 0)"/>
       <use xlink:href="#DejaVuSans-13" transform="translate(95.40625 0)"/>
       <use xlink:href="#DejaVuSans-13" transform="translate(159.03125 0)"/>
       <use xlink:href="#DejaVuSans-13" transform="translate(222.65625 0)"/>
      </g>
     </g>
    </g>
    <g id="ytick_2">
     <g id="line2d_13">
      <path d="M 60.693516 153.184429 
L 317.008484 153.184429 
" clip-path="url(#p0423ee4f1a)" style="fill: none; stroke: #262a33; stroke-opacity: 0.5; stroke-width: 0.8; stroke-linecap: square"/>
     </g>
     <g id="line2d_14">
      <g>
       <use xlink:href="#m319a3ecbb9" x="60.693516" y="153.184429" style="fill: #7a8499; stroke: #7a8499; stroke-width: 0.8"/>
      </g>
     </g>
     <g id="text_8">
      <!-- 0.025 -->
      <g style="fill: #7a8499" transform="translate(22.202578 157.363139) scale(0.11 -0.11)">
       <use xlink:href="#DejaVuSans-13"/>
       <use xlink:href="#DejaVuSans-11" transform="translate(63.625 0)"/>
       <use xlink:href="#DejaVuSans-13" transform="translate(95.40625 0)"/>
       <use xlink:href="#DejaVuSans-15" transform="translate(159.03125 0)"/>
       <use xlink:href="#DejaVuSans-18" transform="translate(222.65625 0)"/>
      </g>
     </g>
    </g>
    <g id="ytick_3">
     <g id="line2d_15">
      <path d="M 60.693516 125.575306 
L 317.008484 125.575306 
" clip-path="url(#p0423ee4f1a)" style="fill: none; stroke: #262a33; stroke-opacity: 0.5; stroke-width: 0.8; stroke-linecap: square"/>
     </g>
     <g id="line2d_16">
      <g>
       <use xlink:href="#m319a3ecbb9" x="60.693516" y="125.575306" style="fill: #7a8499; stroke: #7a8499; stroke-width: 0.8"/>
      </g>
     </g>
     <g id="text_9">
      <!-- 0.050 -->
      <g style="fill: #7a8499" transform="translate(22.202578 129.754017) scale(0.11 -0.11)">
       <use xlink:href="#DejaVuSans-13"/>
       <use xlink:href="#DejaVuSans-11" transform="translate(63.625 0)"/>
       <use xlink:href="#DejaVuSans-13" transform="translate(95.40625 0)"/>
       <use xlink:href="#DejaVuSans-18" transform="translate(159.03125 0)"/>
       <use xlink:href="#DejaVuSans-13" transform="translate(222.65625 0)"/>
      </g>
     </g>
    </g>
    <g id="ytick_4">
     <g id="line2d_17">
      <path d="M 60.693516 97.966183 
L 317.008484 97.966183 
" clip-path="url(#p0423ee4f1a)" style="fill: none; stroke: #262a33; stroke-opacity: 0.5; stroke-width: 0.8; stroke-linecap: square"/>
     </g>
     <g id="line2d_18">
      <g>
       <use xlink:href="#m319a3ecbb9" x="60.693516" y="97.966183" style="fill: #7a8499; stroke: #7a8499; stroke-width: 0.8"/>
      </g>
     </g>
     <g id="text_10">
      <!-- 0.075 -->
      <g style="fill: #7a8499" transform="translate(22.202578 102.144894) scale(0.11 -0.11)">
       <defs>
        <path id="DejaVuSans-1a" d="M 525 4666 
L 3525 4666 
L 3525 4397 
L 1831 0 
L 1172 0 
L 2766 4134 
L 525 4134 
L 525 4666 
z
" transform="scale(0.015625)"/>
       </defs>
       <use xlink:href="#DejaVuSans-13"/>
       <use xlink:href="#DejaVuSans-11" transform="translate(63.625 0)"/>
       <use xlink:href="#DejaVuSans-13" transform="translate(95.40625 0)"/>
       <use xlink:href="#DejaVuSans-1a" transform="translate(159.03125 0)"/>
       <use xlink:href="#DejaVuSans-18" transform="translate(222.65625 0)"/>
      </g>
     </g>
    </g>
    <g id="ytick_5">
     <g id="line2d_19">
      <path d="M 60.693516 70.357061 
L 317.008484 70.357061 
" clip-path="url(#p0423ee4f1a)" style="fill: none; stroke: #262a33; stroke-opacity: 0.5; stroke-width: 0.8; stroke-linecap: square"/>
     </g>
     <g id="line2d_20">
      <g>
       <use xlink:href="#m319a3ecbb9" x="60.693516" y="70.357061" style="fill: #7a8499; stroke: #7a8499; stroke-width: 0.8"/>
      </g>
     </g>
     <g id="text_11">
      <!-- 0.100 -->
      <g style="fill: #7a8499" transform="translate(22.202578 74.535772) scale(0.11 -0.11)">
       <use xlink:href="#DejaVuSans-13"/>
       <use xlink:href="#DejaVuSans-11" transform="translate(63.625 0)"/>
       <use xlink:href="#DejaVuSans-14" transform="translate(95.40625 0)"/>
       <use xlink:href="#DejaVuSans-13" transform="translate(159.03125 0)"/>
       <use xlink:href="#DejaVuSans-13" transform="translate(222.65625 0)"/>
      </g>
     </g>
    </g>
    <g id="ytick_6">
     <g id="line2d_21">
      <path d="M 60.693516 42.747938 
L 317.008484 42.747938 
" clip-path="url(#p0423ee4f1a)" style="fill: none; stroke: #262a33; stroke-opacity: 0.5; stroke-width: 0.8; stroke-linecap: square"/>
     </g>
     <g id="line2d_22">
      <g>
       <use xlink:href="#m319a3ecbb9" x="60.693516" y="42.747938" style="fill: #7a8499; stroke: #7a8499; stroke-width: 0.8"/>
      </g>
     </g>
     <g id="text_12">
      <!-- 0.125 -->
      <g style="fill: #7a8499" transform="translate(22.202578 46.926649) scale(0.11 -0.11)">
       <use xlink:href="#DejaVuSans-13"/>
       <use xlink:href="#DejaVuSans-11" transform="translate(63.625 0)"/>
       <use xlink:href="#DejaVuSans-14" transform="translate(95.40625 0)"/>
       <use xlink:href="#DejaVuSans-15" transform="translate(159.03125 0)"/>
       <use xlink:href="#DejaVuSans-18" transform="translate(222.65625 0)"/>
      </g>
     </g>
    </g>
    <g id="text_13">
     <!-- $h_i = w_i/\Delta$ -->
     <g style="fill: #c9d1e0" transform="translate(15.56 124.380369) rotate(-90) scale(0.11 -0.11)">
      <defs>
       <path id="DejaVuSans-Oblique-4b" d="M 3566 2113 
L 3156 0 
L 2578 0 
L 2988 2091 
Q 3016 2238 3031 2350 
Q 3047 2463 3047 2528 
Q 3047 2791 2881 2937 
Q 2716 3084 2419 3084 
Q 1956 3084 1617 2771 
Q 1278 2459 1178 1941 
L 800 0 
L 225 0 
L 1172 4863 
L 1747 4863 
L 1375 2950 
Q 1594 3244 1934 3414 
Q 2275 3584 2650 3584 
Q 3113 3584 3367 3334 
Q 3622 3084 3622 2631 
Q 3622 2519 3608 2391 
Q 3594 2263 3566 2113 
z
" transform="scale(0.015625)"/>
       <path id="DejaVuSans-Oblique-4c" d="M 1172 4863 
L 1747 4863 
L 1606 4134 
L 1031 4134 
L 1172 4863 
z
M 909 3500 
L 1484 3500 
L 800 0 
L 225 0 
L 909 3500 
z
" transform="scale(0.015625)"/>
       <path id="DejaVuSans-20" d="M 678 2906 
L 4684 2906 
L 4684 2381 
L 678 2381 
L 678 2906 
z
M 678 1631 
L 4684 1631 
L 4684 1100 
L 678 1100 
L 678 1631 
z
" transform="scale(0.015625)"/>
       <path id="DejaVuSans-Oblique-5a" d="M 544 3500 
L 1113 3500 
L 1259 684 
L 2566 3500 
L 3231 3500 
L 3425 684 
L 4666 3500 
L 5241 3500 
L 3641 0 
L 2969 0 
L 2797 2900 
L 1459 0 
L 781 0 
L 544 3500 
z
" transform="scale(0.015625)"/>
       <path id="DejaVuSans-12" d="M 1625 4666 
L 2156 4666 
L 531 -594 
L 0 -594 
L 1625 4666 
z
" transform="scale(0.015625)"/>
       <path id="DejaVuSans-329" d="M 2188 4044 
L 906 525 
L 3472 525 
L 2188 4044 
z
M 50 0 
L 1831 4666 
L 2547 4666 
L 4325 0 
L 50 0 
z
" transform="scale(0.015625)"/>
      </defs>
      <use xlink:href="#DejaVuSans-Oblique-4b" transform="translate(0 0.015625)"/>
      <use xlink:href="#DejaVuSans-Oblique-4c" transform="translate(63.378906 -14.984326) scale(0.7)"/>
      <use xlink:href="#DejaVuSans-20" transform="translate(105.043945 0.015625)"/>
      <use xlink:href="#DejaVuSans-Oblique-5a" transform="translate(208.31543 0.015625)"/>
      <use xlink:href="#DejaVuSans-Oblique-4c" transform="translate(290.102539 -14.984326) scale(0.7)"/>
      <use xlink:href="#DejaVuSans-12" transform="translate(312.285156 0.015625)"/>
      <use xlink:href="#DejaVuSans-329" transform="translate(345.976562 0.015625)"/>
     </g>
    </g>
   </g>
   <g id="patch_12">
    <path d="M 60.693516 180.793551 
L 60.693516 22.317187 
" style="fill: none; stroke: #262a33; stroke-width: 0.8; stroke-linejoin: miter; stroke-linecap: square"/>
   </g>
   <g id="patch_13">
    <path d="M 317.008484 180.793551 
L 317.008484 22.317187 
" style="fill: none; stroke: #262a33; stroke-width: 0.8; stroke-linejoin: miter; stroke-linecap: square"/>
   </g>
   <g id="patch_14">
    <path d="M 60.693516 180.793551 
L 317.008484 180.793551 
" style="fill: none; stroke: #262a33; stroke-width: 0.8; stroke-linejoin: miter; stroke-linecap: square"/>
   </g>
   <g id="patch_15">
    <path d="M 60.693516 22.317187 
L 317.008484 22.317187 
" style="fill: none; stroke: #262a33; stroke-width: 0.8; stroke-linejoin: miter; stroke-linecap: square"/>
   </g>
   <g id="text_14">
    <!-- Гистограмма, $\Delta=2.5$ -->
    <g style="fill: #c9d1e0" transform="translate(122.611 16.317188) scale(0.12 -0.12)">
     <defs>
      <path id="DejaVuSans-3a7" d="M 628 0 
L 628 4666 
L 3531 4666 
L 3531 4134 
L 1259 4134 
L 1259 0 
L 628 0 
z
" transform="scale(0.015625)"/>
      <path id="DejaVuSans-3cc" d="M 3578 3500 
L 3578 0 
L 3006 0 
L 3006 2809 
L 1319 0 
L 581 0 
L 581 3500 
L 1153 3500 
L 1153 697 
L 2838 3500 
L 3578 3500 
z
" transform="scale(0.015625)"/>
      <path id="DejaVuSans-3d5" d="M 3122 3366 
L 3122 2828 
Q 2878 2963 2633 3030 
Q 2388 3097 2138 3097 
Q 1578 3097 1268 2742 
Q 959 2388 959 1747 
Q 959 1106 1268 751 
Q 1578 397 2138 397 
Q 2388 397 2633 464 
Q 2878 531 3122 666 
L 3122 134 
Q 2881 22 2623 -34 
Q 2366 -91 2075 -91 
Q 1284 -91 818 406 
Q 353 903 353 1747 
Q 353 2603 823 3093 
Q 1294 3584 2113 3584 
Q 2378 3584 2631 3529 
Q 2884 3475 3122 3366 
z
" transform="scale(0.015625)"/>
      <path id="DejaVuSans-3d6" d="M 188 3500 
L 3541 3500 
L 3541 3041 
L 2147 3041 
L 2147 0 
L 1581 0 
L 1581 3041 
L 188 3041 
L 188 3500 
z
" transform="scale(0.015625)"/>
      <path id="DejaVuSans-3d2" d="M 1959 3097 
Q 1497 3097 1228 2736 
Q 959 2375 959 1747 
Q 959 1119 1226 758 
Q 1494 397 1959 397 
Q 2419 397 2687 759 
Q 2956 1122 2956 1747 
Q 2956 2369 2687 2733 
Q 2419 3097 1959 3097 
z
M 1959 3584 
Q 2709 3584 3137 3096 
Q 3566 2609 3566 1747 
Q 3566 888 3137 398 
Q 2709 -91 1959 -91 
Q 1206 -91 779 398 
Q 353 888 353 1747 
Q 353 2609 779 3096 
Q 1206 3584 1959 3584 
z
" transform="scale(0.015625)"/>
      <path id="DejaVuSans-3c7" d="M 581 0 
L 581 3500 
L 3050 3500 
L 3050 3041 
L 1159 3041 
L 1159 0 
L 581 0 
z
" transform="scale(0.015625)"/>
      <path id="DejaVuSans-3d4" d="M 1159 525 
L 1159 -1331 
L 581 -1331 
L 581 3500 
L 1159 3500 
L 1159 2969 
Q 1341 3281 1617 3432 
Q 1894 3584 2278 3584 
Q 2916 3584 3314 3078 
Q 3713 2572 3713 1747 
Q 3713 922 3314 415 
Q 2916 -91 2278 -91 
Q 1894 -91 1617 61 
Q 1341 213 1159 525 
z
M 3116 1747 
Q 3116 2381 2855 2742 
Q 2594 3103 2138 3103 
Q 1681 3103 1420 2742 
Q 1159 2381 1159 1747 
Q 1159 1113 1420 752 
Q 1681 391 2138 391 
Q 2594 391 2855 752 
Q 3116 1113 3116 1747 
z
" transform="scale(0.015625)"/>
      <path id="DejaVuSans-3c4" d="M 2194 1759 
Q 1497 1759 1228 1600 
Q 959 1441 959 1056 
Q 959 750 1161 570 
Q 1363 391 1709 391 
Q 2188 391 2477 730 
Q 2766 1069 2766 1631 
L 2766 1759 
L 2194 1759 
z
M 3341 1997 
L 3341 0 
L 2766 0 
L 2766 531 
Q 2569 213 2275 61 
Q 1981 -91 1556 -91 
Q 1019 -91 701 211 
Q 384 513 384 1019 
Q 384 1609 779 1909 
Q 1175 2209 1959 2209 
L 2766 2209 
L 2766 2266 
Q 2766 2663 2505 2880 
Q 2244 3097 1772 3097 
Q 1472 3097 1187 3025 
Q 903 2953 641 2809 
L 641 3341 
Q 956 3463 1253 3523 
Q 1550 3584 1831 3584 
Q 2591 3584 2966 3190 
Q 3341 2797 3341 1997 
z
" transform="scale(0.015625)"/>
      <path id="DejaVuSans-3d0" d="M 581 3500 
L 1422 3500 
L 2416 1156 
L 3413 3500 
L 4247 3500 
L 4247 0 
L 3669 0 
L 3669 2950 
L 2703 672 
L 2128 672 
L 1159 2950 
L 1159 0 
L 581 0 
L 581 3500 
z
" transform="scale(0.015625)"/>
      <path id="DejaVuSans-f" d="M 750 794 
L 1409 794 
L 1409 256 
L 897 -744 
L 494 -744 
L 750 256 
L 750 794 
z
" transform="scale(0.015625)"/>
      <path id="DejaVuSans-3" transform="scale(0.015625)"/>
     </defs>
     <use xlink:href="#DejaVuSans-3a7" transform="translate(0 0.78125)"/>
     <use xlink:href="#DejaVuSans-3cc" transform="translate(60.986328 0.78125)"/>
     <use xlink:href="#DejaVuSans-3d5" transform="translate(125.976562 0.78125)"/>
     <use xlink:href="#DejaVuSans-3d6" transform="translate(180.957031 0.78125)"/>
     <use xlink:href="#DejaVuSans-3d2" transform="translate(239.208984 0.78125)"/>
     <use xlink:href="#DejaVuSans-3c7" transform="translate(300.390625 0.78125)"/>
     <use xlink:href="#DejaVuSans-3d4" transform="translate(352.929688 0.78125)"/>
     <use xlink:href="#DejaVuSans-3c4" transform="translate(416.40625 0.78125)"/>
     <use xlink:href="#DejaVuSans-3d0" transform="translate(477.685547 0.78125)"/>
     <use xlink:href="#DejaVuSans-3d0" transform="translate(553.125 0.78125)"/>
     <use xlink:href="#DejaVuSans-3c4" transform="translate(628.564453 0.78125)"/>
     <use xlink:href="#DejaVuSans-f" transform="translate(689.84375 0.78125)"/>
     <use xlink:href="#DejaVuSans-3" transform="translate(721.630859 0.78125)"/>
     <use xlink:href="#DejaVuSans-329" transform="translate(753.417969 0.78125)"/>
     <use xlink:href="#DejaVuSans-20" transform="translate(841.308594 0.78125)"/>
     <use xlink:href="#DejaVuSans-15" transform="translate(944.580078 0.78125)"/>
     <use xlink:href="#DejaVuSans-11" transform="translate(1008.203125 0.78125)"/>
     <use xlink:href="#DejaVuSans-18" transform="translate(1039.990234 0.78125)"/>
    </g>
   </g>
  </g>
  <g id="axes_2">
   <g id="patch_16">
    <path d="M 375.91288 180.793551 
L 632.227848 180.793551 
L 632.227848 22.317187 
L 375.91288 22.317187 
z
" style="fill: #13151b"/>
   </g>
   <g id="patch_17">
    <path d="M 387.56356 180.793551 
L 434.166282 180.793551 
L 434.166282 160.328484 
L 387.56356 160.328484 
z
" clip-path="url(#p0579dfb27a)" style="fill: #3b82f6; opacity: 0.75; stroke: #000000; stroke-width: 0.5; stroke-linejoin: miter"/>
   </g>
   <g id="patch_18">
    <path d="M 434.166282 180.793551 
L 480.769003 180.793551 
L 480.769003 73.351949 
L 434.166282 73.351949 
z
" clip-path="url(#p0579dfb27a)" style="fill: #3b82f6; opacity: 0.75; stroke: #000000; stroke-width: 0.5; stroke-linejoin: miter"/>
   </g>
   <g id="patch_19">
    <path d="M 480.769003 180.793551 
L 527.371725 180.793551 
L 527.371725 29.863681 
L 480.769003 29.863681 
z
" clip-path="url(#p0579dfb27a)" style="fill: #3b82f6; opacity: 0.75; stroke: #000000; stroke-width: 0.5; stroke-linejoin: miter"/>
   </g>
   <g id="patch_20">
    <path d="M 527.371725 180.793551 
L 573.974446 180.793551 
L 573.974446 155.212217 
L 527.371725 155.212217 
z
" clip-path="url(#p0579dfb27a)" style="fill: #3b82f6; opacity: 0.75; stroke: #000000; stroke-width: 0.5; stroke-linejoin: miter"/>
   </g>
   <g id="patch_21">
    <path d="M 573.974446 180.793551 
L 620.577168 180.793551 
L 620.577168 178.235418 
L 573.974446 178.235418 
z
" clip-path="url(#p0579dfb27a)" style="fill: #3b82f6; opacity: 0.75; stroke: #000000; stroke-width: 0.5; stroke-linejoin: miter"/>
   </g>
   <g id="matplotlib.axis_3">
    <g id="xtick_6">
     <g id="line2d_23">
      <path d="M 397.508943 180.793551 
L 397.508943 22.317187 
" clip-path="url(#p0579dfb27a)" style="fill: none; stroke: #262a33; stroke-opacity: 0.5; stroke-width: 0.8; stroke-linecap: square"/>
     </g>
     <g id="line2d_24">
      <g>
       <use xlink:href="#m9a4a517db6" x="397.508943" y="180.793551" style="fill: #7a8499; stroke: #7a8499; stroke-width: 0.8"/>
      </g>
     </g>
     <g id="text_15">
      <!-- 5 -->
      <g style="fill: #7a8499" transform="translate(394.009568 196.150973) scale(0.11 -0.11)">
       <use xlink:href="#DejaVuSans-18"/>
      </g>
     </g>
    </g>
    <g id="xtick_7">
     <g id="line2d_25">
      <path d="M 444.111665 180.793551 
L 444.111665 22.317187 
" clip-path="url(#p0579dfb27a)" style="fill: none; stroke: #262a33; stroke-opacity: 0.5; stroke-width: 0.8; stroke-linecap: square"/>
     </g>
     <g id="line2d_26">
      <g>
       <use xlink:href="#m9a4a517db6" x="444.111665" y="180.793551" style="fill: #7a8499; stroke: #7a8499; stroke-width: 0.8"/>
      </g>
     </g>
     <g id="text_16">
      <!-- 10 -->
      <g style="fill: #7a8499" transform="translate(437.112915 196.150973) scale(0.11 -0.11)">
       <use xlink:href="#DejaVuSans-14"/>
       <use xlink:href="#DejaVuSans-13" transform="translate(63.625 0)"/>
      </g>
     </g>
    </g>
    <g id="xtick_8">
     <g id="line2d_27">
      <path d="M 490.714386 180.793551 
L 490.714386 22.317187 
" clip-path="url(#p0579dfb27a)" style="fill: none; stroke: #262a33; stroke-opacity: 0.5; stroke-width: 0.8; stroke-linecap: square"/>
     </g>
     <g id="line2d_28">
      <g>
       <use xlink:href="#m9a4a517db6" x="490.714386" y="180.793551" style="fill: #7a8499; stroke: #7a8499; stroke-width: 0.8"/>
      </g>
     </g>
     <g id="text_17">
      <!-- 15 -->
      <g style="fill: #7a8499" transform="translate(483.715636 196.150973) scale(0.11 -0.11)">
       <use xlink:href="#DejaVuSans-14"/>
       <use xlink:href="#DejaVuSans-18" transform="translate(63.625 0)"/>
      </g>
     </g>
    </g>
    <g id="xtick_9">
     <g id="line2d_29">
      <path d="M 537.317108 180.793551 
L 537.317108 22.317187 
" clip-path="url(#p0579dfb27a)" style="fill: none; stroke: #262a33; stroke-opacity: 0.5; stroke-width: 0.8; stroke-linecap: square"/>
     </g>
     <g id="line2d_30">
      <g>
       <use xlink:href="#m9a4a517db6" x="537.317108" y="180.793551" style="fill: #7a8499; stroke: #7a8499; stroke-width: 0.8"/>
      </g>
     </g>
     <g id="text_18">
      <!-- 20 -->
      <g style="fill: #7a8499" transform="translate(530.318358 196.150973) scale(0.11 -0.11)">
       <use xlink:href="#DejaVuSans-15"/>
       <use xlink:href="#DejaVuSans-13" transform="translate(63.625 0)"/>
      </g>
     </g>
    </g>
    <g id="xtick_10">
     <g id="line2d_31">
      <path d="M 583.919829 180.793551 
L 583.919829 22.317187 
" clip-path="url(#p0579dfb27a)" style="fill: none; stroke: #262a33; stroke-opacity: 0.5; stroke-width: 0.8; stroke-linecap: square"/>
     </g>
     <g id="line2d_32">
      <g>
       <use xlink:href="#m9a4a517db6" x="583.919829" y="180.793551" style="fill: #7a8499; stroke: #7a8499; stroke-width: 0.8"/>
      </g>
     </g>
     <g id="text_19">
      <!-- 25 -->
      <g style="fill: #7a8499" transform="translate(576.921079 196.150973) scale(0.11 -0.11)">
       <use xlink:href="#DejaVuSans-15"/>
       <use xlink:href="#DejaVuSans-18" transform="translate(63.625 0)"/>
      </g>
     </g>
    </g>
    <g id="xtick_11">
     <g id="line2d_33">
      <path d="M 630.522551 180.793551 
L 630.522551 22.317187 
" clip-path="url(#p0579dfb27a)" style="fill: none; stroke: #262a33; stroke-opacity: 0.5; stroke-width: 0.8; stroke-linecap: square"/>
     </g>
     <g id="line2d_34">
      <g>
       <use xlink:href="#m9a4a517db6" x="630.522551" y="180.793551" style="fill: #7a8499; stroke: #7a8499; stroke-width: 0.8"/>
      </g>
     </g>
     <g id="text_20">
      <!-- 30 -->
      <g style="fill: #7a8499" transform="translate(623.523801 196.150973) scale(0.11 -0.11)">
       <defs>
        <path id="DejaVuSans-16" d="M 2597 2516 
Q 3050 2419 3304 2112 
Q 3559 1806 3559 1356 
Q 3559 666 3084 287 
Q 2609 -91 1734 -91 
Q 1441 -91 1130 -33 
Q 819 25 488 141 
L 488 750 
Q 750 597 1062 519 
Q 1375 441 1716 441 
Q 2309 441 2620 675 
Q 2931 909 2931 1356 
Q 2931 1769 2642 2001 
Q 2353 2234 1838 2234 
L 1294 2234 
L 1294 2753 
L 1863 2753 
Q 2328 2753 2575 2939 
Q 2822 3125 2822 3475 
Q 2822 3834 2567 4026 
Q 2313 4219 1838 4219 
Q 1578 4219 1281 4162 
Q 984 4106 628 3988 
L 628 4550 
Q 988 4650 1302 4700 
Q 1616 4750 1894 4750 
Q 2613 4750 3031 4423 
Q 3450 4097 3450 3541 
Q 3450 3153 3228 2886 
Q 3006 2619 2597 2516 
z
" transform="scale(0.015625)"/>
       </defs>
       <use xlink:href="#DejaVuSans-16"/>
       <use xlink:href="#DejaVuSans-13" transform="translate(63.625 0)"/>
      </g>
     </g>
    </g>
    <g id="text_21">
     <!-- $x$ -->
     <g style="fill: #c9d1e0" transform="translate(500.770364 211.150973) scale(0.11 -0.11)">
      <use xlink:href="#DejaVuSans-Oblique-5b" transform="translate(0 0.3125)"/>
     </g>
    </g>
   </g>
   <g id="matplotlib.axis_4">
    <g id="ytick_7">
     <g id="line2d_35">
      <path d="M 375.91288 180.793551 
L 632.227848 180.793551 
" clip-path="url(#p0579dfb27a)" style="fill: none; stroke: #262a33; stroke-opacity: 0.5; stroke-width: 0.8; stroke-linecap: square"/>
     </g>
     <g id="line2d_36">
      <g>
       <use xlink:href="#m319a3ecbb9" x="375.91288" y="180.793551" style="fill: #7a8499; stroke: #7a8499; stroke-width: 0.8"/>
      </g>
     </g>
     <g id="text_22">
      <!-- 0.00 -->
      <g style="fill: #7a8499" transform="translate(344.420693 184.972262) scale(0.11 -0.11)">
       <use xlink:href="#DejaVuSans-13"/>
       <use xlink:href="#DejaVuSans-11" transform="translate(63.625 0)"/>
       <use xlink:href="#DejaVuSans-13" transform="translate(95.40625 0)"/>
       <use xlink:href="#DejaVuSans-13" transform="translate(159.03125 0)"/>
      </g>
     </g>
    </g>
    <g id="ytick_8">
     <g id="line2d_37">
      <path d="M 375.91288 150.09595 
L 632.227848 150.09595 
" clip-path="url(#p0579dfb27a)" style="fill: none; stroke: #262a33; stroke-opacity: 0.5; stroke-width: 0.8; stroke-linecap: square"/>
     </g>
     <g id="line2d_38">
      <g>
       <use xlink:href="#m319a3ecbb9" x="375.91288" y="150.09595" style="fill: #7a8499; stroke: #7a8499; stroke-width: 0.8"/>
      </g>
     </g>
     <g id="text_23">
      <!-- 0.02 -->
      <g style="fill: #7a8499" transform="translate(344.420693 154.274661) scale(0.11 -0.11)">
       <use xlink:href="#DejaVuSans-13"/>
       <use xlink:href="#DejaVuSans-11" transform="translate(63.625 0)"/>
       <use xlink:href="#DejaVuSans-13" transform="translate(95.40625 0)"/>
       <use xlink:href="#DejaVuSans-15" transform="translate(159.03125 0)"/>
      </g>
     </g>
    </g>
    <g id="ytick_9">
     <g id="line2d_39">
      <path d="M 375.91288 119.39835 
L 632.227848 119.39835 
" clip-path="url(#p0579dfb27a)" style="fill: none; stroke: #262a33; stroke-opacity: 0.5; stroke-width: 0.8; stroke-linecap: square"/>
     </g>
     <g id="line2d_40">
      <g>
       <use xlink:href="#m319a3ecbb9" x="375.91288" y="119.39835" style="fill: #7a8499; stroke: #7a8499; stroke-width: 0.8"/>
      </g>
     </g>
     <g id="text_24">
      <!-- 0.04 -->
      <g style="fill: #7a8499" transform="translate(344.420693 123.577061) scale(0.11 -0.11)">
       <defs>
        <path id="DejaVuSans-17" d="M 2419 4116 
L 825 1625 
L 2419 1625 
L 2419 4116 
z
M 2253 4666 
L 3047 4666 
L 3047 1625 
L 3713 1625 
L 3713 1100 
L 3047 1100 
L 3047 0 
L 2419 0 
L 2419 1100 
L 313 1100 
L 313 1709 
L 2253 4666 
z
" transform="scale(0.015625)"/>
       </defs>
       <use xlink:href="#DejaVuSans-13"/>
       <use xlink:href="#DejaVuSans-11" transform="translate(63.625 0)"/>
       <use xlink:href="#DejaVuSans-13" transform="translate(95.40625 0)"/>
       <use xlink:href="#DejaVuSans-17" transform="translate(159.03125 0)"/>
      </g>
     </g>
    </g>
    <g id="ytick_10">
     <g id="line2d_41">
      <path d="M 375.91288 88.700749 
L 632.227848 88.700749 
" clip-path="url(#p0579dfb27a)" style="fill: none; stroke: #262a33; stroke-opacity: 0.5; stroke-width: 0.8; stroke-linecap: square"/>
     </g>
     <g id="line2d_42">
      <g>
       <use xlink:href="#m319a3ecbb9" x="375.91288" y="88.700749" style="fill: #7a8499; stroke: #7a8499; stroke-width: 0.8"/>
      </g>
     </g>
     <g id="text_25">
      <!-- 0.06 -->
      <g style="fill: #7a8499" transform="translate(344.420693 92.87946) scale(0.11 -0.11)">
       <defs>
        <path id="DejaVuSans-19" d="M 2113 2584 
Q 1688 2584 1439 2293 
Q 1191 2003 1191 1497 
Q 1191 994 1439 701 
Q 1688 409 2113 409 
Q 2538 409 2786 701 
Q 3034 994 3034 1497 
Q 3034 2003 2786 2293 
Q 2538 2584 2113 2584 
z
M 3366 4563 
L 3366 3988 
Q 3128 4100 2886 4159 
Q 2644 4219 2406 4219 
Q 1781 4219 1451 3797 
Q 1122 3375 1075 2522 
Q 1259 2794 1537 2939 
Q 1816 3084 2150 3084 
Q 2853 3084 3261 2657 
Q 3669 2231 3669 1497 
Q 3669 778 3244 343 
Q 2819 -91 2113 -91 
Q 1303 -91 875 529 
Q 447 1150 447 2328 
Q 447 3434 972 4092 
Q 1497 4750 2381 4750 
Q 2619 4750 2861 4703 
Q 3103 4656 3366 4563 
z
" transform="scale(0.015625)"/>
       </defs>
       <use xlink:href="#DejaVuSans-13"/>
       <use xlink:href="#DejaVuSans-11" transform="translate(63.625 0)"/>
       <use xlink:href="#DejaVuSans-13" transform="translate(95.40625 0)"/>
       <use xlink:href="#DejaVuSans-19" transform="translate(159.03125 0)"/>
      </g>
     </g>
    </g>
    <g id="ytick_11">
     <g id="line2d_43">
      <path d="M 375.91288 58.003148 
L 632.227848 58.003148 
" clip-path="url(#p0579dfb27a)" style="fill: none; stroke: #262a33; stroke-opacity: 0.5; stroke-width: 0.8; stroke-linecap: square"/>
     </g>
     <g id="line2d_44">
      <g>
       <use xlink:href="#m319a3ecbb9" x="375.91288" y="58.003148" style="fill: #7a8499; stroke: #7a8499; stroke-width: 0.8"/>
      </g>
     </g>
     <g id="text_26">
      <!-- 0.08 -->
      <g style="fill: #7a8499" transform="translate(344.420693 62.181859) scale(0.11 -0.11)">
       <defs>
        <path id="DejaVuSans-1b" d="M 2034 2216 
Q 1584 2216 1326 1975 
Q 1069 1734 1069 1313 
Q 1069 891 1326 650 
Q 1584 409 2034 409 
Q 2484 409 2743 651 
Q 3003 894 3003 1313 
Q 3003 1734 2745 1975 
Q 2488 2216 2034 2216 
z
M 1403 2484 
Q 997 2584 770 2862 
Q 544 3141 544 3541 
Q 544 4100 942 4425 
Q 1341 4750 2034 4750 
Q 2731 4750 3128 4425 
Q 3525 4100 3525 3541 
Q 3525 3141 3298 2862 
Q 3072 2584 2669 2484 
Q 3125 2378 3379 2068 
Q 3634 1759 3634 1313 
Q 3634 634 3220 271 
Q 2806 -91 2034 -91 
Q 1263 -91 848 271 
Q 434 634 434 1313 
Q 434 1759 690 2068 
Q 947 2378 1403 2484 
z
M 1172 3481 
Q 1172 3119 1398 2916 
Q 1625 2713 2034 2713 
Q 2441 2713 2670 2916 
Q 2900 3119 2900 3481 
Q 2900 3844 2670 4047 
Q 2441 4250 2034 4250 
Q 1625 4250 1398 4047 
Q 1172 3844 1172 3481 
z
" transform="scale(0.015625)"/>
       </defs>
       <use xlink:href="#DejaVuSans-13"/>
       <use xlink:href="#DejaVuSans-11" transform="translate(63.625 0)"/>
       <use xlink:href="#DejaVuSans-13" transform="translate(95.40625 0)"/>
       <use xlink:href="#DejaVuSans-1b" transform="translate(159.03125 0)"/>
      </g>
     </g>
    </g>
    <g id="ytick_12">
     <g id="line2d_45">
      <path d="M 375.91288 27.305548 
L 632.227848 27.305548 
" clip-path="url(#p0579dfb27a)" style="fill: none; stroke: #262a33; stroke-opacity: 0.5; stroke-width: 0.8; stroke-linecap: square"/>
     </g>
     <g id="line2d_46">
      <g>
       <use xlink:href="#m319a3ecbb9" x="375.91288" y="27.305548" style="fill: #7a8499; stroke: #7a8499; stroke-width: 0.8"/>
      </g>
     </g>
     <g id="text_27">
      <!-- 0.10 -->
      <g style="fill: #7a8499" transform="translate(344.420693 31.484259) scale(0.11 -0.11)">
       <use xlink:href="#DejaVuSans-13"/>
       <use xlink:href="#DejaVuSans-11" transform="translate(63.625 0)"/>
       <use xlink:href="#DejaVuSans-14" transform="translate(95.40625 0)"/>
       <use xlink:href="#DejaVuSans-13" transform="translate(159.03125 0)"/>
      </g>
     </g>
    </g>
    <g id="text_28">
     <!-- $h_i = w_i/\Delta$ -->
     <g style="fill: #c9d1e0" transform="translate(337.778114 124.380369) rotate(-90) scale(0.11 -0.11)">
      <use xlink:href="#DejaVuSans-Oblique-4b" transform="translate(0 0.015625)"/>
      <use xlink:href="#DejaVuSans-Oblique-4c" transform="translate(63.378906 -14.984326) scale(0.7)"/>
      <use xlink:href="#DejaVuSans-20" transform="translate(105.043945 0.015625)"/>
      <use xlink:href="#DejaVuSans-Oblique-5a" transform="translate(208.31543 0.015625)"/>
      <use xlink:href="#DejaVuSans-Oblique-4c" transform="translate(290.102539 -14.984326) scale(0.7)"/>
      <use xlink:href="#DejaVuSans-12" transform="translate(312.285156 0.015625)"/>
      <use xlink:href="#DejaVuSans-329" transform="translate(345.976562 0.015625)"/>
     </g>
    </g>
   </g>
   <g id="patch_22">
    <path d="M 375.91288 180.793551 
L 375.91288 22.317187 
" style="fill: none; stroke: #262a33; stroke-width: 0.8; stroke-linejoin: miter; stroke-linecap: square"/>
   </g>
   <g id="patch_23">
    <path d="M 632.227848 180.793551 
L 632.227848 22.317187 
" style="fill: none; stroke: #262a33; stroke-width: 0.8; stroke-linejoin: miter; stroke-linecap: square"/>
   </g>
   <g id="patch_24">
    <path d="M 375.91288 180.793551 
L 632.227848 180.793551 
" style="fill: none; stroke: #262a33; stroke-width: 0.8; stroke-linejoin: miter; stroke-linecap: square"/>
   </g>
   <g id="patch_25">
    <path d="M 375.91288 22.317187 
L 632.227848 22.317187 
" style="fill: none; stroke: #262a33; stroke-width: 0.8; stroke-linejoin: miter; stroke-linecap: square"/>
   </g>
   <g id="text_29">
    <!-- Гистограмма, $\Delta=5$ -->
    <g style="fill: #c9d1e0" transform="translate(443.530364 16.317188) scale(0.12 -0.12)">
     <use xlink:href="#DejaVuSans-3a7" transform="translate(0 0.09375)"/>
     <use xlink:href="#DejaVuSans-3cc" transform="translate(60.986328 0.09375)"/>
     <use xlink:href="#DejaVuSans-3d5" transform="translate(125.976562 0.09375)"/>
     <use xlink:href="#DejaVuSans-3d6" transform="translate(180.957031 0.09375)"/>
     <use xlink:href="#DejaVuSans-3d2" transform="translate(239.208984 0.09375)"/>
     <use xlink:href="#DejaVuSans-3c7" transform="translate(300.390625 0.09375)"/>
     <use xlink:href="#DejaVuSans-3d4" transform="translate(352.929688 0.09375)"/>
     <use xlink:href="#DejaVuSans-3c4" transform="translate(416.40625 0.09375)"/>
     <use xlink:href="#DejaVuSans-3d0" transform="translate(477.685547 0.09375)"/>
     <use xlink:href="#DejaVuSans-3d0" transform="translate(553.125 0.09375)"/>
     <use xlink:href="#DejaVuSans-3c4" transform="translate(628.564453 0.09375)"/>
     <use xlink:href="#DejaVuSans-f" transform="translate(689.84375 0.09375)"/>
     <use xlink:href="#DejaVuSans-3" transform="translate(721.630859 0.09375)"/>
     <use xlink:href="#DejaVuSans-329" transform="translate(753.417969 0.09375)"/>
     <use xlink:href="#DejaVuSans-20" transform="translate(841.308594 0.09375)"/>
     <use xlink:href="#DejaVuSans-18" transform="translate(944.580078 0.09375)"/>
    </g>
   </g>
  </g>
 </g>
 <defs>
  <clipPath id="p0423ee4f1a">
   <rect x="60.693516" y="22.317188" width="256.314968" height="158.476364"/>
  </clipPath>
  <clipPath id="p0579dfb27a">
   <rect x="375.91288" y="22.317188" width="256.314968" height="158.476364"/>
  </clipPath>
 </defs>
</svg>
