<?xml version="1.0" encoding="utf-8" standalone="no"?>
<!DOCTYPE svg PUBLIC "-//W3C//DTD SVG 1.1//EN"
  "http://www.w3.org/Graphics/SVG/1.1/DTD/svg11.dtd">
<svg xmlns:xlink="http://www.w3.org/1999/xlink" width="457.81071pt" height="242.138182pt" viewBox="0 0 457.81071 242.138182" xmlns="http://www.w3.org/2000/svg" version="1.1">
 <metadata>
  <rdf:RDF xmlns:dc="http://purl.org/dc/elements/1.1/" xmlns:cc="http://creativecommons.org/ns#" xmlns:rdf="http://www.w3.org/1999/02/22-rdf-syntax-ns#">
   <cc:Work>
    <dc:type rdf:resource="http://purl.org/dc/dcmitype/StillImage"/>
    <dc:date>2026-06-19T18:04:40.898249</dc:date>
    <dc:format>image/svg+xml</dc:format>
    <dc:creator>
     <cc:Agent>
      <dc:title>Matplotlib v3.11.0, https://matplotlib.org/</dc:title>
     </cc:Agent>
    </dc:creator>
   </cc:Work>
  </rdf:RDF>
 </metadata>
 <defs>
  <style type="text/css">*{stroke-linejoin: round; stroke-linecap: butt}</style>
 </defs>
 <g id="figure_1">
  <g id="patch_1">
   <path d="M 0 242.138182 
L 457.81071 242.138182 
L 457.81071 0 
L 0 0 
z
" style="fill: #0b0d12"/>
  </g>
  <g id="axes_1">
   <g id="patch_2">
    <path d="M 49.443438 201.938182 
L 450.61071 201.938182 
L 450.61071 24.48 
L 49.443438 24.48 
z
" style="fill: #13151b"/>
   </g>
   <g id="matplotlib.axis_1">
    <g id="xtick_1">
     <g id="line2d_1">
      <path d="M 67.678314 201.938182 
L 67.678314 24.48 
" clip-path="url(#pffaba41637)" style="fill: none; stroke: #262a33; stroke-opacity: 0.5; stroke-width: 0.8; stroke-linecap: square"/>
     </g>
     <g id="line2d_2">
      <defs>
       <path id="m9fb30d3436" d="M 0 0 
L 0 3.5 
" style="stroke: #7a8499; stroke-width: 0.8"/>
      </defs>
      <g>
       <use xlink:href="#m9fb30d3436" x="67.678314" y="201.938182" style="fill: #7a8499; stroke: #7a8499; stroke-width: 0.8"/>
      </g>
     </g>
     <g id="text_1">
      <!-- 0 -->
      <g style="fill: #7a8499" transform="translate(64.178939 217.295604) scale(0.11 -0.11)">
       <defs>
        <path id="DejaVuSans-13" d="M 2034 4250 
Q 1547 4250 1301 3770 
Q 1056 3291 1056 2328 
Q 1056 1369 1301 889 
Q 1547 409 2034 409 
Q 2525 409 2770 889 
Q 3016 1369 3016 2328 
Q 3016 3291 2770 3770 
Q 2525 4250 2034 4250 
z
M 2034 4750 
Q 2819 4750 3233 4129 
Q 3647 3509 3647 2328 
Q 3647 1150 3233 529 
Q 2819 -91 2034 -91 
Q 1250 -91 836 529 
Q 422 1150 422 2328 
Q 422 3509 836 4129 
Q 1250 4750 2034 4750 
z
" transform="scale(0.015625)"/>
       </defs>
       <use xlink:href="#DejaVuSans-13"/>
      </g>
     </g>
    </g>
    <g id="xtick_2">
     <g id="line2d_3">
      <path d="M 124.938765 201.938182 
L 124.938765 24.48 
" clip-path="url(#pffaba41637)" style="fill: none; stroke: #262a33; stroke-opacity: 0.5; stroke-width: 0.8; stroke-linecap: square"/>
     </g>
     <g id="line2d_4">
      <g>
       <use xlink:href="#m9fb30d3436" x="124.938765" y="201.938182" style="fill: #7a8499; stroke: #7a8499; stroke-width: 0.8"/>
      </g>
     </g>
     <g id="text_2">
      <!-- 1 -->
      <g style="fill: #7a8499" transform="translate(121.43939 217.295604) scale(0.11 -0.11)">
       <defs>
        <path id="DejaVuSans-14" d="M 794 531 
L 1825 531 
L 1825 4091 
L 703 3866 
L 703 4441 
L 1819 4666 
L 2450 4666 
L 2450 531 
L 3481 531 
L 3481 0 
L 794 0 
L 794 531 
z
" transform="scale(0.015625)"/>
       </defs>
       <use xlink:href="#DejaVuSans-14"/>
      </g>
     </g>
    </g>
    <g id="xtick_3">
     <g id="line2d_5">
      <path d="M 182.199216 201.938182 
L 182.199216 24.48 
" clip-path="url(#pffaba41637)" style="fill: none; stroke: #262a33; stroke-opacity: 0.5; stroke-width: 0.8; stroke-linecap: square"/>
     </g>
     <g id="line2d_6">
      <g>
       <use xlink:href="#m9fb30d3436" x="182.199216" y="201.938182" style="fill: #7a8499; stroke: #7a8499; stroke-width: 0.8"/>
      </g>
     </g>
     <g id="text_3">
      <!-- 2 -->
      <g style="fill: #7a8499" transform="translate(178.699841 217.295604) scale(0.11 -0.11)">
       <defs>
        <path id="DejaVuSans-15" d="M 1228 531 
L 3431 531 
L 3431 0 
L 469 0 
L 469 531 
Q 828 903 1448 1529 
Q 2069 2156 2228 2338 
Q 2531 2678 2651 2914 
Q 2772 3150 2772 3378 
Q 2772 3750 2511 3984 
Q 2250 4219 1831 4219 
Q 1534 4219 1204 4116 
Q 875 4013 500 3803 
L 500 4441 
Q 881 4594 1212 4672 
Q 1544 4750 1819 4750 
Q 2544 4750 2975 4387 
Q 3406 4025 3406 3419 
Q 3406 3131 3298 2873 
Q 3191 2616 2906 2266 
Q 2828 2175 2409 1742 
Q 1991 1309 1228 531 
z
" transform="scale(0.015625)"/>
       </defs>
       <use xlink:href="#DejaVuSans-15"/>
      </g>
     </g>
    </g>
    <g id="xtick_4">
     <g id="line2d_7">
      <path d="M 239.459668 201.938182 
L 239.459668 24.48 
" clip-path="url(#pffaba41637)" style="fill: none; stroke: #262a33; stroke-opacity: 0.5; stroke-width: 0.8; stroke-linecap: square"/>
     </g>
     <g id="line2d_8">
      <g>
       <use xlink:href="#m9fb30d3436" x="239.459668" y="201.938182" style="fill: #7a8499; stroke: #7a8499; stroke-width: 0.8"/>
      </g>
     </g>
     <g id="text_4">
      <!-- 3 -->
      <g style="fill: #7a8499" transform="translate(235.960293 217.295604) scale(0.11 -0.11)">
       <defs>
        <path id="DejaVuSans-16" d="M 2597 2516 
Q 3050 2419 3304 2112 
Q 3559 1806 3559 1356 
Q 3559 666 3084 287 
Q 2609 -91 1734 -91 
Q 1441 -91 1130 -33 
Q 819 25 488 141 
L 488 750 
Q 750 597 1062 519 
Q 1375 441 1716 441 
Q 2309 441 2620 675 
Q 2931 909 2931 1356 
Q 2931 1769 2642 2001 
Q 2353 2234 1838 2234 
L 1294 2234 
L 1294 2753 
L 1863 2753 
Q 2328 2753 2575 2939 
Q 2822 3125 2822 3475 
Q 2822 3834 2567 4026 
Q 2313 4219 1838 4219 
Q 1578 4219 1281 4162 
Q 984 4106 628 3988 
L 628 4550 
Q 988 4650 1302 4700 
Q 1616 4750 1894 4750 
Q 2613 4750 3031 4423 
Q 3450 4097 3450 3541 
Q 3450 3153 3228 2886 
Q 3006 2619 2597 2516 
z
" transform="scale(0.015625)"/>
       </defs>
       <use xlink:href="#DejaVuSans-16"/>
      </g>
     </g>
    </g>
    <g id="xtick_5">
     <g id="line2d_9">
      <path d="M 296.720119 201.938182 
L 296.720119 24.48 
" clip-path="url(#pffaba41637)" style="fill: none; stroke: #262a33; stroke-opacity: 0.5; stroke-width: 0.8; stroke-linecap: square"/>
     </g>
     <g id="line2d_10">
      <g>
       <use xlink:href="#m9fb30d3436" x="296.720119" y="201.938182" style="fill: #7a8499; stroke: #7a8499; stroke-width: 0.8"/>
      </g>
     </g>
     <g id="text_5">
      <!-- 4 -->
      <g style="fill: #7a8499" transform="translate(293.220744 217.295604) scale(0.11 -0.11)">
       <defs>
        <path id="DejaVuSans-17" d="M 2419 4116 
L 825 1625 
L 2419 1625 
L 2419 4116 
z
M 2253 4666 
L 3047 4666 
L 3047 1625 
L 3713 1625 
L 3713 1100 
L 3047 1100 
L 3047 0 
L 2419 0 
L 2419 1100 
L 313 1100 
L 313 1709 
L 2253 4666 
z
" transform="scale(0.015625)"/>
       </defs>
       <use xlink:href="#DejaVuSans-17"/>
      </g>
     </g>
    </g>
    <g id="xtick_6">
     <g id="line2d_11">
      <path d="M 353.98057 201.938182 
L 353.98057 24.48 
" clip-path="url(#pffaba41637)" style="fill: none; stroke: #262a33; stroke-opacity: 0.5; stroke-width: 0.8; stroke-linecap: square"/>
     </g>
     <g id="line2d_12">
      <g>
       <use xlink:href="#m9fb30d3436" x="353.98057" y="201.938182" style="fill: #7a8499; stroke: #7a8499; stroke-width: 0.8"/>
      </g>
     </g>
     <g id="text_6">
      <!-- 5 -->
      <g style="fill: #7a8499" transform="translate(350.481195 217.295604) scale(0.11 -0.11)">
       <defs>
        <path id="DejaVuSans-18" d="M 691 4666 
L 3169 4666 
L 3169 4134 
L 1269 4134 
L 1269 2991 
Q 1406 3038 1543 3061 
Q 1681 3084 1819 3084 
Q 2600 3084 3056 2656 
Q 3513 2228 3513 1497 
Q 3513 744 3044 326 
Q 2575 -91 1722 -91 
Q 1428 -91 1123 -41 
Q 819 9 494 109 
L 494 744 
Q 775 591 1075 516 
Q 1375 441 1709 441 
Q 2250 441 2565 725 
Q 2881 1009 2881 1497 
Q 2881 1984 2565 2268 
Q 2250 2553 1709 2553 
Q 1456 2553 1204 2497 
Q 953 2441 691 2322 
L 691 4666 
z
" transform="scale(0.015625)"/>
       </defs>
       <use xlink:href="#DejaVuSans-18"/>
      </g>
     </g>
    </g>
    <g id="xtick_7">
     <g id="line2d_13">
      <path d="M 411.241022 201.938182 
L 411.241022 24.48 
" clip-path="url(#pffaba41637)" style="fill: none; stroke: #262a33; stroke-opacity: 0.5; stroke-width: 0.8; stroke-linecap: square"/>
     </g>
     <g id="line2d_14">
      <g>
       <use xlink:href="#m9fb30d3436" x="411.241022" y="201.938182" style="fill: #7a8499; stroke: #7a8499; stroke-width: 0.8"/>
      </g>
     </g>
     <g id="text_7">
      <!-- 6 -->
      <g style="fill: #7a8499" transform="translate(407.741647 217.295604) scale(0.11 -0.11)">
       <defs>
        <path id="DejaVuSans-19" d="M 2113 2584 
Q 1688 2584 1439 2293 
Q 1191 2003 1191 1497 
Q 1191 994 1439 701 
Q 1688 409 2113 409 
Q 2538 409 2786 701 
Q 3034 994 3034 1497 
Q 3034 2003 2786 2293 
Q 2538 2584 2113 2584 
z
M 3366 4563 
L 3366 3988 
Q 3128 4100 2886 4159 
Q 2644 4219 2406 4219 
Q 1781 4219 1451 3797 
Q 1122 3375 1075 2522 
Q 1259 2794 1537 2939 
Q 1816 3084 2150 3084 
Q 2853 3084 3261 2657 
Q 3669 2231 3669 1497 
Q 3669 778 3244 343 
Q 2819 -91 2113 -91 
Q 1303 -91 875 529 
Q 447 1150 447 2328 
Q 447 3434 972 4092 
Q 1497 4750 2381 4750 
Q 2619 4750 2861 4703 
Q 3103 4656 3366 4563 
z
" transform="scale(0.015625)"/>
       </defs>
       <use xlink:href="#DejaVuSans-19"/>
      </g>
     </g>
    </g>
    <g id="text_8">
     <!-- $x$ -->
     <g style="fill: #c9d1e0" transform="translate(246.727074 232.295604) scale(0.11 -0.11)">
      <defs>
       <path id="DejaVuSans-Oblique-5b" d="M 3841 3500 
L 2234 1784 
L 3219 0 
L 2559 0 
L 1819 1388 
L 531 0 
L -166 0 
L 1556 1844 
L 641 3500 
L 1300 3500 
L 1972 2234 
L 3144 3500 
L 3841 3500 
z
" transform="scale(0.015625)"/>
      </defs>
      <use xlink:href="#DejaVuSans-Oblique-5b" transform="translate(0 0.3125)"/>
     </g>
    </g>
   </g>
   <g id="matplotlib.axis_2">
    <g id="ytick_1">
     <g id="line2d_15">
      <path d="M 49.443438 193.871901 
L 450.61071 193.871901 
" clip-path="url(#pffaba41637)" style="fill: none; stroke: #262a33; stroke-opacity: 0.5; stroke-width: 0.8; stroke-linecap: square"/>
     </g>
     <g id="line2d_16">
      <defs>
       <path id="m5147388801" d="M 0 0 
L -3.5 0 
" style="stroke: #7a8499; stroke-width: 0.8"/>
      </defs>
      <g>
       <use xlink:href="#m5147388801" x="49.443438" y="193.871901" style="fill: #7a8499; stroke: #7a8499; stroke-width: 0.8"/>
      </g>
     </g>
     <g id="text_9">
      <!-- 0.0 -->
      <g style="fill: #7a8499" transform="translate(24.95 198.050612) scale(0.11 -0.11)">
       <defs>
        <path id="DejaVuSans-11" d="M 684 794 
L 1344 794 
L 1344 0 
L 684 0 
L 684 794 
z
" transform="scale(0.015625)"/>
       </defs>
       <use xlink:href="#DejaVuSans-13"/>
       <use xlink:href="#DejaVuSans-11" transform="translate(63.625 0)"/>
       <use xlink:href="#DejaVuSans-13" transform="translate(95.40625 0)"/>
      </g>
     </g>
    </g>
    <g id="ytick_2">
     <g id="line2d_17">
      <path d="M 49.443438 161.606777 
L 450.61071 161.606777 
" clip-path="url(#pffaba41637)" style="fill: none; stroke: #262a33; stroke-opacity: 0.5; stroke-width: 0.8; stroke-linecap: square"/>
     </g>
     <g id="line2d_18">
      <g>
       <use xlink:href="#m5147388801" x="49.443438" y="161.606777" style="fill: #7a8499; stroke: #7a8499; stroke-width: 0.8"/>
      </g>
     </g>
     <g id="text_10">
      <!-- 0.2 -->
      <g style="fill: #7a8499" transform="translate(24.95 165.785488) scale(0.11 -0.11)">
       <use xlink:href="#DejaVuSans-13"/>
       <use xlink:href="#DejaVuSans-11" transform="translate(63.625 0)"/>
       <use xlink:href="#DejaVuSans-15" transform="translate(95.40625 0)"/>
      </g>
     </g>
    </g>
    <g id="ytick_3">
     <g id="line2d_19">
      <path d="M 49.443438 129.341653 
L 450.61071 129.341653 
" clip-path="url(#pffaba41637)" style="fill: none; stroke: #262a33; stroke-opacity: 0.5; stroke-width: 0.8; stroke-linecap: square"/>
     </g>
     <g id="line2d_20">
      <g>
       <use xlink:href="#m5147388801" x="49.443438" y="129.341653" style="fill: #7a8499; stroke: #7a8499; stroke-width: 0.8"/>
      </g>
     </g>
     <g id="text_11">
      <!-- 0.4 -->
      <g style="fill: #7a8499" transform="translate(24.95 133.520364) scale(0.11 -0.11)">
       <use xlink:href="#DejaVuSans-13"/>
       <use xlink:href="#DejaVuSans-11" transform="translate(63.625 0)"/>
       <use xlink:href="#DejaVuSans-17" transform="translate(95.40625 0)"/>
      </g>
     </g>
    </g>
    <g id="ytick_4">
     <g id="line2d_21">
      <path d="M 49.443438 97.076529 
L 450.61071 97.076529 
" clip-path="url(#pffaba41637)" style="fill: none; stroke: #262a33; stroke-opacity: 0.5; stroke-width: 0.8; stroke-linecap: square"/>
     </g>
     <g id="line2d_22">
      <g>
       <use xlink:href="#m5147388801" x="49.443438" y="97.076529" style="fill: #7a8499; stroke: #7a8499; stroke-width: 0.8"/>
      </g>
     </g>
     <g id="text_12">
      <!-- 0.6 -->
      <g style="fill: #7a8499" transform="translate(24.95 101.25524) scale(0.11 -0.11)">
       <use xlink:href="#DejaVuSans-13"/>
       <use xlink:href="#DejaVuSans-11" transform="translate(63.625 0)"/>
       <use xlink:href="#DejaVuSans-19" transform="translate(95.40625 0)"/>
      </g>
     </g>
    </g>
    <g id="ytick_5">
     <g id="line2d_23">
      <path d="M 49.443438 64.811405 
L 450.61071 64.811405 
" clip-path="url(#pffaba41637)" style="fill: none; stroke: #262a33; stroke-opacity: 0.5; stroke-width: 0.8; stroke-linecap: square"/>
     </g>
     <g id="line2d_24">
      <g>
       <use xlink:href="#m5147388801" x="49.443438" y="64.811405" style="fill: #7a8499; stroke: #7a8499; stroke-width: 0.8"/>
      </g>
     </g>
     <g id="text_13">
      <!-- 0.8 -->
      <g style="fill: #7a8499" transform="translate(24.95 68.990116) scale(0.11 -0.11)">
       <defs>
        <path id="DejaVuSans-1b" d="M 2034 2216 
Q 1584 2216 1326 1975 
Q 1069 1734 1069 1313 
Q 1069 891 1326 650 
Q 1584 409 2034 409 
Q 2484 409 2743 651 
Q 3003 894 3003 1313 
Q 3003 1734 2745 1975 
Q 2488 2216 2034 2216 
z
M 1403 2484 
Q 997 2584 770 2862 
Q 544 3141 544 3541 
Q 544 4100 942 4425 
Q 1341 4750 2034 4750 
Q 2731 4750 3128 4425 
Q 3525 4100 3525 3541 
Q 3525 3141 3298 2862 
Q 3072 2584 2669 2484 
Q 3125 2378 3379 2068 
Q 3634 1759 3634 1313 
Q 3634 634 3220 271 
Q 2806 -91 2034 -91 
Q 1263 -91 848 271 
Q 434 634 434 1313 
Q 434 1759 690 2068 
Q 947 2378 1403 2484 
z
M 1172 3481 
Q 1172 3119 1398 2916 
Q 1625 2713 2034 2713 
Q 2441 2713 2670 2916 
Q 2900 3119 2900 3481 
Q 2900 3844 2670 4047 
Q 2441 4250 2034 4250 
Q 1625 4250 1398 4047 
Q 1172 3844 1172 3481 
z
" transform="scale(0.015625)"/>
       </defs>
       <use xlink:href="#DejaVuSans-13"/>
       <use xlink:href="#DejaVuSans-11" transform="translate(63.625 0)"/>
       <use xlink:href="#DejaVuSans-1b" transform="translate(95.40625 0)"/>
      </g>
     </g>
    </g>
    <g id="ytick_6">
     <g id="line2d_25">
      <path d="M 49.443438 32.546281 
L 450.61071 32.546281 
" clip-path="url(#pffaba41637)" style="fill: none; stroke: #262a33; stroke-opacity: 0.5; stroke-width: 0.8; stroke-linecap: square"/>
     </g>
     <g id="line2d_26">
      <g>
       <use xlink:href="#m5147388801" x="49.443438" y="32.546281" style="fill: #7a8499; stroke: #7a8499; stroke-width: 0.8"/>
      </g>
     </g>
     <g id="text_14">
      <!-- 1.0 -->
      <g style="fill: #7a8499" transform="translate(24.95 36.724992) scale(0.11 -0.11)">
       <use xlink:href="#DejaVuSans-14"/>
       <use xlink:href="#DejaVuSans-11" transform="translate(63.625 0)"/>
       <use xlink:href="#DejaVuSans-13" transform="translate(95.40625 0)"/>
      </g>
     </g>
    </g>
    <g id="text_15">
     <!-- $F_n^*(x)$ -->
     <g style="fill: #c9d1e0" transform="translate(17.54 127.894091) rotate(-90) scale(0.11 -0.11)">
      <defs>
       <path id="DejaVuSans-Oblique-29" d="M 1081 4666 
L 3756 4666 
L 3653 4134 
L 1606 4134 
L 1338 2759 
L 3188 2759 
L 3084 2228 
L 1234 2228 
L 800 0 
L 172 0 
L 1081 4666 
z
" transform="scale(0.015625)"/>
       <path id="DejaVuSans-d" d="M 3009 3897 
L 1888 3291 
L 3009 2681 
L 2828 2375 
L 1778 3009 
L 1778 1831 
L 1422 1831 
L 1422 3009 
L 372 2375 
L 191 2681 
L 1313 3291 
L 191 3897 
L 372 4206 
L 1422 3572 
L 1422 4750 
L 1778 4750 
L 1778 3572 
L 2828 4206 
L 3009 3897 
z
" transform="scale(0.015625)"/>
       <path id="DejaVuSans-Oblique-51" d="M 3566 2113 
L 3156 0 
L 2578 0 
L 2988 2091 
Q 3016 2238 3031 2350 
Q 3047 2463 3047 2528 
Q 3047 2791 2881 2937 
Q 2716 3084 2419 3084 
Q 1956 3084 1622 2776 
Q 1288 2469 1184 1941 
L 800 0 
L 225 0 
L 903 3500 
L 1478 3500 
L 1363 2950 
Q 1603 3253 1940 3418 
Q 2278 3584 2650 3584 
Q 3113 3584 3367 3334 
Q 3622 3084 3622 2631 
Q 3622 2519 3608 2391 
Q 3594 2263 3566 2113 
z
" transform="scale(0.015625)"/>
       <path id="DejaVuSans-b" d="M 1984 4856 
Q 1566 4138 1362 3434 
Q 1159 2731 1159 2009 
Q 1159 1288 1364 580 
Q 1569 -128 1984 -844 
L 1484 -844 
Q 1016 -109 783 600 
Q 550 1309 550 2009 
Q 550 2706 781 3412 
Q 1013 4119 1484 4856 
L 1984 4856 
z
" transform="scale(0.015625)"/>
       <path id="DejaVuSans-c" d="M 513 4856 
L 1013 4856 
Q 1481 4119 1714 3412 
Q 1947 2706 1947 2009 
Q 1947 1309 1714 600 
Q 1481 -109 1013 -844 
L 513 -844 
Q 928 -128 1133 580 
Q 1338 1288 1338 2009 
Q 1338 2731 1133 3434 
Q 928 4138 513 4856 
z
" transform="scale(0.015625)"/>
      </defs>
      <use xlink:href="#DejaVuSans-Oblique-29" transform="translate(0 0.746875)"/>
      <use xlink:href="#DejaVuSans-d" transform="translate(78.173997 42.046875) scale(0.7)"/>
      <use xlink:href="#DejaVuSans-Oblique-51" transform="translate(57.519531 -30.153125) scale(0.7)"/>
      <use xlink:href="#DejaVuSans-b" transform="translate(129.546068 0.746875)"/>
      <use xlink:href="#DejaVuSans-Oblique-5b" transform="translate(168.55974 0.746875)"/>
      <use xlink:href="#DejaVuSans-c" transform="translate(227.739427 0.746875)"/>
     </g>
    </g>
   </g>
   <g id="line2d_27">
    <path d="M 67.678314 193.871901 
L 71.85995 193.871901 
L 71.85995 185.80562 
L 72.091786 185.80562 
L 72.091786 177.739339 
L 77.964137 177.739339 
L 77.964137 169.673058 
L 81.30229 169.673058 
L 81.30229 161.606777 
L 84.681645 161.606777 
L 84.681645 153.540496 
L 86.111095 153.540496 
L 86.111095 145.474215 
L 87.366367 145.474215 
L 87.366367 137.407934 
L 89.934319 137.407934 
L 89.934319 129.341653 
L 91.560887 129.341653 
L 91.560887 121.275372 
L 93.635604 121.275372 
L 93.635604 113.209091 
L 94.08044 113.209091 
L 94.08044 105.14281 
L 104.414142 105.14281 
L 104.414142 97.076529 
L 105.229497 97.076529 
L 105.229497 89.010248 
L 106.920072 89.010248 
L 106.920072 80.943967 
L 108.246807 80.943967 
L 108.246807 72.877686 
L 118.005365 72.877686 
L 118.005365 64.811405 
L 129.753391 64.811405 
L 129.753391 56.745124 
L 140.067369 56.745124 
L 140.067369 48.678843 
L 144.046716 48.678843 
L 144.046716 40.612562 
L 147.319813 40.612562 
L 147.319813 32.546281 
L 158.771903 32.546281 
L 158.771903 32.546281 
" clip-path="url(#pffaba41637)" style="fill: none; stroke: #22c55e; stroke-opacity: 0.65; stroke-width: 1.4; stroke-linecap: square"/>
   </g>
   <g id="line2d_28">
    <path d="M 67.678314 193.871901 
L 68.888786 193.871901 
L 68.888786 192.258645 
L 70.223744 192.258645 
L 70.303214 189.032132 
L 70.527062 189.032132 
L 70.527062 187.418876 
L 70.808921 187.418876 
L 70.808921 185.80562 
L 71.718464 185.80562 
L 71.718464 184.192364 
L 72.015146 184.192364 
L 72.015146 182.579107 
L 73.011104 182.579107 
L 73.011104 180.965851 
L 74.416856 180.965851 
L 74.416856 179.352595 
L 74.765073 179.352595 
L 74.765073 177.739339 
L 75.101192 177.739339 
L 75.101192 176.126083 
L 75.375106 176.126083 
L 75.375106 174.512826 
L 75.712124 174.512826 
L 75.712124 172.89957 
L 75.83683 172.89957 
L 75.83683 171.286314 
L 77.168426 171.286314 
L 77.261216 168.059802 
L 77.466984 168.059802 
L 77.466984 166.446545 
L 78.401333 166.446545 
L 78.437495 163.220033 
L 79.164291 163.220033 
L 79.164291 161.606777 
L 80.221452 161.606777 
L 80.221452 159.993521 
L 81.632626 159.993521 
L 81.632626 158.380264 
L 83.714053 158.380264 
L 83.714053 156.767008 
L 83.942555 156.767008 
L 83.942555 155.153752 
L 84.068716 155.153752 
L 84.068716 153.540496 
L 84.214158 153.540496 
L 84.214158 151.92724 
L 84.530071 151.92724 
L 84.530071 150.313983 
L 85.133067 150.313983 
L 85.133067 148.700727 
L 85.442895 148.700727 
L 85.442895 147.087471 
L 86.055265 147.087471 
L 86.055265 145.474215 
L 86.53087 145.474215 
L 86.53087 143.860959 
L 86.692724 143.860959 
L 86.692724 142.247702 
L 87.879508 142.247702 
L 87.969328 139.02119 
L 88.368932 139.02119 
L 88.368932 137.407934 
L 89.449819 137.407934 
L 89.449819 135.794678 
L 89.788364 135.794678 
L 89.788364 134.181421 
L 90.454016 134.181421 
L 90.54961 130.954909 
L 91.374926 130.954909 
L 91.374926 129.341653 
L 93.366211 129.341653 
L 93.366211 127.728397 
L 93.701948 127.728397 
L 93.701948 126.11514 
L 94.194229 126.11514 
L 94.194229 124.501884 
L 96.512375 124.501884 
L 96.512375 122.888628 
L 98.084736 122.888628 
L 98.084736 121.275372 
L 99.946759 121.275372 
L 99.946759 119.662116 
L 101.606517 119.662116 
L 101.606517 118.04886 
L 103.25899 118.04886 
L 103.25899 116.435603 
L 106.248735 116.435603 
L 106.248735 114.822347 
L 106.872115 114.822347 
L 106.872115 113.209091 
L 109.302693 113.209091 
L 109.302693 111.595835 
L 110.796278 111.595835 
L 110.796278 109.982579 
L 113.933258 109.982579 
L 113.933258 108.369322 
L 114.693244 108.369322 
L 114.693244 106.756066 
L 120.076502 106.756066 
L 120.076502 105.14281 
L 120.634052 105.14281 
L 120.634052 103.529554 
L 121.214507 103.529554 
L 121.214507 101.916298 
L 122.453821 101.916298 
L 122.453821 100.303041 
L 123.077765 100.303041 
L 123.077765 98.689785 
L 123.316973 98.689785 
L 123.316973 97.076529 
L 124.012368 97.076529 
L 124.012368 95.463273 
L 125.445516 95.463273 
L 125.445516 93.850017 
L 127.429107 93.850017 
L 127.429107 92.23676 
L 128.823844 92.23676 
L 128.823844 90.623504 
L 129.71 90.623504 
L 129.71 89.010248 
L 131.68932 89.010248 
L 131.68932 87.396992 
L 131.92681 87.396992 
L 131.92681 85.783736 
L 132.615531 85.783736 
L 132.615531 84.170479 
L 134.744445 84.170479 
L 134.744445 82.557223 
L 135.785093 82.557223 
L 135.785093 80.943967 
L 141.656299 80.943967 
L 141.656299 79.330711 
L 142.918206 79.330711 
L 142.979062 76.104198 
L 145.228318 76.104198 
L 145.228318 74.490942 
L 146.46004 74.490942 
L 146.46004 72.877686 
L 147.714592 72.877686 
L 147.714592 71.26443 
L 152.886033 71.26443 
L 152.886033 69.651174 
L 154.016145 69.651174 
L 154.024863 66.424661 
L 155.95791 66.424661 
L 155.95791 64.811405 
L 160.093529 64.811405 
L 160.093529 63.198149 
L 161.658255 63.198149 
L 161.658255 61.584893 
L 161.864074 61.584893 
L 161.864074 59.971636 
L 163.669784 59.971636 
L 163.669784 58.35838 
L 165.971214 58.35838 
L 165.971214 56.745124 
L 173.644527 56.745124 
L 173.644527 55.131868 
L 177.520605 55.131868 
L 177.520605 53.518612 
L 183.802599 53.518612 
L 183.802599 51.905355 
L 184.857952 51.905355 
L 184.857952 50.292099 
L 188.306629 50.292099 
L 188.306629 48.678843 
L 189.697065 48.678843 
L 189.697065 47.065587 
L 190.497251 47.065587 
L 190.497251 45.452331 
L 191.348228 45.452331 
L 191.348228 43.839074 
L 196.621897 43.839074 
L 196.621897 42.225818 
L 213.888261 42.225818 
L 213.888261 40.612562 
L 223.959862 40.612562 
L 223.959862 38.999306 
L 244.178572 38.999306 
L 244.178572 37.38605 
L 296.477121 37.38605 
L 296.477121 35.772793 
L 371.724599 35.772793 
L 371.724599 34.159537 
L 378.69359 34.159537 
L 378.69359 32.546281 
L 390.14568 32.546281 
L 390.14568 32.546281 
" clip-path="url(#pffaba41637)" style="fill: none; stroke: #3b82f6; stroke-opacity: 0.75; stroke-width: 1.4; stroke-linecap: square"/>
   </g>
   <g id="line2d_29">
    <path d="M 67.678314 193.871901 
L 67.857335 193.871901 
L 67.857335 193.54925 
L 68.143808 193.54925 
L 68.189904 192.903947 
L 68.316838 192.903947 
L 68.40769 191.935993 
L 68.51534 191.935993 
L 68.51534 191.613342 
L 68.68454 191.613342 
L 68.68454 191.290691 
L 68.802741 191.290691 
L 68.889039 190.645388 
L 69.061709 190.645388 
L 69.136877 189.677435 
L 69.32292 189.677435 
L 69.365444 188.709481 
L 69.650182 188.709481 
L 69.650182 188.38683 
L 69.807542 188.38683 
L 69.875945 187.741527 
L 70.028898 187.741527 
L 70.054457 187.096225 
L 70.407414 187.096225 
L 70.407414 186.773574 
L 70.56824 186.773574 
L 70.56824 186.450922 
L 70.746507 186.450922 
L 70.752717 185.80562 
L 71.053616 185.80562 
L 71.154423 184.192364 
L 71.17383 184.192364 
L 71.17383 183.869712 
L 71.7202 183.869712 
L 71.724358 183.22441 
L 71.897455 183.22441 
L 71.994333 182.256456 
L 72.054612 182.256456 
L 72.079277 181.611154 
L 72.21404 181.611154 
L 72.21404 181.288502 
L 72.481348 181.288502 
L 72.533575 180.6432 
L 72.612591 180.6432 
L 72.635876 179.997898 
L 72.845709 179.997898 
L 72.87441 179.352595 
L 73.088874 179.352595 
L 73.199803 178.384641 
L 73.236099 178.384641 
L 73.250331 177.739339 
L 73.385433 177.739339 
L 73.385433 177.416688 
L 73.781602 177.416688 
L 73.864958 176.448734 
L 74.094143 176.448734 
L 74.17103 175.48078 
L 74.264205 175.48078 
L 74.271061 174.835478 
L 74.425998 174.835478 
L 74.425998 174.512826 
L 74.946092 174.512826 
L 74.949884 173.544873 
L 75.343219 173.544873 
L 75.343219 173.222221 
L 75.710216 173.222221 
L 75.710216 172.89957 
L 75.937262 172.89957 
L 76.036505 172.254268 
L 76.151149 172.254268 
L 76.151149 171.931617 
L 76.303281 171.931617 
L 76.303281 171.608965 
L 76.840895 171.608965 
L 76.840895 171.286314 
L 77.195536 171.286314 
L 77.303022 170.31836 
L 77.400203 170.31836 
L 77.400203 169.995709 
L 77.895719 169.995709 
L 77.990054 169.027755 
L 78.046765 169.027755 
L 78.046765 168.705104 
L 78.330767 168.705104 
L 78.330767 168.382453 
L 78.472632 168.382453 
L 78.543496 167.73715 
L 78.614199 167.73715 
L 78.703045 166.769197 
L 78.755828 166.769197 
L 78.755828 166.446545 
L 78.915626 166.446545 
L 78.998996 165.478592 
L 79.09849 165.478592 
L 79.171664 164.833289 
L 79.470813 164.833289 
L 79.470813 164.510638 
L 80.036413 164.510638 
L 80.036413 164.187987 
L 80.316523 164.187987 
L 80.316523 163.865336 
L 80.593322 163.865336 
L 80.593322 163.542684 
L 80.785428 163.542684 
L 80.829376 162.897382 
L 80.914326 162.897382 
L 80.946525 162.252079 
L 81.232737 162.252079 
L 81.232737 161.929428 
L 81.40521 161.929428 
L 81.40521 161.606777 
L 81.609353 161.606777 
L 81.711826 160.961474 
L 81.883784 160.961474 
L 81.883784 160.638823 
L 82.082983 160.638823 
L 82.152211 159.993521 
L 82.233685 159.993521 
L 82.233685 159.670869 
L 82.41956 159.670869 
L 82.52509 158.380264 
L 82.839772 158.380264 
L 82.839772 158.057613 
L 83.065338 158.057613 
L 83.065338 157.734962 
L 83.198742 157.734962 
L 83.198742 157.412311 
L 83.359094 157.412311 
L 83.359094 157.08966 
L 84.136721 157.08966 
L 84.167539 156.444357 
L 84.263549 156.444357 
L 84.311224 155.799055 
L 84.405937 155.799055 
L 84.51367 155.153752 
L 84.560944 155.153752 
L 84.560944 154.831101 
L 84.720541 154.831101 
L 84.720541 154.50845 
L 84.97158 154.50845 
L 85.0112 153.540496 
L 85.103729 153.540496 
L 85.103729 153.217845 
L 85.442233 153.217845 
L 85.442233 152.895193 
L 85.641389 152.895193 
L 85.641389 152.572542 
L 86.00452 152.572542 
L 86.06764 151.92724 
L 86.201497 151.92724 
L 86.234632 151.281937 
L 86.341102 151.281937 
L 86.363919 150.636635 
L 86.49635 150.636635 
L 86.49635 150.313983 
L 86.732816 150.313983 
L 86.803824 149.668681 
L 87.225751 149.668681 
L 87.225751 149.34603 
L 87.888413 149.34603 
L 87.959119 148.700727 
L 88.01266 148.700727 
L 88.02036 147.732774 
L 88.152611 147.732774 
L 88.228789 146.442169 
L 88.344418 146.442169 
L 88.344418 146.119517 
L 88.541413 146.119517 
L 88.586228 145.474215 
L 89.054887 145.474215 
L 89.060803 144.828912 
L 89.512443 144.828912 
L 89.512443 144.506261 
L 90.45991 144.506261 
L 90.515194 143.860959 
L 90.75011 143.860959 
L 90.802632 143.215656 
L 90.939949 143.215656 
L 90.939949 142.893005 
L 91.330252 142.893005 
L 91.330252 142.570354 
L 91.617924 142.570354 
L 91.617924 142.247702 
L 91.745286 142.247702 
L 91.854487 141.6024 
L 91.883919 141.6024 
L 91.883919 141.279749 
L 92.266169 141.279749 
L 92.343946 140.311795 
L 92.663232 140.311795 
L 92.762354 139.343841 
L 92.796363 139.343841 
L 92.796363 139.02119 
L 93.06521 139.02119 
L 93.108022 138.375888 
L 93.366661 138.375888 
L 93.366661 138.053236 
L 93.870735 138.053236 
L 93.870735 137.730585 
L 94.21874 137.730585 
L 94.21874 137.407934 
L 94.503032 137.407934 
L 94.503032 137.085283 
L 94.653924 137.085283 
L 94.722478 136.43998 
L 94.892491 136.43998 
L 94.892491 136.117329 
L 95.116334 136.117329 
L 95.116334 135.794678 
L 95.51167 135.794678 
L 95.614543 135.149375 
L 95.859657 135.149375 
L 95.955899 134.504073 
L 96.098583 134.504073 
L 96.179314 133.85877 
L 96.392309 133.85877 
L 96.392309 133.536119 
L 96.810539 133.536119 
L 96.810539 133.213468 
L 97.0703 133.213468 
L 97.175138 132.568165 
L 97.224246 132.568165 
L 97.224246 132.245514 
L 97.788803 132.245514 
L 97.788803 131.922863 
L 97.915873 131.922863 
L 97.915873 131.600212 
L 98.378985 131.600212 
L 98.488294 130.954909 
L 98.664887 130.954909 
L 98.664887 130.632258 
L 98.821504 130.632258 
L 98.821504 130.309607 
L 98.979416 130.309607 
L 98.979416 129.986955 
L 99.095183 129.986955 
L 99.182444 129.341653 
L 99.391438 129.341653 
L 99.391438 129.019002 
L 99.548509 129.019002 
L 99.548509 128.69635 
L 99.798119 128.69635 
L 99.798119 128.373699 
L 100.334039 128.373699 
L 100.334039 128.051048 
L 100.456756 128.051048 
L 100.563426 127.083094 
L 100.620948 127.083094 
L 100.620948 126.760443 
L 100.779795 126.760443 
L 100.779795 126.437792 
L 100.944319 126.437792 
L 100.944319 126.11514 
L 101.12464 126.11514 
L 101.12464 125.792489 
L 101.265153 125.792489 
L 101.278837 125.147187 
L 101.395974 125.147187 
L 101.395974 124.824536 
L 101.628105 124.824536 
L 101.628105 124.501884 
L 101.819985 124.501884 
L 101.850782 123.856582 
L 102.031127 123.856582 
L 102.050678 123.211279 
L 102.380787 123.211279 
L 102.380787 122.888628 
L 102.529048 122.888628 
L 102.529048 122.565977 
L 102.716427 122.565977 
L 102.778623 121.920674 
L 102.877666 121.920674 
L 102.877666 121.598023 
L 103.507677 121.598023 
L 103.507677 121.275372 
L 103.992699 121.275372 
L 103.992699 120.952721 
L 104.331388 120.952721 
L 104.335809 120.307418 
L 104.633531 120.307418 
L 104.633531 119.984767 
L 104.876226 119.984767 
L 104.945232 119.339464 
L 105.404912 119.339464 
L 105.404912 119.016813 
L 105.598617 119.016813 
L 105.701698 117.726208 
L 105.72815 117.726208 
L 105.72815 117.403557 
L 105.965987 117.403557 
L 106.036659 116.758255 
L 106.167398 116.758255 
L 106.167398 116.435603 
L 106.357822 116.435603 
L 106.357822 116.112952 
L 106.858353 116.112952 
L 106.87674 115.46765 
L 107.338764 115.46765 
L 107.338764 115.144998 
L 107.90524 115.144998 
L 107.90524 114.822347 
L 108.020429 114.822347 
L 108.020429 114.499696 
L 108.161881 114.499696 
L 108.161881 114.177045 
L 108.341495 114.177045 
L 108.368416 113.531742 
L 108.609319 113.531742 
L 108.609319 113.209091 
L 109.448226 113.209091 
L 109.448226 112.88644 
L 109.884419 112.88644 
L 109.884419 112.563788 
L 110.051777 112.563788 
L 110.051777 112.241137 
L 110.241998 112.241137 
L 110.241998 111.918486 
L 110.615123 111.918486 
L 110.670762 111.273183 
L 110.824639 111.273183 
L 110.824639 110.950532 
L 111.406366 110.950532 
L 111.486272 110.30523 
L 111.611846 110.30523 
L 111.611846 109.982579 
L 112.174435 109.982579 
L 112.174435 109.659927 
L 112.28977 109.659927 
L 112.28977 109.337276 
L 113.145389 109.337276 
L 113.145389 109.014625 
L 113.365821 109.014625 
L 113.365821 108.691974 
L 113.522451 108.691974 
L 113.522451 108.369322 
L 113.777666 108.369322 
L 113.777666 108.046671 
L 113.89117 108.046671 
L 113.998073 107.401369 
L 114.12849 107.401369 
L 114.12849 107.078717 
L 114.865993 107.078717 
L 114.876867 106.433415 
L 115.080837 106.433415 
L 115.080837 106.110764 
L 115.872933 106.110764 
L 115.872933 105.788112 
L 116.13174 105.788112 
L 116.13174 105.465461 
L 117.087581 105.465461 
L 117.087581 105.14281 
L 117.270406 105.14281 
L 117.270406 104.820159 
L 117.434582 104.820159 
L 117.434582 104.497507 
L 118.012577 104.497507 
L 118.012577 104.174856 
L 118.607129 104.174856 
L 118.607129 103.852205 
L 119.341798 103.852205 
L 119.341798 103.529554 
L 119.700538 103.529554 
L 119.700538 103.206902 
L 119.959852 103.206902 
L 119.959852 102.884251 
L 120.573326 102.884251 
L 120.573326 102.5616 
L 121.820748 102.5616 
L 121.820748 102.238949 
L 122.03892 102.238949 
L 122.126501 101.270995 
L 122.30181 101.270995 
L 122.30181 100.948344 
L 122.507966 100.948344 
L 122.543465 100.303041 
L 122.879434 100.303041 
L 122.879434 99.98039 
L 123.10764 99.98039 
L 123.10764 99.657739 
L 123.232862 99.657739 
L 123.241449 99.012436 
L 123.418465 99.012436 
L 123.486745 98.367134 
L 123.758581 98.367134 
L 123.758581 98.044483 
L 123.929774 98.044483 
L 123.929774 97.721831 
L 124.318216 97.721831 
L 124.318216 97.39918 
L 124.480741 97.39918 
L 124.517812 96.753878 
L 124.756498 96.753878 
L 124.834088 96.108575 
L 125.538273 96.108575 
L 125.538273 95.785924 
L 125.942396 95.785924 
L 126.018263 95.140621 
L 126.116213 95.140621 
L 126.224449 94.495319 
L 126.256397 94.495319 
L 126.256397 94.172668 
L 126.416066 94.172668 
L 126.451093 93.204714 
L 126.8058 93.204714 
L 126.8058 92.882063 
L 127.031413 92.882063 
L 127.031413 92.559412 
L 127.328371 92.559412 
L 127.328371 92.23676 
L 127.452317 92.23676 
L 127.532565 91.268807 
L 127.684938 91.268807 
L 127.756402 90.623504 
L 128.730941 90.623504 
L 128.730941 90.300853 
L 129.697034 90.300853 
L 129.697034 89.978202 
L 130.025564 89.978202 
L 130.118499 89.010248 
L 130.204204 89.010248 
L 130.204204 88.687597 
L 130.407959 88.687597 
L 130.484225 88.042294 
L 130.804533 88.042294 
L 130.804533 87.719643 
L 131.430026 87.719643 
L 131.430026 87.396992 
L 131.883229 87.396992 
L 131.883229 87.07434 
L 132.753207 87.07434 
L 132.753207 86.751689 
L 133.093101 86.751689 
L 133.144131 86.106387 
L 133.309277 86.106387 
L 133.309277 85.783736 
L 133.761308 85.783736 
L 133.761308 85.461084 
L 134.424108 85.461084 
L 134.47945 84.815782 
L 134.638371 84.815782 
L 134.638371 84.493131 
L 134.820446 84.493131 
L 134.918506 83.847828 
L 134.988994 83.847828 
L 135.006131 83.202526 
L 135.191547 83.202526 
L 135.191547 82.879874 
L 135.461163 82.879874 
L 135.461163 82.557223 
L 135.666603 82.557223 
L 135.77323 81.911921 
L 135.984605 81.911921 
L 135.984605 81.589269 
L 136.110012 81.589269 
L 136.205779 80.943967 
L 138.85591 80.943967 
L 138.85591 80.621316 
L 140.584285 80.621316 
L 140.633709 79.976013 
L 141.133645 79.976013 
L 141.133645 79.653362 
L 141.842131 79.653362 
L 141.842131 79.330711 
L 142.14045 79.330711 
L 142.14045 79.00806 
L 142.27119 79.00806 
L 142.27119 78.685408 
L 142.408015 78.685408 
L 142.408015 78.362757 
L 143.186739 78.362757 
L 143.186739 78.040106 
L 144.374409 78.040106 
L 144.374409 77.717455 
L 144.55211 77.717455 
L 144.645483 77.072152 
L 144.861805 77.072152 
L 144.861805 76.749501 
L 146.237912 76.749501 
L 146.237912 76.42685 
L 146.512513 76.42685 
L 146.512513 76.104198 
L 146.702192 76.104198 
L 146.796579 75.458896 
L 147.334122 75.458896 
L 147.334122 75.136245 
L 147.708333 75.136245 
L 147.771235 74.490942 
L 148.026064 74.490942 
L 148.056773 73.84564 
L 148.842339 73.84564 
L 148.929194 73.200337 
L 149.098173 73.200337 
L 149.098173 72.877686 
L 149.749102 72.877686 
L 149.749102 72.555035 
L 150.249597 72.555035 
L 150.249597 72.232383 
L 150.798445 72.232383 
L 150.798445 71.909732 
L 151.096364 71.909732 
L 151.096364 71.587081 
L 151.389321 71.587081 
L 151.389321 71.26443 
L 152.68378 71.26443 
L 152.707498 70.619127 
L 153.815437 70.619127 
L 153.851849 69.973825 
L 154.732774 69.973825 
L 154.732774 69.651174 
L 155.845977 69.651174 
L 155.845977 69.328522 
L 156.386623 69.328522 
L 156.386623 69.005871 
L 156.523844 69.005871 
L 156.527058 68.360569 
L 156.873971 68.360569 
L 156.873971 68.037917 
L 156.989526 68.037917 
L 157.085307 67.392615 
L 157.570818 67.392615 
L 157.570818 67.069964 
L 157.824355 67.069964 
L 157.895412 66.424661 
L 158.579794 66.424661 
L 158.579794 66.10201 
L 160.174961 66.10201 
L 160.174961 65.779359 
L 161.900027 65.779359 
L 161.920827 65.134056 
L 165.704108 65.134056 
L 165.704108 64.811405 
L 166.602135 64.811405 
L 166.602135 64.488754 
L 166.740042 64.488754 
L 166.740042 64.166102 
L 167.069854 64.166102 
L 167.069854 63.843451 
L 168.733628 63.843451 
L 168.776427 63.198149 
L 169.384149 63.198149 
L 169.403786 62.552846 
L 172.949922 62.552846 
L 172.949922 62.230195 
L 173.438684 62.230195 
L 173.438684 61.907544 
L 174.028649 61.907544 
L 174.028649 61.584893 
L 176.459164 61.584893 
L 176.459164 61.262241 
L 177.76209 61.262241 
L 177.76209 60.93959 
L 177.948642 60.93959 
L 177.948642 60.616939 
L 179.144576 60.616939 
L 179.144576 60.294288 
L 179.86169 60.294288 
L 179.86169 59.971636 
L 180.588376 59.971636 
L 180.588376 59.648985 
L 181.520737 59.648985 
L 181.520737 59.326334 
L 183.670566 59.326334 
L 183.670566 59.003683 
L 186.055958 59.003683 
L 186.142245 58.035729 
L 187.20989 58.035729 
L 187.20989 57.713078 
L 188.300626 57.713078 
L 188.300626 57.390426 
L 189.845903 57.390426 
L 189.845903 57.067775 
L 190.266277 57.067775 
L 190.266277 56.745124 
L 190.493605 56.745124 
L 190.493605 56.422473 
L 191.080998 56.422473 
L 191.080998 56.099821 
L 191.778443 56.099821 
L 191.778443 55.77717 
L 192.23671 55.77717 
L 192.23671 55.454519 
L 192.402347 55.454519 
L 192.402347 55.131868 
L 194.026151 55.131868 
L 194.026151 54.809217 
L 194.624979 54.809217 
L 194.624979 54.486565 
L 195.57607 54.486565 
L 195.57607 54.163914 
L 196.559963 54.163914 
L 196.559963 53.841263 
L 196.782457 53.841263 
L 196.782457 53.518612 
L 197.050682 53.518612 
L 197.050682 53.19596 
L 197.701838 53.19596 
L 197.701838 52.873309 
L 197.820632 52.873309 
L 197.854975 52.228007 
L 197.988111 52.228007 
L 197.988111 51.905355 
L 198.718541 51.905355 
L 198.805548 51.260053 
L 203.402178 51.260053 
L 203.402178 50.937402 
L 204.924101 50.937402 
L 204.924101 50.61475 
L 205.159509 50.61475 
L 205.159509 50.292099 
L 206.425818 50.292099 
L 206.425818 49.969448 
L 207.221707 49.969448 
L 207.221707 49.646797 
L 207.420532 49.646797 
L 207.420532 49.324145 
L 208.384354 49.324145 
L 208.384354 49.001494 
L 209.332367 49.001494 
L 209.397914 48.356192 
L 211.381913 48.356192 
L 211.381913 48.03354 
L 216.00061 48.03354 
L 216.00061 47.710889 
L 216.563115 47.710889 
L 216.563115 47.388238 
L 217.038226 47.388238 
L 217.038226 47.065587 
L 217.96878 47.065587 
L 217.96878 46.742936 
L 218.503674 46.742936 
L 218.503674 46.420284 
L 220.557246 46.420284 
L 220.557246 46.097633 
L 221.028031 46.097633 
L 221.028031 45.774982 
L 224.606462 45.774982 
L 224.606462 45.452331 
L 225.006656 45.452331 
L 225.006656 45.129679 
L 225.71432 45.129679 
L 225.71432 44.807028 
L 227.128493 44.807028 
L 227.128493 44.484377 
L 229.003618 44.484377 
L 229.003618 44.161726 
L 229.351426 44.161726 
L 229.351426 43.839074 
L 231.463566 43.839074 
L 231.463566 43.516423 
L 232.016118 43.516423 
L 232.016118 43.193772 
L 232.202243 43.193772 
L 232.202243 42.871121 
L 235.631633 42.871121 
L 235.631633 42.548469 
L 237.687908 42.548469 
L 237.687908 42.225818 
L 242.061469 42.225818 
L 242.061469 41.903167 
L 244.454513 41.903167 
L 244.454513 41.580516 
L 245.520313 41.580516 
L 245.589484 40.935213 
L 246.888231 40.935213 
L 246.888231 40.612562 
L 250.209569 40.612562 
L 250.209569 40.289911 
L 252.979524 40.289911 
L 252.979524 39.96726 
L 254.965502 39.96726 
L 254.965502 39.644608 
L 259.668685 39.644608 
L 259.668685 39.321957 
L 261.657209 39.321957 
L 261.657209 38.999306 
L 262.362742 38.999306 
L 262.362742 38.676655 
L 262.598003 38.676655 
L 262.598003 38.354003 
L 264.951692 38.354003 
L 264.951692 38.031352 
L 266.71791 38.031352 
L 266.71791 37.708701 
L 267.689438 37.708701 
L 267.689438 37.38605 
L 274.681251 37.38605 
L 274.681251 37.063398 
L 290.18751 37.063398 
L 290.18751 36.740747 
L 292.649841 36.740747 
L 292.649841 36.418096 
L 299.2355 36.418096 
L 299.2355 36.095445 
L 299.924587 36.095445 
L 299.924587 35.772793 
L 304.995306 35.772793 
L 304.995306 35.450142 
L 305.608043 35.450142 
L 305.608043 35.127491 
L 308.254287 35.127491 
L 308.254287 34.80484 
L 312.353536 34.80484 
L 312.353536 34.482188 
L 314.05699 34.482188 
L 314.05699 34.159537 
L 316.640719 34.159537 
L 316.640719 33.836886 
L 319.165638 33.836886 
L 319.165638 33.514235 
L 327.671166 33.514235 
L 327.671166 33.191583 
L 374.529369 33.191583 
L 374.529369 32.868932 
L 420.923744 32.868932 
L 420.923744 32.546281 
L 432.375834 32.546281 
L 432.375834 32.546281 
" clip-path="url(#pffaba41637)" style="fill: none; stroke: #f59e0b; stroke-opacity: 0.9; stroke-width: 1.4; stroke-linecap: square"/>
   </g>
   <g id="patch_3">
    <path d="M 49.443438 201.938182 
L 49.443438 24.48 
" style="fill: none; stroke: #262a33; stroke-width: 0.8; stroke-linejoin: miter; stroke-linecap: square"/>
   </g>
   <g id="patch_4">
    <path d="M 450.61071 201.938182 
L 450.61071 24.48 
" style="fill: none; stroke: #262a33; stroke-width: 0.8; stroke-linejoin: miter; stroke-linecap: square"/>
   </g>
   <g id="patch_5">
    <path d="M 49.443438 201.938182 
L 450.61071 201.938182 
" style="fill: none; stroke: #262a33; stroke-width: 0.8; stroke-linejoin: miter; stroke-linecap: square"/>
   </g>
   <g id="patch_6">
    <path d="M 49.443438 24.48 
L 450.61071 24.48 
" style="fill: none; stroke: #262a33; stroke-width: 0.8; stroke-linejoin: miter; stroke-linecap: square"/>
   </g>
   <g id="text_16">
    <!-- Сходимость $F_n^*\to F$: $\mathrm{Exp}(1)$ -->
    <g style="fill: #c9d1e0" transform="translate(167.947074 18.48) scale(0.12 -0.12)">
     <defs>
      <path id="DejaVuSans-3b5" d="M 4122 4306 
L 4122 3641 
Q 3803 3938 3442 4084 
Q 3081 4231 2675 4231 
Q 1875 4231 1450 3742 
Q 1025 3253 1025 2328 
Q 1025 1406 1450 917 
Q 1875 428 2675 428 
Q 3081 428 3442 575 
Q 3803 722 4122 1019 
L 4122 359 
Q 3791 134 3420 21 
Q 3050 -91 2638 -91 
Q 1578 -91 968 557 
Q 359 1206 359 2328 
Q 359 3453 968 4101 
Q 1578 4750 2638 4750 
Q 3056 4750 3426 4639 
Q 3797 4528 4122 4306 
z
" transform="scale(0.015625)"/>
      <path id="DejaVuSans-3d9" d="M 3513 3500 
L 2247 1797 
L 3578 0 
L 2900 0 
L 1881 1375 
L 863 0 
L 184 0 
L 1544 1831 
L 300 3500 
L 978 3500 
L 1906 2253 
L 2834 3500 
L 3513 3500 
z
" transform="scale(0.015625)"/>
      <path id="DejaVuSans-3d2" d="M 1959 3097 
Q 1497 3097 1228 2736 
Q 959 2375 959 1747 
Q 959 1119 1226 758 
Q 1494 397 1959 397 
Q 2419 397 2687 759 
Q 2956 1122 2956 1747 
Q 2956 2369 2687 2733 
Q 2419 3097 1959 3097 
z
M 1959 3584 
Q 2709 3584 3137 3096 
Q 3566 2609 3566 1747 
Q 3566 888 3137 398 
Q 2709 -91 1959 -91 
Q 1206 -91 779 398 
Q 353 888 353 1747 
Q 353 2609 779 3096 
Q 1206 3584 1959 3584 
z
" transform="scale(0.015625)"/>
      <path id="DejaVuSans-3c8" d="M 1384 459 
L 3053 459 
L 3053 3041 
L 1844 3041 
L 1844 2603 
Q 1844 1316 1475 628 
L 1384 459 
z
M 550 459 
Q 834 584 959 850 
Q 1266 1509 1266 2838 
L 1266 3500 
L 3631 3500 
L 3631 459 
L 4091 459 
L 4091 -884 
L 3631 -884 
L 3631 0 
L 794 0 
L 794 -884 
L 334 -884 
L 334 459 
L 550 459 
z
" transform="scale(0.015625)"/>
      <path id="DejaVuSans-3cc" d="M 3578 3500 
L 3578 0 
L 3006 0 
L 3006 2809 
L 1319 0 
L 581 0 
L 581 3500 
L 1153 3500 
L 1153 697 
L 2838 3500 
L 3578 3500 
z
" transform="scale(0.015625)"/>
      <path id="DejaVuSans-3d0" d="M 581 3500 
L 1422 3500 
L 2416 1156 
L 3413 3500 
L 4247 3500 
L 4247 0 
L 3669 0 
L 3669 2950 
L 2703 672 
L 2128 672 
L 1159 2950 
L 1159 0 
L 581 0 
L 581 3500 
z
" transform="scale(0.015625)"/>
      <path id="DejaVuSans-3d5" d="M 3122 3366 
L 3122 2828 
Q 2878 2963 2633 3030 
Q 2388 3097 2138 3097 
Q 1578 3097 1268 2742 
Q 959 2388 959 1747 
Q 959 1106 1268 751 
Q 1578 397 2138 397 
Q 2388 397 2633 464 
Q 2878 531 3122 666 
L 3122 134 
Q 2881 22 2623 -34 
Q 2366 -91 2075 -91 
Q 1284 -91 818 406 
Q 353 903 353 1747 
Q 353 2603 823 3093 
Q 1294 3584 2113 3584 
Q 2378 3584 2631 3529 
Q 2884 3475 3122 3366 
z
" transform="scale(0.015625)"/>
      <path id="DejaVuSans-3d6" d="M 188 3500 
L 3541 3500 
L 3541 3041 
L 2147 3041 
L 2147 0 
L 1581 0 
L 1581 3041 
L 188 3041 
L 188 3500 
z
" transform="scale(0.015625)"/>
      <path id="DejaVuSans-3e0" d="M 2781 1038 
Q 2781 1319 2576 1466 
Q 2372 1613 1978 1613 
L 1159 1613 
L 1159 459 
L 1978 459 
Q 2372 459 2576 607 
Q 2781 756 2781 1038 
z
M 581 3500 
L 1159 3500 
L 1159 2072 
L 2003 2072 
Q 2672 2072 3033 1817 
Q 3394 1563 3394 1038 
Q 3394 513 3033 256 
Q 2672 0 2003 0 
L 581 0 
L 581 3500 
z
" transform="scale(0.015625)"/>
      <path id="DejaVuSans-3" transform="scale(0.015625)"/>
      <path id="DejaVuSans-c1c" d="M 5050 2147 
L 5050 1866 
L 3822 638 
L 3447 1013 
L 4175 1741 
L 366 1741 
L 366 2272 
L 4175 2272 
L 3447 3000 
L 3822 3375 
L 5050 2147 
z
" transform="scale(0.015625)"/>
      <path id="DejaVuSans-1d" d="M 750 794 
L 1409 794 
L 1409 0 
L 750 0 
L 750 794 
z
M 750 3309 
L 1409 3309 
L 1409 2516 
L 750 2516 
L 750 3309 
z
" transform="scale(0.015625)"/>
      <path id="DejaVuSans-28" d="M 628 4666 
L 3578 4666 
L 3578 4134 
L 1259 4134 
L 1259 2753 
L 3481 2753 
L 3481 2222 
L 1259 2222 
L 1259 531 
L 3634 531 
L 3634 0 
L 628 0 
L 628 4666 
z
" transform="scale(0.015625)"/>
      <path id="DejaVuSans-5b" d="M 3513 3500 
L 2247 1797 
L 3578 0 
L 2900 0 
L 1881 1375 
L 863 0 
L 184 0 
L 1544 1831 
L 300 3500 
L 978 3500 
L 1906 2253 
L 2834 3500 
L 3513 3500 
z
" transform="scale(0.015625)"/>
      <path id="DejaVuSans-53" d="M 1159 525 
L 1159 -1331 
L 581 -1331 
L 581 3500 
L 1159 3500 
L 1159 2969 
Q 1341 3281 1617 3432 
Q 1894 3584 2278 3584 
Q 2916 3584 3314 3078 
Q 3713 2572 3713 1747 
Q 3713 922 3314 415 
Q 2916 -91 2278 -91 
Q 1894 -91 1617 61 
Q 1341 213 1159 525 
z
M 3116 1747 
Q 3116 2381 2855 2742 
Q 2594 3103 2138 3103 
Q 1681 3103 1420 2742 
Q 1159 2381 1159 1747 
Q 1159 1113 1420 752 
Q 1681 391 2138 391 
Q 2594 391 2855 752 
Q 3116 1113 3116 1747 
z
" transform="scale(0.015625)"/>
     </defs>
     <use xlink:href="#DejaVuSans-3b5" transform="translate(0 0.746875)"/>
     <use xlink:href="#DejaVuSans-3d9" transform="translate(69.824219 0.746875)"/>
     <use xlink:href="#DejaVuSans-3d2" transform="translate(129.003906 0.746875)"/>
     <use xlink:href="#DejaVuSans-3c8" transform="translate(190.185547 0.746875)"/>
     <use xlink:href="#DejaVuSans-3cc" transform="translate(259.326172 0.746875)"/>
     <use xlink:href="#DejaVuSans-3d0" transform="translate(324.316406 0.746875)"/>
     <use xlink:href="#DejaVuSans-3d2" transform="translate(399.755859 0.746875)"/>
     <use xlink:href="#DejaVuSans-3d5" transform="translate(460.9375 0.746875)"/>
     <use xlink:href="#DejaVuSans-3d6" transform="translate(515.917969 0.746875)"/>
     <use xlink:href="#DejaVuSans-3e0" transform="translate(574.169922 0.746875)"/>
     <use xlink:href="#DejaVuSans-3" transform="translate(633.105469 0.746875)"/>
     <use xlink:href="#DejaVuSans-Oblique-29" transform="translate(664.892578 0.746875)"/>
     <use xlink:href="#DejaVuSans-d" transform="translate(743.066576 42.046875) scale(0.7)"/>
     <use xlink:href="#DejaVuSans-Oblique-51" transform="translate(722.412109 -30.153125) scale(0.7)"/>
     <use xlink:href="#DejaVuSans-c1c" transform="translate(813.921068 0.746875)"/>
     <use xlink:href="#DejaVuSans-Oblique-29" transform="translate(917.192552 0.746875)"/>
     <use xlink:href="#DejaVuSans-1d" transform="translate(974.712083 0.746875)"/>
     <use xlink:href="#DejaVuSans-3" transform="translate(1008.40349 0.746875)"/>
     <use xlink:href="#DejaVuSans-28" transform="translate(1040.190599 0.746875)"/>
     <use xlink:href="#DejaVuSans-5b" transform="translate(1103.374193 0.746875)"/>
     <use xlink:href="#DejaVuSans-53" transform="translate(1162.55388 0.746875)"/>
     <use xlink:href="#DejaVuSans-b" transform="translate(1226.030443 0.746875)"/>
     <use xlink:href="#DejaVuSans-14" transform="translate(1265.044115 0.746875)"/>
     <use xlink:href="#DejaVuSans-c" transform="translate(1328.667161 0.746875)"/>
    </g>
   </g>
   <g id="line2d_30">
    <path d="M 67.678314 193.871901 
L 71.549847 183.324818 
L 75.42138 173.467278 
L 79.292913 164.254201 
L 83.164446 155.643452 
L 87.035979 147.595654 
L 90.907512 140.074001 
L 94.779045 133.044097 
L 98.650578 126.47379 
L 102.522111 120.333034 
L 106.393644 114.593747 
L 110.265177 109.22968 
L 114.13671 104.216303 
L 118.438413 99.029352 
L 122.740117 94.217795 
L 127.04182 89.754463 
L 131.343523 85.614154 
L 135.645227 81.77349 
L 139.94693 78.210786 
L 144.678804 74.588889 
L 149.410677 71.254263 
L 154.142551 68.184125 
L 159.304595 65.111925 
L 164.466639 62.304567 
L 169.628683 59.73922 
L 175.220897 57.209045 
L 180.813112 54.914291 
L 186.835497 52.681219 
L 193.288052 50.535429 
L 199.740607 48.618318 
L 206.623332 46.798043 
L 213.936228 45.089343 
L 221.679294 43.502885 
L 230.2827 41.974356 
L 239.316278 40.598349 
L 249.210195 39.320615 
L 259.964454 38.160643 
L 272.009223 37.095599 
L 285.344503 36.150443 
L 300.400465 35.317122 
L 317.607279 34.597943 
L 325.350345 34.338447 
L 325.350345 34.338447 
" clip-path="url(#pffaba41637)" style="fill: none; stroke-dasharray: 6.66,2.88; stroke-dashoffset: 0; stroke: #7a8499; stroke-width: 1.8"/>
   </g>
   <g id="legend_1">
    <g id="patch_7">
     <path d="M 354.94071 197.438182 
L 444.31071 197.438182 
Q 446.11071 197.438182 446.11071 195.638182 
L 446.11071 142.173963 
Q 446.11071 140.373963 444.31071 140.373963 
L 354.94071 140.373963 
Q 353.14071 140.373963 353.14071 142.173963 
L 353.14071 195.638182 
Q 353.14071 197.438182 354.94071 197.438182 
z
" style="fill: #13151b; opacity: 0.8; stroke: #cccccc; stroke-linejoin: miter"/>
    </g>
    <g id="line2d_31">
     <path d="M 356.74071 148.023963 
L 365.74071 148.023963 
L 374.74071 148.023963 
" style="fill: none; stroke-dasharray: 6.66,2.88; stroke-dashoffset: 0; stroke: #7a8499; stroke-width: 1.8"/>
    </g>
    <g id="text_17">
     <!-- $F(x)=1-e^{-x}$ -->
     <g style="fill: #c9d1e0" transform="translate(381.94071 151.173963) scale(0.09 -0.09)">
      <defs>
       <path id="DejaVuSans-20" d="M 678 2906 
L 4684 2906 
L 4684 2381 
L 678 2381 
L 678 2906 
z
M 678 1631 
L 4684 1631 
L 4684 1100 
L 678 1100 
L 678 1631 
z
" transform="scale(0.015625)"/>
       <path id="DejaVuSans-c9c" d="M 678 2272 
L 4684 2272 
L 4684 1741 
L 678 1741 
L 678 2272 
z
" transform="scale(0.015625)"/>
       <path id="DejaVuSans-Oblique-48" d="M 3078 2063 
Q 3088 2113 3092 2166 
Q 3097 2219 3097 2272 
Q 3097 2653 2873 2875 
Q 2650 3097 2266 3097 
Q 1838 3097 1509 2826 
Q 1181 2556 1013 2059 
L 3078 2063 
z
M 3578 1613 
L 903 1613 
Q 884 1494 878 1425 
Q 872 1356 872 1306 
Q 872 872 1139 634 
Q 1406 397 1894 397 
Q 2269 397 2603 481 
Q 2938 566 3225 728 
L 3116 159 
Q 2806 34 2476 -28 
Q 2147 -91 1806 -91 
Q 1078 -91 686 257 
Q 294 606 294 1247 
Q 294 1794 489 2264 
Q 684 2734 1063 3103 
Q 1306 3334 1642 3459 
Q 1978 3584 2356 3584 
Q 2950 3584 3301 3228 
Q 3653 2872 3653 2272 
Q 3653 2128 3634 1964 
Q 3616 1800 3578 1613 
z
" transform="scale(0.015625)"/>
      </defs>
      <use xlink:href="#DejaVuSans-Oblique-29" transform="translate(0 0.41875)"/>
      <use xlink:href="#DejaVuSans-b" transform="translate(57.519531 0.41875)"/>
      <use xlink:href="#DejaVuSans-Oblique-5b" transform="translate(96.533203 0.41875)"/>
      <use xlink:href="#DejaVuSans-c" transform="translate(155.712891 0.41875)"/>
      <use xlink:href="#DejaVuSans-20" transform="translate(214.208984 0.41875)"/>
      <use xlink:href="#DejaVuSans-14" transform="translate(317.480469 0.41875)"/>
      <use xlink:href="#DejaVuSans-c9c" transform="translate(400.585938 0.41875)"/>
      <use xlink:href="#DejaVuSans-Oblique-48" transform="translate(503.857422 0.41875)"/>
      <use xlink:href="#DejaVuSans-c9c" transform="translate(570.030755 41.71875) scale(0.7)"/>
      <use xlink:href="#DejaVuSans-Oblique-5b" transform="translate(628.683099 41.71875) scale(0.7)"/>
     </g>
    </g>
    <g id="line2d_32">
     <path d="M 356.74071 161.524666 
L 365.74071 161.524666 
L 365.74071 161.524666 
L 374.74071 161.524666 
L 374.74071 161.524666 
" style="fill: none; stroke: #22c55e; stroke-opacity: 0.65; stroke-width: 1.4; stroke-linecap: square"/>
    </g>
    <g id="text_18">
     <!-- $n=20$ -->
     <g style="fill: #c9d1e0" transform="translate(381.94071 164.674666) scale(0.09 -0.09)">
      <use xlink:href="#DejaVuSans-Oblique-51" transform="translate(0 0.78125)"/>
      <use xlink:href="#DejaVuSans-20" transform="translate(82.861328 0.78125)"/>
      <use xlink:href="#DejaVuSans-15" transform="translate(186.132812 0.78125)"/>
      <use xlink:href="#DejaVuSans-13" transform="translate(249.755859 0.78125)"/>
     </g>
    </g>
    <g id="line2d_33">
     <path d="M 356.74071 175.025369 
L 365.74071 175.025369 
L 365.74071 175.025369 
L 374.74071 175.025369 
L 374.74071 175.025369 
" style="fill: none; stroke: #3b82f6; stroke-opacity: 0.75; stroke-width: 1.4; stroke-linecap: square"/>
    </g>
    <g id="text_19">
     <!-- $n=100$ -->
     <g style="fill: #c9d1e0" transform="translate(381.94071 178.175369) scale(0.09 -0.09)">
      <use xlink:href="#DejaVuSans-Oblique-51" transform="translate(0 0.78125)"/>
      <use xlink:href="#DejaVuSans-20" transform="translate(82.861328 0.78125)"/>
      <use xlink:href="#DejaVuSans-14" transform="translate(186.132812 0.78125)"/>
      <use xlink:href="#DejaVuSans-13" transform="translate(249.755859 0.78125)"/>
      <use xlink:href="#DejaVuSans-13" transform="translate(313.378906 0.78125)"/>
     </g>
    </g>
    <g id="line2d_34">
     <path d="M 356.74071 188.526072 
L 365.74071 188.526072 
L 365.74071 188.526072 
L 374.74071 188.526072 
L 374.74071 188.526072 
" style="fill: none; stroke: #f59e0b; stroke-opacity: 0.9; stroke-width: 1.4; stroke-linecap: square"/>
    </g>
    <g id="text_20">
     <!-- $n=500$ -->
     <g style="fill: #c9d1e0" transform="translate(381.94071 191.676072) scale(0.09 -0.09)">
      <use xlink:href="#DejaVuSans-Oblique-51" transform="translate(0 0.78125)"/>
      <use xlink:href="#DejaVuSans-20" transform="translate(82.861328 0.78125)"/>
      <use xlink:href="#DejaVuSans-18" transform="translate(186.132812 0.78125)"/>
      <use xlink:href="#DejaVuSans-13" transform="translate(249.755859 0.78125)"/>
      <use xlink:href="#DejaVuSans-13" transform="translate(313.378906 0.78125)"/>
     </g>
    </g>
   </g>
  </g>
 </g>
 <defs>
  <clipPath id="pffaba41637">
   <rect x="49.443438" y="24.48" width="401.167273" height="177.458182"/>
  </clipPath>
 </defs>
</svg>
