<?xml version="1.0" encoding="utf-8" standalone="no"?>
<!DOCTYPE svg PUBLIC "-//W3C//DTD SVG 1.1//EN"
  "http://www.w3.org/Graphics/SVG/1.1/DTD/svg11.dtd">
<svg xmlns:xlink="http://www.w3.org/1999/xlink" width="638.25946pt" height="221.04pt" viewBox="0 0 638.25946 221.04" xmlns="http://www.w3.org/2000/svg" version="1.1">
 <metadata>
  <rdf:RDF xmlns:dc="http://purl.org/dc/elements/1.1/" xmlns:cc="http://creativecommons.org/ns#" xmlns:rdf="http://www.w3.org/1999/02/22-rdf-syntax-ns#">
   <cc:Work>
    <dc:type rdf:resource="http://purl.org/dc/dcmitype/StillImage"/>
    <dc:date>2026-06-19T18:04:40.742550</dc:date>
    <dc:format>image/svg+xml</dc:format>
    <dc:creator>
     <cc:Agent>
      <dc:title>Matplotlib v3.11.0, https://matplotlib.org/</dc:title>
     </cc:Agent>
    </dc:creator>
   </cc:Work>
  </rdf:RDF>
 </metadata>
 <defs>
  <style type="text/css">*{stroke-linejoin: round; stroke-linecap: butt}</style>
 </defs>
 <g id="figure_1">
  <g id="patch_1">
   <path d="M 0 221.04 
L 638.25946 221.04 
L 638.25946 0 
L 0 0 
z
" style="fill: #0b0d12"/>
  </g>
  <g id="axes_1">
   <g id="patch_2">
    <path d="M 53.692188 180.84 
L 312.99946 180.84 
L 312.99946 22.317187 
L 53.692188 22.317187 
z
" style="fill: #13151b"/>
   </g>
   <g id="patch_3">
    <path d="M 65.478882 180.84 
L 100.588184 180.84 
L 100.588184 55.028244 
L 65.478882 55.028244 
z
" clip-path="url(#p230b8558ed)" style="fill: #22c55e; opacity: 0.75; stroke: #000000; stroke-width: 0.6; stroke-linejoin: miter"/>
   </g>
   <g id="patch_4">
    <path d="M 115.635027 180.84 
L 150.744329 180.84 
L 150.744329 29.865893 
L 115.635027 29.865893 
z
" clip-path="url(#p230b8558ed)" style="fill: #22c55e; opacity: 0.75; stroke: #000000; stroke-width: 0.6; stroke-linejoin: miter"/>
   </g>
   <g id="patch_5">
    <path d="M 165.791173 180.84 
L 200.900475 180.84 
L 200.900475 29.865893 
L 165.791173 29.865893 
z
" clip-path="url(#p230b8558ed)" style="fill: #22c55e; opacity: 0.75; stroke: #000000; stroke-width: 0.6; stroke-linejoin: miter"/>
   </g>
   <g id="patch_6">
    <path d="M 215.947319 180.84 
L 251.05662 180.84 
L 251.05662 29.865893 
L 215.947319 29.865893 
z
" clip-path="url(#p230b8558ed)" style="fill: #22c55e; opacity: 0.75; stroke: #000000; stroke-width: 0.6; stroke-linejoin: miter"/>
   </g>
   <g id="patch_7">
    <path d="M 266.103464 180.84 
L 301.212766 180.84 
L 301.212766 155.677649 
L 266.103464 155.677649 
z
" clip-path="url(#p230b8558ed)" style="fill: #22c55e; opacity: 0.75; stroke: #000000; stroke-width: 0.6; stroke-linejoin: miter"/>
   </g>
   <g id="matplotlib.axis_1">
    <g id="xtick_1">
     <g id="line2d_1">
      <path d="M 83.033533 180.84 
L 83.033533 22.317187 
" clip-path="url(#p230b8558ed)" style="fill: none; stroke: #262a33; stroke-opacity: 0.5; stroke-width: 0.8; stroke-linecap: square"/>
     </g>
     <g id="line2d_2">
      <defs>
       <path id="m867736d46e" d="M 0 0 
L 0 3.5 
" style="stroke: #7a8499; stroke-width: 0.8"/>
      </defs>
      <g>
       <use xlink:href="#m867736d46e" x="83.033533" y="180.84" style="fill: #7a8499; stroke: #7a8499; stroke-width: 0.8"/>
      </g>
     </g>
     <g id="text_1">
      <!-- 7 -->
      <g style="fill: #7a8499" transform="translate(79.534158 196.197422) scale(0.11 -0.11)">
       <defs>
        <path id="DejaVuSans-1a" d="M 525 4666 
L 3525 4666 
L 3525 4397 
L 1831 0 
L 1172 0 
L 2766 4134 
L 525 4134 
L 525 4666 
z
" transform="scale(0.015625)"/>
       </defs>
       <use xlink:href="#DejaVuSans-1a"/>
      </g>
     </g>
    </g>
    <g id="xtick_2">
     <g id="line2d_3">
      <path d="M 133.189678 180.84 
L 133.189678 22.317187 
" clip-path="url(#p230b8558ed)" style="fill: none; stroke: #262a33; stroke-opacity: 0.5; stroke-width: 0.8; stroke-linecap: square"/>
     </g>
     <g id="line2d_4">
      <g>
       <use xlink:href="#m867736d46e" x="133.189678" y="180.84" style="fill: #7a8499; stroke: #7a8499; stroke-width: 0.8"/>
      </g>
     </g>
     <g id="text_2">
      <!-- 8 -->
      <g style="fill: #7a8499" transform="translate(129.690303 196.197422) scale(0.11 -0.11)">
       <defs>
        <path id="DejaVuSans-1b" d="M 2034 2216 
Q 1584 2216 1326 1975 
Q 1069 1734 1069 1313 
Q 1069 891 1326 650 
Q 1584 409 2034 409 
Q 2484 409 2743 651 
Q 3003 894 3003 1313 
Q 3003 1734 2745 1975 
Q 2488 2216 2034 2216 
z
M 1403 2484 
Q 997 2584 770 2862 
Q 544 3141 544 3541 
Q 544 4100 942 4425 
Q 1341 4750 2034 4750 
Q 2731 4750 3128 4425 
Q 3525 4100 3525 3541 
Q 3525 3141 3298 2862 
Q 3072 2584 2669 2484 
Q 3125 2378 3379 2068 
Q 3634 1759 3634 1313 
Q 3634 634 3220 271 
Q 2806 -91 2034 -91 
Q 1263 -91 848 271 
Q 434 634 434 1313 
Q 434 1759 690 2068 
Q 947 2378 1403 2484 
z
M 1172 3481 
Q 1172 3119 1398 2916 
Q 1625 2713 2034 2713 
Q 2441 2713 2670 2916 
Q 2900 3119 2900 3481 
Q 2900 3844 2670 4047 
Q 2441 4250 2034 4250 
Q 1625 4250 1398 4047 
Q 1172 3844 1172 3481 
z
" transform="scale(0.015625)"/>
       </defs>
       <use xlink:href="#DejaVuSans-1b"/>
      </g>
     </g>
    </g>
    <g id="xtick_3">
     <g id="line2d_5">
      <path d="M 183.345824 180.84 
L 183.345824 22.317187 
" clip-path="url(#p230b8558ed)" style="fill: none; stroke: #262a33; stroke-opacity: 0.5; stroke-width: 0.8; stroke-linecap: square"/>
     </g>
     <g id="line2d_6">
      <g>
       <use xlink:href="#m867736d46e" x="183.345824" y="180.84" style="fill: #7a8499; stroke: #7a8499; stroke-width: 0.8"/>
      </g>
     </g>
     <g id="text_3">
      <!-- 9 -->
      <g style="fill: #7a8499" transform="translate(179.846449 196.197422) scale(0.11 -0.11)">
       <defs>
        <path id="DejaVuSans-1c" d="M 703 97 
L 703 672 
Q 941 559 1184 500 
Q 1428 441 1663 441 
Q 2288 441 2617 861 
Q 2947 1281 2994 2138 
Q 2813 1869 2534 1725 
Q 2256 1581 1919 1581 
Q 1219 1581 811 2004 
Q 403 2428 403 3163 
Q 403 3881 828 4315 
Q 1253 4750 1959 4750 
Q 2769 4750 3195 4129 
Q 3622 3509 3622 2328 
Q 3622 1225 3098 567 
Q 2575 -91 1691 -91 
Q 1453 -91 1209 -44 
Q 966 3 703 97 
z
M 1959 2075 
Q 2384 2075 2632 2365 
Q 2881 2656 2881 3163 
Q 2881 3666 2632 3958 
Q 2384 4250 1959 4250 
Q 1534 4250 1286 3958 
Q 1038 3666 1038 3163 
Q 1038 2656 1286 2365 
Q 1534 2075 1959 2075 
z
" transform="scale(0.015625)"/>
       </defs>
       <use xlink:href="#DejaVuSans-1c"/>
      </g>
     </g>
    </g>
    <g id="xtick_4">
     <g id="line2d_7">
      <path d="M 233.501969 180.84 
L 233.501969 22.317187 
" clip-path="url(#p230b8558ed)" style="fill: none; stroke: #262a33; stroke-opacity: 0.5; stroke-width: 0.8; stroke-linecap: square"/>
     </g>
     <g id="line2d_8">
      <g>
       <use xlink:href="#m867736d46e" x="233.501969" y="180.84" style="fill: #7a8499; stroke: #7a8499; stroke-width: 0.8"/>
      </g>
     </g>
     <g id="text_4">
      <!-- 10 -->
      <g style="fill: #7a8499" transform="translate(226.503219 196.197422) scale(0.11 -0.11)">
       <defs>
        <path id="DejaVuSans-14" d="M 794 531 
L 1825 531 
L 1825 4091 
L 703 3866 
L 703 4441 
L 1819 4666 
L 2450 4666 
L 2450 531 
L 3481 531 
L 3481 0 
L 794 0 
L 794 531 
z
" transform="scale(0.015625)"/>
        <path id="DejaVuSans-13" d="M 2034 4250 
Q 1547 4250 1301 3770 
Q 1056 3291 1056 2328 
Q 1056 1369 1301 889 
Q 1547 409 2034 409 
Q 2525 409 2770 889 
Q 3016 1369 3016 2328 
Q 3016 3291 2770 3770 
Q 2525 4250 2034 4250 
z
M 2034 4750 
Q 2819 4750 3233 4129 
Q 3647 3509 3647 2328 
Q 3647 1150 3233 529 
Q 2819 -91 2034 -91 
Q 1250 -91 836 529 
Q 422 1150 422 2328 
Q 422 3509 836 4129 
Q 1250 4750 2034 4750 
z
" transform="scale(0.015625)"/>
       </defs>
       <use xlink:href="#DejaVuSans-14"/>
       <use xlink:href="#DejaVuSans-13" transform="translate(63.625 0)"/>
      </g>
     </g>
    </g>
    <g id="xtick_5">
     <g id="line2d_9">
      <path d="M 283.658115 180.84 
L 283.658115 22.317187 
" clip-path="url(#p230b8558ed)" style="fill: none; stroke: #262a33; stroke-opacity: 0.5; stroke-width: 0.8; stroke-linecap: square"/>
     </g>
     <g id="line2d_10">
      <g>
       <use xlink:href="#m867736d46e" x="283.658115" y="180.84" style="fill: #7a8499; stroke: #7a8499; stroke-width: 0.8"/>
      </g>
     </g>
     <g id="text_5">
      <!-- 11 -->
      <g style="fill: #7a8499" transform="translate(276.659365 196.197422) scale(0.11 -0.11)">
       <use xlink:href="#DejaVuSans-14"/>
       <use xlink:href="#DejaVuSans-14" transform="translate(63.625 0)"/>
      </g>
     </g>
    </g>
    <g id="text_6">
     <!-- $x$ -->
     <g style="fill: #c9d1e0" transform="translate(180.045824 211.197422) scale(0.11 -0.11)">
      <defs>
       <path id="DejaVuSans-Oblique-5b" d="M 3841 3500 
L 2234 1784 
L 3219 0 
L 2559 0 
L 1819 1388 
L 531 0 
L -166 0 
L 1556 1844 
L 641 3500 
L 1300 3500 
L 1972 2234 
L 3144 3500 
L 3841 3500 
z
" transform="scale(0.015625)"/>
      </defs>
      <use xlink:href="#DejaVuSans-Oblique-5b" transform="translate(0 0.3125)"/>
     </g>
    </g>
   </g>
   <g id="matplotlib.axis_2">
    <g id="ytick_1">
     <g id="line2d_11">
      <path d="M 53.692188 180.84 
L 312.99946 180.84 
" clip-path="url(#p230b8558ed)" style="fill: none; stroke: #262a33; stroke-opacity: 0.5; stroke-width: 0.8; stroke-linecap: square"/>
     </g>
     <g id="line2d_12">
      <defs>
       <path id="m8e22db86f8" d="M 0 0 
L -3.5 0 
" style="stroke: #7a8499; stroke-width: 0.8"/>
      </defs>
      <g>
       <use xlink:href="#m8e22db86f8" x="53.692188" y="180.84" style="fill: #7a8499; stroke: #7a8499; stroke-width: 0.8"/>
      </g>
     </g>
     <g id="text_7">
      <!-- 0.00 -->
      <g style="fill: #7a8499" transform="translate(22.2 185.018711) scale(0.11 -0.11)">
       <defs>
        <path id="DejaVuSans-11" d="M 684 794 
L 1344 794 
L 1344 0 
L 684 0 
L 684 794 
z
" transform="scale(0.015625)"/>
       </defs>
       <use xlink:href="#DejaVuSans-13"/>
       <use xlink:href="#DejaVuSans-11" transform="translate(63.625 0)"/>
       <use xlink:href="#DejaVuSans-13" transform="translate(95.40625 0)"/>
       <use xlink:href="#DejaVuSans-13" transform="translate(159.03125 0)"/>
      </g>
     </g>
    </g>
    <g id="ytick_2">
     <g id="line2d_13">
      <path d="M 53.692188 150.645179 
L 312.99946 150.645179 
" clip-path="url(#p230b8558ed)" style="fill: none; stroke: #262a33; stroke-opacity: 0.5; stroke-width: 0.8; stroke-linecap: square"/>
     </g>
     <g id="line2d_14">
      <g>
       <use xlink:href="#m8e22db86f8" x="53.692188" y="150.645179" style="fill: #7a8499; stroke: #7a8499; stroke-width: 0.8"/>
      </g>
     </g>
     <g id="text_8">
      <!-- 0.05 -->
      <g style="fill: #7a8499" transform="translate(22.2 154.82389) scale(0.11 -0.11)">
       <defs>
        <path id="DejaVuSans-18" d="M 691 4666 
L 3169 4666 
L 3169 4134 
L 1269 4134 
L 1269 2991 
Q 1406 3038 1543 3061 
Q 1681 3084 1819 3084 
Q 2600 3084 3056 2656 
Q 3513 2228 3513 1497 
Q 3513 744 3044 326 
Q 2575 -91 1722 -91 
Q 1428 -91 1123 -41 
Q 819 9 494 109 
L 494 744 
Q 775 591 1075 516 
Q 1375 441 1709 441 
Q 2250 441 2565 725 
Q 2881 1009 2881 1497 
Q 2881 1984 2565 2268 
Q 2250 2553 1709 2553 
Q 1456 2553 1204 2497 
Q 953 2441 691 2322 
L 691 4666 
z
" transform="scale(0.015625)"/>
       </defs>
       <use xlink:href="#DejaVuSans-13"/>
       <use xlink:href="#DejaVuSans-11" transform="translate(63.625 0)"/>
       <use xlink:href="#DejaVuSans-13" transform="translate(95.40625 0)"/>
       <use xlink:href="#DejaVuSans-18" transform="translate(159.03125 0)"/>
      </g>
     </g>
    </g>
    <g id="ytick_3">
     <g id="line2d_15">
      <path d="M 53.692188 120.450357 
L 312.99946 120.450357 
" clip-path="url(#p230b8558ed)" style="fill: none; stroke: #262a33; stroke-opacity: 0.5; stroke-width: 0.8; stroke-linecap: square"/>
     </g>
     <g id="line2d_16">
      <g>
       <use xlink:href="#m8e22db86f8" x="53.692188" y="120.450357" style="fill: #7a8499; stroke: #7a8499; stroke-width: 0.8"/>
      </g>
     </g>
     <g id="text_9">
      <!-- 0.10 -->
      <g style="fill: #7a8499" transform="translate(22.2 124.629068) scale(0.11 -0.11)">
       <use xlink:href="#DejaVuSans-13"/>
       <use xlink:href="#DejaVuSans-11" transform="translate(63.625 0)"/>
       <use xlink:href="#DejaVuSans-14" transform="translate(95.40625 0)"/>
       <use xlink:href="#DejaVuSans-13" transform="translate(159.03125 0)"/>
      </g>
     </g>
    </g>
    <g id="ytick_4">
     <g id="line2d_17">
      <path d="M 53.692188 90.255536 
L 312.99946 90.255536 
" clip-path="url(#p230b8558ed)" style="fill: none; stroke: #262a33; stroke-opacity: 0.5; stroke-width: 0.8; stroke-linecap: square"/>
     </g>
     <g id="line2d_18">
      <g>
       <use xlink:href="#m8e22db86f8" x="53.692188" y="90.255536" style="fill: #7a8499; stroke: #7a8499; stroke-width: 0.8"/>
      </g>
     </g>
     <g id="text_10">
      <!-- 0.15 -->
      <g style="fill: #7a8499" transform="translate(22.2 94.434247) scale(0.11 -0.11)">
       <use xlink:href="#DejaVuSans-13"/>
       <use xlink:href="#DejaVuSans-11" transform="translate(63.625 0)"/>
       <use xlink:href="#DejaVuSans-14" transform="translate(95.40625 0)"/>
       <use xlink:href="#DejaVuSans-18" transform="translate(159.03125 0)"/>
      </g>
     </g>
    </g>
    <g id="ytick_5">
     <g id="line2d_19">
      <path d="M 53.692188 60.060714 
L 312.99946 60.060714 
" clip-path="url(#p230b8558ed)" style="fill: none; stroke: #262a33; stroke-opacity: 0.5; stroke-width: 0.8; stroke-linecap: square"/>
     </g>
     <g id="line2d_20">
      <g>
       <use xlink:href="#m8e22db86f8" x="53.692188" y="60.060714" style="fill: #7a8499; stroke: #7a8499; stroke-width: 0.8"/>
      </g>
     </g>
     <g id="text_11">
      <!-- 0.20 -->
      <g style="fill: #7a8499" transform="translate(22.2 64.239425) scale(0.11 -0.11)">
       <defs>
        <path id="DejaVuSans-15" d="M 1228 531 
L 3431 531 
L 3431 0 
L 469 0 
L 469 531 
Q 828 903 1448 1529 
Q 2069 2156 2228 2338 
Q 2531 2678 2651 2914 
Q 2772 3150 2772 3378 
Q 2772 3750 2511 3984 
Q 2250 4219 1831 4219 
Q 1534 4219 1204 4116 
Q 875 4013 500 3803 
L 500 4441 
Q 881 4594 1212 4672 
Q 1544 4750 1819 4750 
Q 2544 4750 2975 4387 
Q 3406 4025 3406 3419 
Q 3406 3131 3298 2873 
Q 3191 2616 2906 2266 
Q 2828 2175 2409 1742 
Q 1991 1309 1228 531 
z
" transform="scale(0.015625)"/>
       </defs>
       <use xlink:href="#DejaVuSans-13"/>
       <use xlink:href="#DejaVuSans-11" transform="translate(63.625 0)"/>
       <use xlink:href="#DejaVuSans-15" transform="translate(95.40625 0)"/>
       <use xlink:href="#DejaVuSans-13" transform="translate(159.03125 0)"/>
      </g>
     </g>
    </g>
    <g id="ytick_6">
     <g id="line2d_21">
      <path d="M 53.692188 29.865893 
L 312.99946 29.865893 
" clip-path="url(#p230b8558ed)" style="fill: none; stroke: #262a33; stroke-opacity: 0.5; stroke-width: 0.8; stroke-linecap: square"/>
     </g>
     <g id="line2d_22">
      <g>
       <use xlink:href="#m8e22db86f8" x="53.692188" y="29.865893" style="fill: #7a8499; stroke: #7a8499; stroke-width: 0.8"/>
      </g>
     </g>
     <g id="text_12">
      <!-- 0.25 -->
      <g style="fill: #7a8499" transform="translate(22.2 34.044604) scale(0.11 -0.11)">
       <use xlink:href="#DejaVuSans-13"/>
       <use xlink:href="#DejaVuSans-11" transform="translate(63.625 0)"/>
       <use xlink:href="#DejaVuSans-15" transform="translate(95.40625 0)"/>
       <use xlink:href="#DejaVuSans-18" transform="translate(159.03125 0)"/>
      </g>
     </g>
    </g>
    <g id="text_13">
     <!-- $w_i$ -->
     <g style="fill: #c9d1e0" transform="translate(15.557422 107.298594) rotate(-90) scale(0.11 -0.11)">
      <defs>
       <path id="DejaVuSans-Oblique-5a" d="M 544 3500 
L 1113 3500 
L 1259 684 
L 2566 3500 
L 3231 3500 
L 3425 684 
L 4666 3500 
L 5241 3500 
L 3641 0 
L 2969 0 
L 2797 2900 
L 1459 0 
L 781 0 
L 544 3500 
z
" transform="scale(0.015625)"/>
       <path id="DejaVuSans-Oblique-4c" d="M 1172 4863 
L 1747 4863 
L 1606 4134 
L 1031 4134 
L 1172 4863 
z
M 909 3500 
L 1484 3500 
L 800 0 
L 225 0 
L 909 3500 
z
" transform="scale(0.015625)"/>
      </defs>
      <use xlink:href="#DejaVuSans-Oblique-5a" transform="translate(0 0.3125)"/>
      <use xlink:href="#DejaVuSans-Oblique-4c" transform="translate(81.787109 -14.687451) scale(0.7)"/>
     </g>
    </g>
   </g>
   <g id="patch_8">
    <path d="M 53.692188 180.84 
L 53.692188 22.317187 
" style="fill: none; stroke: #262a33; stroke-width: 0.8; stroke-linejoin: miter; stroke-linecap: square"/>
   </g>
   <g id="patch_9">
    <path d="M 312.99946 180.84 
L 312.99946 22.317187 
" style="fill: none; stroke: #262a33; stroke-width: 0.8; stroke-linejoin: miter; stroke-linecap: square"/>
   </g>
   <g id="patch_10">
    <path d="M 53.692187 180.84 
L 312.99946 180.84 
" style="fill: none; stroke: #262a33; stroke-width: 0.8; stroke-linejoin: miter; stroke-linecap: square"/>
   </g>
   <g id="patch_11">
    <path d="M 53.692187 22.317187 
L 312.99946 22.317187 
" style="fill: none; stroke: #262a33; stroke-width: 0.8; stroke-linejoin: miter; stroke-linecap: square"/>
   </g>
   <g id="text_14">
    <!-- Гистограмма относительных частот -->
    <g style="fill: #c9d1e0" transform="translate(68.231136 16.317188) scale(0.12 -0.12)">
     <defs>
      <path id="DejaVuSans-3a7" d="M 628 0 
L 628 4666 
L 3531 4666 
L 3531 4134 
L 1259 4134 
L 1259 0 
L 628 0 
z
" transform="scale(0.015625)"/>
      <path id="DejaVuSans-3cc" d="M 3578 3500 
L 3578 0 
L 3006 0 
L 3006 2809 
L 1319 0 
L 581 0 
L 581 3500 
L 1153 3500 
L 1153 697 
L 2838 3500 
L 3578 3500 
z
" transform="scale(0.015625)"/>
      <path id="DejaVuSans-3d5" d="M 3122 3366 
L 3122 2828 
Q 2878 2963 2633 3030 
Q 2388 3097 2138 3097 
Q 1578 3097 1268 2742 
Q 959 2388 959 1747 
Q 959 1106 1268 751 
Q 1578 397 2138 397 
Q 2388 397 2633 464 
Q 2878 531 3122 666 
L 3122 134 
Q 2881 22 2623 -34 
Q 2366 -91 2075 -91 
Q 1284 -91 818 406 
Q 353 903 353 1747 
Q 353 2603 823 3093 
Q 1294 3584 2113 3584 
Q 2378 3584 2631 3529 
Q 2884 3475 3122 3366 
z
" transform="scale(0.015625)"/>
      <path id="DejaVuSans-3d6" d="M 188 3500 
L 3541 3500 
L 3541 3041 
L 2147 3041 
L 2147 0 
L 1581 0 
L 1581 3041 
L 188 3041 
L 188 3500 
z
" transform="scale(0.015625)"/>
      <path id="DejaVuSans-3d2" d="M 1959 3097 
Q 1497 3097 1228 2736 
Q 959 2375 959 1747 
Q 959 1119 1226 758 
Q 1494 397 1959 397 
Q 2419 397 2687 759 
Q 2956 1122 2956 1747 
Q 2956 2369 2687 2733 
Q 2419 3097 1959 3097 
z
M 1959 3584 
Q 2709 3584 3137 3096 
Q 3566 2609 3566 1747 
Q 3566 888 3137 398 
Q 2709 -91 1959 -91 
Q 1206 -91 779 398 
Q 353 888 353 1747 
Q 353 2609 779 3096 
Q 1206 3584 1959 3584 
z
" transform="scale(0.015625)"/>
      <path id="DejaVuSans-3c7" d="M 581 0 
L 581 3500 
L 3050 3500 
L 3050 3041 
L 1159 3041 
L 1159 0 
L 581 0 
z
" transform="scale(0.015625)"/>
      <path id="DejaVuSans-3d4" d="M 1159 525 
L 1159 -1331 
L 581 -1331 
L 581 3500 
L 1159 3500 
L 1159 2969 
Q 1341 3281 1617 3432 
Q 1894 3584 2278 3584 
Q 2916 3584 3314 3078 
Q 3713 2572 3713 1747 
Q 3713 922 3314 415 
Q 2916 -91 2278 -91 
Q 1894 -91 1617 61 
Q 1341 213 1159 525 
z
M 3116 1747 
Q 3116 2381 2855 2742 
Q 2594 3103 2138 3103 
Q 1681 3103 1420 2742 
Q 1159 2381 1159 1747 
Q 1159 1113 1420 752 
Q 1681 391 2138 391 
Q 2594 391 2855 752 
Q 3116 1113 3116 1747 
z
" transform="scale(0.015625)"/>
      <path id="DejaVuSans-3c4" d="M 2194 1759 
Q 1497 1759 1228 1600 
Q 959 1441 959 1056 
Q 959 750 1161 570 
Q 1363 391 1709 391 
Q 2188 391 2477 730 
Q 2766 1069 2766 1631 
L 2766 1759 
L 2194 1759 
z
M 3341 1997 
L 3341 0 
L 2766 0 
L 2766 531 
Q 2569 213 2275 61 
Q 1981 -91 1556 -91 
Q 1019 -91 701 211 
Q 384 513 384 1019 
Q 384 1609 779 1909 
Q 1175 2209 1959 2209 
L 2766 2209 
L 2766 2266 
Q 2766 2663 2505 2880 
Q 2244 3097 1772 3097 
Q 1472 3097 1187 3025 
Q 903 2953 641 2809 
L 641 3341 
Q 956 3463 1253 3523 
Q 1550 3584 1831 3584 
Q 2591 3584 2966 3190 
Q 3341 2797 3341 1997 
z
" transform="scale(0.015625)"/>
      <path id="DejaVuSans-3d0" d="M 581 3500 
L 1422 3500 
L 2416 1156 
L 3413 3500 
L 4247 3500 
L 4247 0 
L 3669 0 
L 3669 2950 
L 2703 672 
L 2128 672 
L 1159 2950 
L 1159 0 
L 581 0 
L 581 3500 
z
" transform="scale(0.015625)"/>
      <path id="DejaVuSans-3" transform="scale(0.015625)"/>
      <path id="DejaVuSans-3d1" d="M 581 3500 
L 1159 3500 
L 1159 2072 
L 3025 2072 
L 3025 3500 
L 3603 3500 
L 3603 0 
L 3025 0 
L 3025 1613 
L 1159 1613 
L 1159 0 
L 581 0 
L 581 3500 
z
" transform="scale(0.015625)"/>
      <path id="DejaVuSans-3c9" d="M 3597 1894 
L 3597 1613 
L 953 1613 
Q 991 1019 1311 708 
Q 1631 397 2203 397 
Q 2534 397 2845 478 
Q 3156 559 3463 722 
L 3463 178 
Q 3153 47 2828 -22 
Q 2503 -91 2169 -91 
Q 1331 -91 842 396 
Q 353 884 353 1716 
Q 353 2575 817 3079 
Q 1281 3584 2069 3584 
Q 2775 3584 3186 3129 
Q 3597 2675 3597 1894 
z
M 3022 2063 
Q 3016 2534 2758 2815 
Q 2500 3097 2075 3097 
Q 1594 3097 1305 2825 
Q 1016 2553 972 2059 
L 3022 2063 
z
" transform="scale(0.015625)"/>
      <path id="DejaVuSans-3cf" d="M 238 0 
L 238 478 
Q 806 566 981 959 
Q 1194 1513 1194 2928 
L 1194 3500 
L 3559 3500 
L 3559 0 
L 2984 0 
L 2984 3041 
L 1769 3041 
L 1769 2694 
Q 1769 1344 1494 738 
Q 1200 91 238 0 
z
" transform="scale(0.015625)"/>
      <path id="DejaVuSans-3e0" d="M 2781 1038 
Q 2781 1319 2576 1466 
Q 2372 1613 1978 1613 
L 1159 1613 
L 1159 459 
L 1978 459 
Q 2372 459 2576 607 
Q 2781 756 2781 1038 
z
M 581 3500 
L 1159 3500 
L 1159 2072 
L 2003 2072 
Q 2672 2072 3033 1817 
Q 3394 1563 3394 1038 
Q 3394 513 3033 256 
Q 2672 0 2003 0 
L 581 0 
L 581 3500 
z
" transform="scale(0.015625)"/>
      <path id="DejaVuSans-3df" d="M 3909 3500 
L 4484 3500 
L 4484 0 
L 3909 0 
L 3909 3500 
z
M 4197 3584 
L 4197 3584 
z
M 2781 1038 
Q 2781 1319 2576 1466 
Q 2372 1613 1978 1613 
L 1159 1613 
L 1159 459 
L 1978 459 
Q 2372 459 2576 607 
Q 2781 756 2781 1038 
z
M 581 3500 
L 1159 3500 
L 1159 2072 
L 2003 2072 
Q 2672 2072 3033 1817 
Q 3394 1563 3394 1038 
Q 3394 513 3033 256 
Q 2672 0 2003 0 
L 581 0 
L 581 3500 
z
" transform="scale(0.015625)"/>
      <path id="DejaVuSans-3d9" d="M 3513 3500 
L 2247 1797 
L 3578 0 
L 2900 0 
L 1881 1375 
L 863 0 
L 184 0 
L 1544 1831 
L 300 3500 
L 978 3500 
L 1906 2253 
L 2834 3500 
L 3513 3500 
z
" transform="scale(0.015625)"/>
      <path id="DejaVuSans-3db" d="M 2625 0 
L 2625 1472 
L 1553 1472 
Q 1075 1472 756 1769 
Q 469 2038 469 2613 
L 469 3500 
L 1044 3500 
L 1044 2666 
Q 1044 2300 1206 2116 
Q 1372 1931 1697 1931 
L 2625 1931 
L 2625 3500 
L 3200 3500 
L 3200 0 
L 2625 0 
z
" transform="scale(0.015625)"/>
     </defs>
     <use xlink:href="#DejaVuSans-3a7"/>
     <use xlink:href="#DejaVuSans-3cc" transform="translate(60.984375 0)"/>
     <use xlink:href="#DejaVuSans-3d5" transform="translate(125.96875 0)"/>
     <use xlink:href="#DejaVuSans-3d6" transform="translate(180.953125 0)"/>
     <use xlink:href="#DejaVuSans-3d2" transform="translate(239.203125 0)"/>
     <use xlink:href="#DejaVuSans-3c7" transform="translate(300.390625 0)"/>
     <use xlink:href="#DejaVuSans-3d4" transform="translate(352.9375 0)"/>
     <use xlink:href="#DejaVuSans-3c4" transform="translate(416.421875 0)"/>
     <use xlink:href="#DejaVuSans-3d0" transform="translate(477.703125 0)"/>
     <use xlink:href="#DejaVuSans-3d0" transform="translate(553.140625 0)"/>
     <use xlink:href="#DejaVuSans-3c4" transform="translate(628.578125 0)"/>
     <use xlink:href="#DejaVuSans-3" transform="translate(689.859375 0)"/>
     <use xlink:href="#DejaVuSans-3d2" transform="translate(721.640625 0)"/>
     <use xlink:href="#DejaVuSans-3d6" transform="translate(782.828125 0)"/>
     <use xlink:href="#DejaVuSans-3d1" transform="translate(841.078125 0)"/>
     <use xlink:href="#DejaVuSans-3d2" transform="translate(906.453125 0)"/>
     <use xlink:href="#DejaVuSans-3d5" transform="translate(967.640625 0)"/>
     <use xlink:href="#DejaVuSans-3cc" transform="translate(1022.625 0)"/>
     <use xlink:href="#DejaVuSans-3d6" transform="translate(1087.609375 0)"/>
     <use xlink:href="#DejaVuSans-3c9" transform="translate(1145.859375 0)"/>
     <use xlink:href="#DejaVuSans-3cf" transform="translate(1207.390625 0)"/>
     <use xlink:href="#DejaVuSans-3e0" transform="translate(1271.3125 0)"/>
     <use xlink:href="#DejaVuSans-3d1" transform="translate(1330.25 0)"/>
     <use xlink:href="#DejaVuSans-3df" transform="translate(1395.625 0)"/>
     <use xlink:href="#DejaVuSans-3d9" transform="translate(1474.578125 0)"/>
     <use xlink:href="#DejaVuSans-3" transform="translate(1533.765625 0)"/>
     <use xlink:href="#DejaVuSans-3db" transform="translate(1565.546875 0)"/>
     <use xlink:href="#DejaVuSans-3c4" transform="translate(1624.625 0)"/>
     <use xlink:href="#DejaVuSans-3d5" transform="translate(1685.90625 0)"/>
     <use xlink:href="#DejaVuSans-3d6" transform="translate(1740.890625 0)"/>
     <use xlink:href="#DejaVuSans-3d2" transform="translate(1799.140625 0)"/>
     <use xlink:href="#DejaVuSans-3d6" transform="translate(1860.328125 0)"/>
    </g>
   </g>
   <g id="legend_1">
    <g id="patch_12">
     <path d="M 240.99946 43.017891 
L 306.69946 43.017891 
Q 308.49946 43.017891 308.49946 41.217891 
L 308.49946 28.617188 
Q 308.49946 26.817187 306.69946 26.817187 
L 240.99946 26.817187 
Q 239.19946 26.817187 239.19946 28.617188 
L 239.19946 41.217891 
Q 239.19946 43.017891 240.99946 43.017891 
z
" style="fill: #13151b; opacity: 0.8; stroke: #cccccc; stroke-linejoin: miter"/>
    </g>
    <g id="patch_13">
     <path d="M 242.79946 37.255781 
L 260.79946 37.255781 
L 260.79946 30.955781 
L 242.79946 30.955781 
z
" style="fill: #22c55e; opacity: 0.75; stroke: #000000; stroke-width: 0.6; stroke-linejoin: miter"/>
    </g>
    <g id="text_15">
     <!-- $w_i = n_i/n$ -->
     <g style="fill: #c9d1e0" transform="translate(267.99946 37.255781) scale(0.09 -0.09)">
      <defs>
       <path id="DejaVuSans-20" d="M 678 2906 
L 4684 2906 
L 4684 2381 
L 678 2381 
L 678 2906 
z
M 678 1631 
L 4684 1631 
L 4684 1100 
L 678 1100 
L 678 1631 
z
" transform="scale(0.015625)"/>
       <path id="DejaVuSans-Oblique-51" d="M 3566 2113 
L 3156 0 
L 2578 0 
L 2988 2091 
Q 3016 2238 3031 2350 
Q 3047 2463 3047 2528 
Q 3047 2791 2881 2937 
Q 2716 3084 2419 3084 
Q 1956 3084 1622 2776 
Q 1288 2469 1184 1941 
L 800 0 
L 225 0 
L 903 3500 
L 1478 3500 
L 1363 2950 
Q 1603 3253 1940 3418 
Q 2278 3584 2650 3584 
Q 3113 3584 3367 3334 
Q 3622 3084 3622 2631 
Q 3622 2519 3608 2391 
Q 3594 2263 3566 2113 
z
" transform="scale(0.015625)"/>
       <path id="DejaVuSans-12" d="M 1625 4666 
L 2156 4666 
L 531 -594 
L 0 -594 
L 1625 4666 
z
" transform="scale(0.015625)"/>
      </defs>
      <use xlink:href="#DejaVuSans-Oblique-5a" transform="translate(0 0.09375)"/>
      <use xlink:href="#DejaVuSans-Oblique-4c" transform="translate(81.787109 -14.906201) scale(0.7)"/>
      <use xlink:href="#DejaVuSans-20" transform="translate(123.452148 0.09375)"/>
      <use xlink:href="#DejaVuSans-Oblique-51" transform="translate(226.723633 0.09375)"/>
      <use xlink:href="#DejaVuSans-Oblique-4c" transform="translate(290.102539 -14.906201) scale(0.7)"/>
      <use xlink:href="#DejaVuSans-12" transform="translate(312.285156 0.09375)"/>
      <use xlink:href="#DejaVuSans-Oblique-51" transform="translate(345.976562 0.09375)"/>
     </g>
    </g>
   </g>
  </g>
  <g id="axes_2">
   <g id="patch_14">
    <path d="M 371.752188 180.84 
L 631.05946 180.84 
L 631.05946 22.317187 
L 371.752188 22.317187 
z
" style="fill: #13151b"/>
   </g>
   <g id="FillBetweenPolyCollection_1">
    <defs>
     <path id="m99b2b623e5" d="M 383.538882 -47.405582 
L 383.538882 -167.498622 
L 442.472353 -191.51723 
L 501.405824 -191.51723 
L 560.339295 -191.51723 
L 619.272766 -71.42419 
L 619.272766 -47.405582 
L 619.272766 -47.405582 
L 560.339295 -47.405582 
L 501.405824 -47.405582 
L 442.472353 -47.405582 
L 383.538882 -47.405582 
z
" style="stroke: #22c55e; stroke-opacity: 0.18"/>
    </defs>
    <g clip-path="url(#p54734f37cb)">
     <use xlink:href="#m99b2b623e5" x="0" y="221.04" style="fill: #22c55e; fill-opacity: 0.18; stroke: #22c55e; stroke-opacity: 0.18"/>
    </g>
   </g>
   <g id="matplotlib.axis_3">
    <g id="xtick_6">
     <g id="line2d_23">
      <path d="M 383.538882 180.84 
L 383.538882 22.317187 
" clip-path="url(#p54734f37cb)" style="fill: none; stroke: #262a33; stroke-opacity: 0.5; stroke-width: 0.8; stroke-linecap: square"/>
     </g>
     <g id="line2d_24">
      <g>
       <use xlink:href="#m867736d46e" x="383.538882" y="180.84" style="fill: #7a8499; stroke: #7a8499; stroke-width: 0.8"/>
      </g>
     </g>
     <g id="text_16">
      <!-- 7 -->
      <g style="fill: #7a8499" transform="translate(380.039507 196.197422) scale(0.11 -0.11)">
       <use xlink:href="#DejaVuSans-1a"/>
      </g>
     </g>
    </g>
    <g id="xtick_7">
     <g id="line2d_25">
      <path d="M 442.472353 180.84 
L 442.472353 22.317187 
" clip-path="url(#p54734f37cb)" style="fill: none; stroke: #262a33; stroke-opacity: 0.5; stroke-width: 0.8; stroke-linecap: square"/>
     </g>
     <g id="line2d_26">
      <g>
       <use xlink:href="#m867736d46e" x="442.472353" y="180.84" style="fill: #7a8499; stroke: #7a8499; stroke-width: 0.8"/>
      </g>
     </g>
     <g id="text_17">
      <!-- 8 -->
      <g style="fill: #7a8499" transform="translate(438.972978 196.197422) scale(0.11 -0.11)">
       <use xlink:href="#DejaVuSans-1b"/>
      </g>
     </g>
    </g>
    <g id="xtick_8">
     <g id="line2d_27">
      <path d="M 501.405824 180.84 
L 501.405824 22.317187 
" clip-path="url(#p54734f37cb)" style="fill: none; stroke: #262a33; stroke-opacity: 0.5; stroke-width: 0.8; stroke-linecap: square"/>
     </g>
     <g id="line2d_28">
      <g>
       <use xlink:href="#m867736d46e" x="501.405824" y="180.84" style="fill: #7a8499; stroke: #7a8499; stroke-width: 0.8"/>
      </g>
     </g>
     <g id="text_18">
      <!-- 9 -->
      <g style="fill: #7a8499" transform="translate(497.906449 196.197422) scale(0.11 -0.11)">
       <use xlink:href="#DejaVuSans-1c"/>
      </g>
     </g>
    </g>
    <g id="xtick_9">
     <g id="line2d_29">
      <path d="M 560.339295 180.84 
L 560.339295 22.317187 
" clip-path="url(#p54734f37cb)" style="fill: none; stroke: #262a33; stroke-opacity: 0.5; stroke-width: 0.8; stroke-linecap: square"/>
     </g>
     <g id="line2d_30">
      <g>
       <use xlink:href="#m867736d46e" x="560.339295" y="180.84" style="fill: #7a8499; stroke: #7a8499; stroke-width: 0.8"/>
      </g>
     </g>
     <g id="text_19">
      <!-- 10 -->
      <g style="fill: #7a8499" transform="translate(553.340545 196.197422) scale(0.11 -0.11)">
       <use xlink:href="#DejaVuSans-14"/>
       <use xlink:href="#DejaVuSans-13" transform="translate(63.625 0)"/>
      </g>
     </g>
    </g>
    <g id="xtick_10">
     <g id="line2d_31">
      <path d="M 619.272766 180.84 
L 619.272766 22.317187 
" clip-path="url(#p54734f37cb)" style="fill: none; stroke: #262a33; stroke-opacity: 0.5; stroke-width: 0.8; stroke-linecap: square"/>
     </g>
     <g id="line2d_32">
      <g>
       <use xlink:href="#m867736d46e" x="619.272766" y="180.84" style="fill: #7a8499; stroke: #7a8499; stroke-width: 0.8"/>
      </g>
     </g>
     <g id="text_20">
      <!-- 11 -->
      <g style="fill: #7a8499" transform="translate(612.274016 196.197422) scale(0.11 -0.11)">
       <use xlink:href="#DejaVuSans-14"/>
       <use xlink:href="#DejaVuSans-14" transform="translate(63.625 0)"/>
      </g>
     </g>
    </g>
    <g id="text_21">
     <!-- $x$ -->
     <g style="fill: #c9d1e0" transform="translate(498.105824 211.197422) scale(0.11 -0.11)">
      <use xlink:href="#DejaVuSans-Oblique-5b" transform="translate(0 0.3125)"/>
     </g>
    </g>
   </g>
   <g id="matplotlib.axis_4">
    <g id="ytick_7">
     <g id="line2d_33">
      <path d="M 371.752188 173.634418 
L 631.05946 173.634418 
" clip-path="url(#p54734f37cb)" style="fill: none; stroke: #262a33; stroke-opacity: 0.5; stroke-width: 0.8; stroke-linecap: square"/>
     </g>
     <g id="line2d_34">
      <g>
       <use xlink:href="#m8e22db86f8" x="371.752188" y="173.634418" style="fill: #7a8499; stroke: #7a8499; stroke-width: 0.8"/>
      </g>
     </g>
     <g id="text_22">
      <!-- 0.00 -->
      <g style="fill: #7a8499" transform="translate(340.26 177.813129) scale(0.11 -0.11)">
       <use xlink:href="#DejaVuSans-13"/>
       <use xlink:href="#DejaVuSans-11" transform="translate(63.625 0)"/>
       <use xlink:href="#DejaVuSans-13" transform="translate(95.40625 0)"/>
       <use xlink:href="#DejaVuSans-13" transform="translate(159.03125 0)"/>
      </g>
     </g>
    </g>
    <g id="ytick_8">
     <g id="line2d_35">
      <path d="M 371.752188 144.812088 
L 631.05946 144.812088 
" clip-path="url(#p54734f37cb)" style="fill: none; stroke: #262a33; stroke-opacity: 0.5; stroke-width: 0.8; stroke-linecap: square"/>
     </g>
     <g id="line2d_36">
      <g>
       <use xlink:href="#m8e22db86f8" x="371.752188" y="144.812088" style="fill: #7a8499; stroke: #7a8499; stroke-width: 0.8"/>
      </g>
     </g>
     <g id="text_23">
      <!-- 0.05 -->
      <g style="fill: #7a8499" transform="translate(340.26 148.990799) scale(0.11 -0.11)">
       <use xlink:href="#DejaVuSans-13"/>
       <use xlink:href="#DejaVuSans-11" transform="translate(63.625 0)"/>
       <use xlink:href="#DejaVuSans-13" transform="translate(95.40625 0)"/>
       <use xlink:href="#DejaVuSans-18" transform="translate(159.03125 0)"/>
      </g>
     </g>
    </g>
    <g id="ytick_9">
     <g id="line2d_37">
      <path d="M 371.752188 115.989759 
L 631.05946 115.989759 
" clip-path="url(#p54734f37cb)" style="fill: none; stroke: #262a33; stroke-opacity: 0.5; stroke-width: 0.8; stroke-linecap: square"/>
     </g>
     <g id="line2d_38">
      <g>
       <use xlink:href="#m8e22db86f8" x="371.752188" y="115.989759" style="fill: #7a8499; stroke: #7a8499; stroke-width: 0.8"/>
      </g>
     </g>
     <g id="text_24">
      <!-- 0.10 -->
      <g style="fill: #7a8499" transform="translate(340.26 120.168469) scale(0.11 -0.11)">
       <use xlink:href="#DejaVuSans-13"/>
       <use xlink:href="#DejaVuSans-11" transform="translate(63.625 0)"/>
       <use xlink:href="#DejaVuSans-14" transform="translate(95.40625 0)"/>
       <use xlink:href="#DejaVuSans-13" transform="translate(159.03125 0)"/>
      </g>
     </g>
    </g>
    <g id="ytick_10">
     <g id="line2d_39">
      <path d="M 371.752188 87.167429 
L 631.05946 87.167429 
" clip-path="url(#p54734f37cb)" style="fill: none; stroke: #262a33; stroke-opacity: 0.5; stroke-width: 0.8; stroke-linecap: square"/>
     </g>
     <g id="line2d_40">
      <g>
       <use xlink:href="#m8e22db86f8" x="371.752188" y="87.167429" style="fill: #7a8499; stroke: #7a8499; stroke-width: 0.8"/>
      </g>
     </g>
     <g id="text_25">
      <!-- 0.15 -->
      <g style="fill: #7a8499" transform="translate(340.26 91.34614) scale(0.11 -0.11)">
       <use xlink:href="#DejaVuSans-13"/>
       <use xlink:href="#DejaVuSans-11" transform="translate(63.625 0)"/>
       <use xlink:href="#DejaVuSans-14" transform="translate(95.40625 0)"/>
       <use xlink:href="#DejaVuSans-18" transform="translate(159.03125 0)"/>
      </g>
     </g>
    </g>
    <g id="ytick_11">
     <g id="line2d_41">
      <path d="M 371.752188 58.345099 
L 631.05946 58.345099 
" clip-path="url(#p54734f37cb)" style="fill: none; stroke: #262a33; stroke-opacity: 0.5; stroke-width: 0.8; stroke-linecap: square"/>
     </g>
     <g id="line2d_42">
      <g>
       <use xlink:href="#m8e22db86f8" x="371.752188" y="58.345099" style="fill: #7a8499; stroke: #7a8499; stroke-width: 0.8"/>
      </g>
     </g>
     <g id="text_26">
      <!-- 0.20 -->
      <g style="fill: #7a8499" transform="translate(340.26 62.52381) scale(0.11 -0.11)">
       <use xlink:href="#DejaVuSans-13"/>
       <use xlink:href="#DejaVuSans-11" transform="translate(63.625 0)"/>
       <use xlink:href="#DejaVuSans-15" transform="translate(95.40625 0)"/>
       <use xlink:href="#DejaVuSans-13" transform="translate(159.03125 0)"/>
      </g>
     </g>
    </g>
    <g id="ytick_12">
     <g id="line2d_43">
      <path d="M 371.752188 29.52277 
L 631.05946 29.52277 
" clip-path="url(#p54734f37cb)" style="fill: none; stroke: #262a33; stroke-opacity: 0.5; stroke-width: 0.8; stroke-linecap: square"/>
     </g>
     <g id="line2d_44">
      <g>
       <use xlink:href="#m8e22db86f8" x="371.752188" y="29.52277" style="fill: #7a8499; stroke: #7a8499; stroke-width: 0.8"/>
      </g>
     </g>
     <g id="text_27">
      <!-- 0.25 -->
      <g style="fill: #7a8499" transform="translate(340.26 33.701481) scale(0.11 -0.11)">
       <use xlink:href="#DejaVuSans-13"/>
       <use xlink:href="#DejaVuSans-11" transform="translate(63.625 0)"/>
       <use xlink:href="#DejaVuSans-15" transform="translate(95.40625 0)"/>
       <use xlink:href="#DejaVuSans-18" transform="translate(159.03125 0)"/>
      </g>
     </g>
    </g>
    <g id="text_28">
     <!-- $w_i$ -->
     <g style="fill: #c9d1e0" transform="translate(333.617422 107.298594) rotate(-90) scale(0.11 -0.11)">
      <use xlink:href="#DejaVuSans-Oblique-5a" transform="translate(0 0.3125)"/>
      <use xlink:href="#DejaVuSans-Oblique-4c" transform="translate(81.787109 -14.687451) scale(0.7)"/>
     </g>
    </g>
   </g>
   <g id="line2d_45">
    <path d="M 383.538882 53.541378 
L 442.472353 29.52277 
L 501.405824 29.52277 
L 560.339295 29.52277 
L 619.272766 149.61581 
" clip-path="url(#p54734f37cb)" style="fill: none; stroke: #22c55e; stroke-width: 2; stroke-linecap: square"/>
    <defs>
     <path id="m943a8d0003" d="M 0 3 
C 0.795609 3 1.55874 2.683901 2.12132 2.12132 
C 2.683901 1.55874 3 0.795609 3 0 
C 3 -0.795609 2.683901 -1.55874 2.12132 -2.12132 
C 1.55874 -2.683901 0.795609 -3 0 -3 
C -0.795609 -3 -1.55874 -2.683901 -2.12132 -2.12132 
C -2.683901 -1.55874 -3 -0.795609 -3 0 
C -3 0.795609 -2.683901 1.55874 -2.12132 2.12132 
C -1.55874 2.683901 -0.795609 3 0 3 
z
" style="stroke: #22c55e"/>
    </defs>
    <g clip-path="url(#p54734f37cb)">
     <use xlink:href="#m943a8d0003" x="383.538882" y="53.541378" style="fill: #22c55e; stroke: #22c55e"/>
     <use xlink:href="#m943a8d0003" x="442.472353" y="29.52277" style="fill: #22c55e; stroke: #22c55e"/>
     <use xlink:href="#m943a8d0003" x="501.405824" y="29.52277" style="fill: #22c55e; stroke: #22c55e"/>
     <use xlink:href="#m943a8d0003" x="560.339295" y="29.52277" style="fill: #22c55e; stroke: #22c55e"/>
     <use xlink:href="#m943a8d0003" x="619.272766" y="149.61581" style="fill: #22c55e; stroke: #22c55e"/>
    </g>
   </g>
   <g id="patch_15">
    <path d="M 371.752188 180.84 
L 371.752188 22.317188 
" style="fill: none; stroke: #262a33; stroke-width: 0.8; stroke-linejoin: miter; stroke-linecap: square"/>
   </g>
   <g id="patch_16">
    <path d="M 631.05946 180.84 
L 631.05946 22.317188 
" style="fill: none; stroke: #262a33; stroke-width: 0.8; stroke-linejoin: miter; stroke-linecap: square"/>
   </g>
   <g id="patch_17">
    <path d="M 371.752188 180.84 
L 631.05946 180.84 
" style="fill: none; stroke: #262a33; stroke-width: 0.8; stroke-linejoin: miter; stroke-linecap: square"/>
   </g>
   <g id="patch_18">
    <path d="M 371.752188 22.317187 
L 631.05946 22.317187 
" style="fill: none; stroke: #262a33; stroke-width: 0.8; stroke-linejoin: miter; stroke-linecap: square"/>
   </g>
   <g id="text_29">
    <!-- Полигон относительных частот -->
    <g style="fill: #c9d1e0" transform="translate(401.018324 16.317188) scale(0.12 -0.12)">
     <defs>
      <path id="DejaVuSans-3b3" d="M 4184 4666 
L 4184 0 
L 3553 0 
L 3553 4134 
L 1259 4134 
L 1259 0 
L 628 0 
L 628 4666 
L 4184 4666 
z
" transform="scale(0.015625)"/>
     </defs>
     <use xlink:href="#DejaVuSans-3b3"/>
     <use xlink:href="#DejaVuSans-3d2" transform="translate(75.203125 0)"/>
     <use xlink:href="#DejaVuSans-3cf" transform="translate(136.390625 0)"/>
     <use xlink:href="#DejaVuSans-3cc" transform="translate(200.3125 0)"/>
     <use xlink:href="#DejaVuSans-3c7" transform="translate(265.296875 0)"/>
     <use xlink:href="#DejaVuSans-3d2" transform="translate(317.84375 0)"/>
     <use xlink:href="#DejaVuSans-3d1" transform="translate(379.03125 0)"/>
     <use xlink:href="#DejaVuSans-3" transform="translate(444.40625 0)"/>
     <use xlink:href="#DejaVuSans-3d2" transform="translate(476.1875 0)"/>
     <use xlink:href="#DejaVuSans-3d6" transform="translate(537.375 0)"/>
     <use xlink:href="#DejaVuSans-3d1" transform="translate(595.625 0)"/>
     <use xlink:href="#DejaVuSans-3d2" transform="translate(661 0)"/>
     <use xlink:href="#DejaVuSans-3d5" transform="translate(722.1875 0)"/>
     <use xlink:href="#DejaVuSans-3cc" transform="translate(777.171875 0)"/>
     <use xlink:href="#DejaVuSans-3d6" transform="translate(842.15625 0)"/>
     <use xlink:href="#DejaVuSans-3c9" transform="translate(900.40625 0)"/>
     <use xlink:href="#DejaVuSans-3cf" transform="translate(961.9375 0)"/>
     <use xlink:href="#DejaVuSans-3e0" transform="translate(1025.859375 0)"/>
     <use xlink:href="#DejaVuSans-3d1" transform="translate(1084.796875 0)"/>
     <use xlink:href="#DejaVuSans-3df" transform="translate(1150.171875 0)"/>
     <use xlink:href="#DejaVuSans-3d9" transform="translate(1229.125 0)"/>
     <use xlink:href="#DejaVuSans-3" transform="translate(1288.3125 0)"/>
     <use xlink:href="#DejaVuSans-3db" transform="translate(1320.09375 0)"/>
     <use xlink:href="#DejaVuSans-3c4" transform="translate(1379.171875 0)"/>
     <use xlink:href="#DejaVuSans-3d5" transform="translate(1440.453125 0)"/>
     <use xlink:href="#DejaVuSans-3d6" transform="translate(1495.4375 0)"/>
     <use xlink:href="#DejaVuSans-3d2" transform="translate(1553.6875 0)"/>
     <use xlink:href="#DejaVuSans-3d6" transform="translate(1614.875 0)"/>
    </g>
   </g>
   <g id="legend_2">
    <g id="patch_19">
     <path d="M 586.59946 43.017891 
L 624.75946 43.017891 
Q 626.55946 43.017891 626.55946 41.217891 
L 626.55946 28.617188 
Q 626.55946 26.817187 624.75946 26.817187 
L 586.59946 26.817187 
Q 584.79946 26.817187 584.79946 28.617188 
L 584.79946 41.217891 
Q 584.79946 43.017891 586.59946 43.017891 
z
" style="fill: #13151b; opacity: 0.8; stroke: #cccccc; stroke-linejoin: miter"/>
    </g>
    <g id="line2d_46">
     <path d="M 588.39946 34.105781 
L 597.39946 34.105781 
L 606.39946 34.105781 
" style="fill: none; stroke: #22c55e; stroke-width: 2; stroke-linecap: square"/>
     <g>
      <use xlink:href="#m943a8d0003" x="597.39946" y="34.105781" style="fill: #22c55e; stroke: #22c55e"/>
     </g>
    </g>
    <g id="text_30">
     <!-- $w_i$ -->
     <g style="fill: #c9d1e0" transform="translate(613.59946 37.255781) scale(0.09 -0.09)">
      <use xlink:href="#DejaVuSans-Oblique-5a" transform="translate(0 0.3125)"/>
      <use xlink:href="#DejaVuSans-Oblique-4c" transform="translate(81.787109 -14.687451) scale(0.7)"/>
     </g>
    </g>
   </g>
  </g>
 </g>
 <defs>
  <clipPath id="p230b8558ed">
   <rect x="53.692188" y="22.317188" width="259.307273" height="158.522812"/>
  </clipPath>
  <clipPath id="p54734f37cb">
   <rect x="371.752188" y="22.317188" width="259.307273" height="158.522812"/>
  </clipPath>
 </defs>
</svg>
